<svg width="40" height="40" viewBox="0 0 40 40" fill="none" xmlns="http://www.w3.org/2000/svg">
<path d="M4.59825 22.0257C5.56923 22.0257 6.33932 21.2556 6.33932 20.3013C6.33932 19.3303 5.56923 18.5603 4.59825 18.5603C3.62727 18.5603 2.85718 19.3303 2.85718 20.3013C2.85718 21.2556 3.62727 22.0257 4.59825 22.0257ZM8.54915 10.2902C9.52012 10.2902 10.2902 9.50335 10.2902 8.54912C10.2902 7.57813 9.52012 6.80803 8.54915 6.80803C7.59491 6.80803 6.80806 7.57813 6.80806 8.54912C6.80806 9.50335 7.59491 10.2902 8.54915 10.2902ZM20.3182 6.33929C21.2723 6.33929 22.0425 5.5692 22.0425 4.59822C22.0425 3.64398 21.2723 2.85715 20.3182 2.85715C19.3472 2.85715 18.577 3.64398 18.577 4.59822C18.577 5.5692 19.3472 6.33929 20.3182 6.33929ZM32.0703 10.2902C33.0413 10.2902 33.8115 9.50335 33.8115 8.54912C33.8115 7.57813 33.0413 6.80803 32.0703 6.80803C31.0993 6.80803 30.3293 7.57813 30.3293 8.54912C30.3293 9.50335 31.0993 10.2902 32.0703 10.2902ZM36.038 22.0257C36.9922 22.0257 37.7623 21.2556 37.7623 20.3013C37.7623 19.3303 36.9922 18.5603 36.038 18.5603C35.067 18.5603 34.2969 19.3303 34.2969 20.3013C34.2969 21.2556 35.067 22.0257 36.038 22.0257ZM33.1753 34.3471C33.9119 34.3471 34.548 33.7444 34.548 33.0079C34.548 32.2544 33.9119 31.635 33.1753 31.635H31.1329V20.5357C31.1329 14.4252 26.4119 9.70425 20.3182 9.70425C14.2076 9.70425 9.52012 14.4252 9.52012 20.5357V31.635H7.44423C6.70762 31.635 6.12169 32.2544 6.12169 33.0079C6.12169 33.7444 6.70762 34.3471 7.44423 34.3471H33.1753ZM21.7243 20.586V31.635H18.9286V20.586C18.9286 19.8159 19.548 19.1797 20.3182 19.1797C21.0882 19.1797 21.7243 19.8159 21.7243 20.586Z" fill="#3CCB7F"/>
</svg>
