<svg width="40" height="40" viewBox="0 0 40 40" fill="none" xmlns="http://www.w3.org/2000/svg">
<g clip-path="url(#clip0_87_9123)">
<path d="M5.71985 19.933C5.71985 18.4096 5.95422 16.9364 6.38949 15.5804L3.76113 14.4754C3.19194 16.1998 2.85712 18.0246 2.85712 19.933C2.85712 21.8247 3.19194 23.6663 3.77788 25.3906L6.38949 24.2857C5.95422 22.9297 5.71985 21.4564 5.71985 19.933ZM13.4207 7.2433L12.3493 4.66518C9.03457 6.32255 6.30577 9.05135 4.64842 12.3661L7.26002 13.4542C8.5993 10.7924 10.7756 8.61608 13.4207 7.2433ZM19.9163 5.70313C21.4397 5.70313 22.913 5.9375 24.3024 6.38952L25.3738 3.77791C23.6495 3.19197 21.808 2.85715 19.9163 2.85715C18.0245 2.85715 16.1663 3.19197 14.4419 3.77791L15.5468 6.38952C16.9196 5.9375 18.3928 5.70313 19.9163 5.70313ZM32.606 13.4375L35.2008 12.3661C33.5268 9.05135 30.798 6.32255 27.4833 4.64845L26.4118 7.2433C29.0568 8.59933 31.25 10.7757 32.606 13.4375ZM34.163 19.933C34.163 21.4564 33.9285 22.9297 33.4933 24.3024L36.0881 25.4074C36.6741 23.683 37.0088 21.8247 37.0088 19.933C37.0088 18.0246 36.6741 16.183 36.0881 14.4587L33.4765 15.5636C33.9285 16.9364 34.163 18.4096 34.163 19.933ZM26.4118 32.606L27.4833 35.2176C30.8147 33.5436 33.5435 30.8147 35.1841 27.5L32.6227 26.4286C31.2667 29.0904 29.0737 31.25 26.4118 32.606ZM19.933 34.163C18.3928 34.163 16.9196 33.9286 15.5468 33.4766L14.4587 36.0881C16.183 36.6741 18.0413 37.0089 19.933 37.0089C21.8247 37.0089 23.6663 36.6741 25.3738 36.1049L24.2857 33.4933C22.913 33.9286 21.4564 34.163 19.933 34.163ZM7.26002 26.4286L4.66515 27.5C6.33926 30.8147 9.03457 33.5436 12.3493 35.2009L13.4207 32.5893C10.7756 31.2333 8.5993 29.0737 7.26002 26.4286ZM19.8995 31.6183C26.4118 31.6183 31.6015 26.4286 31.5848 19.933C31.5681 13.4375 26.3783 8.24778 19.8828 8.24778C13.3872 8.24778 8.231 13.4208 8.231 19.933C8.231 26.4453 13.404 31.6183 19.8995 31.6183Z" fill="#3CCB7F"/>
</g>
<defs>
<clipPath id="clip0_87_9123">
<rect width="34.1517" height="34.1686" fill="white" transform="translate(2.85712 2.85715)"/>
</clipPath>
</defs>
</svg>
