<svg width="39" height="30" viewBox="0 0 39 30" fill="none" xmlns="http://www.w3.org/2000/svg">
<g clip-path="url(#clip0_87_9128)">
<path d="M3.71355 18.2701H13.82C16.1861 18.2701 17.5649 16.9225 17.5649 14.5879V4.48134C17.5649 2.14666 16.1861 0.799126 13.82 0.799126H3.71355C1.3632 0.799126 0 2.13099 0 4.48134V14.5879C0 16.9382 1.3632 18.2701 3.71355 18.2701ZM24.0832 18.4737H34.3935C36.8378 18.4737 38.2324 17.0949 38.2324 14.7132V4.37165C38.2324 1.9743 36.8378 0.595428 34.3935 0.595428H24.0832C21.6545 0.595428 20.2599 1.9743 20.2599 4.37165V14.7132C20.2599 17.0949 21.6545 18.4737 24.0832 18.4737ZM24.1146 15.998C23.1902 15.998 22.7357 15.5436 22.7357 14.6035V4.46566C22.7357 3.52553 23.1902 3.07114 24.1146 3.07114H34.3621C35.318 3.07114 35.7567 3.52553 35.7567 4.46566V14.6035C35.7567 15.5436 35.318 15.998 34.3621 15.998H24.1146ZM1.19084 24.1303C0.548414 24.1303 0 24.6944 0 25.3994C0 26.1045 0.548414 26.653 1.19084 26.653H6.25193V24.1303H1.19084ZM8.97833 29.16C11.0466 29.16 12.7389 27.4678 12.7389 25.3994C12.7389 23.3155 11.0466 21.6232 8.97833 21.6232C6.91003 21.6232 5.21777 23.3155 5.21777 25.3994C5.21777 27.4678 6.91003 29.16 8.97833 29.16ZM8.97833 27.2327C7.94418 27.2327 7.14506 26.4179 7.14506 25.3838C7.14506 24.3496 7.94418 23.5505 8.97833 23.5505C9.99681 23.5505 10.8116 24.3496 10.8116 25.3838C10.8116 26.4179 9.99681 27.2327 8.97833 27.2327ZM11.4697 24.1303V26.653H36.9631C37.6683 26.653 38.2324 26.1045 38.2324 25.3994C38.2324 24.6944 37.6683 24.1303 36.9631 24.1303H11.4697Z" fill="#3CCB7F"/>
</g>
<defs>
<clipPath id="clip0_87_9128">
<rect width="38.2324" height="29.16" fill="white"/>
</clipPath>
</defs>
</svg>
