<svg width="40" height="33" viewBox="0 0 40 33" fill="none" xmlns="http://www.w3.org/2000/svg">
<path d="M4.05331 27.2534H35.3758C38.0727 27.2534 39.4291 25.9759 39.4291 23.2001V5.12579C39.4291 2.36575 38.0727 1.08826 35.3758 1.08826H4.05331C1.35636 1.08826 0 2.36575 0 5.12579V23.2001C0 25.9759 1.35636 27.2534 4.05331 27.2534ZM11.7814 32.6H27.6477C28.3416 32.6 28.9252 32.0322 28.9252 31.3224C28.9252 30.6127 28.3416 30.0449 27.6477 30.0449H11.7814C11.0874 30.0449 10.5039 30.6127 10.5039 31.3224C10.5039 32.0322 11.0874 32.6 11.7814 32.6ZM20.5346 20.7081C20.1877 20.7081 19.9668 20.5032 19.9196 20.1719C19.2257 15.4246 18.6105 14.368 13.6267 13.8633C13.2955 13.8159 13.0904 13.5793 13.0904 13.264C13.0904 12.9643 13.2955 12.7119 13.6267 12.6646C18.5947 12.0022 19.0206 11.1348 19.9196 6.34021C19.9984 6.02477 20.2192 5.81975 20.5346 5.81975C20.8344 5.81975 21.0708 6.04054 21.1182 6.35598C21.828 11.0559 22.4745 12.0022 27.4268 12.6646C27.7423 12.7119 27.963 12.9643 27.963 13.264C27.963 13.5793 27.7423 13.8159 27.4268 13.8633C22.4588 14.5257 22.0172 15.4246 21.1182 20.1877C21.0551 20.5032 20.8344 20.7081 20.5346 20.7081ZM14.1314 23.3736C13.879 23.3736 13.7529 23.2001 13.6741 22.9478C13.2008 20.6293 13.4059 20.5189 10.8509 20.1403C10.5828 20.0931 10.4408 19.9353 10.4408 19.683C10.4408 19.4621 10.5828 19.2729 10.8193 19.2414C13.4059 18.8156 13.2008 18.7051 13.6741 16.4025C13.7529 16.1502 13.8948 15.9767 14.1314 15.9767C14.368 15.9767 14.5257 16.1659 14.5887 16.4025C15.0304 18.7051 14.8727 18.8156 17.4592 19.2414C17.68 19.2729 17.8377 19.4621 17.8377 19.683C17.8377 19.9039 17.68 20.0931 17.4592 20.1403C14.8727 20.5189 15.0304 20.6293 14.5887 22.995C14.5257 23.2158 14.3522 23.3736 14.1314 23.3736Z" fill="#3CCB7F"/>
</svg>
