<svg width="12" height="24" viewBox="0 0 12 24" fill="none" xmlns="http://www.w3.org/2000/svg">
<mask id="mask0_60_5086" style="mask-type:luminance" maskUnits="userSpaceOnUse" x="0" y="0" width="12" height="24">
<path d="M0 0H11.9596V24H0V0Z" fill="white"/>
</mask>
<g mask="url(#mask0_60_5086)">
<mask id="mask1_60_5086" style="mask-type:luminance" maskUnits="userSpaceOnUse" x="0" y="0" width="12" height="24">
<path d="M11.8491 2.95605C11.8497 2.95605 11.851 2.95605 11.8523 2.95605C11.827 3.0981 11.7936 3.24709 11.7525 3.40302C11.7052 3.57979 11.6383 3.78181 11.553 3.99835C11.4205 4.33926 11.2481 4.71868 11.0511 5.09999C10.8472 5.49583 10.6212 5.89292 10.3895 6.25466C10.3138 6.37272 10.2374 6.48699 10.1622 6.59557C9.87753 6.99077 9.58396 7.26287 8.92614 7.56527L6.66982 7.81148C6.86616 7.41123 7.05682 7.03244 7.24179 6.67512C7.45328 6.26476 7.65846 5.88282 7.8548 5.52802C8.0827 5.11704 8.29798 4.74014 8.50189 4.3986C8.51452 4.37777 8.52652 4.35694 8.53977 4.3361C8.77715 3.9409 8.99558 3.59178 9.19634 3.2837C9.47538 3.26982 9.82323 3.23509 10.1869 3.19343C9.82323 3.23509 9.47538 3.26982 9.19508 3.2837C9.7298 2.463 10.1294 1.94848 10.3674 1.6606C9.94318 2.13661 9.52336 2.66375 9.10795 3.25593L9.10859 3.25719C8.88131 3.58105 8.65783 3.92007 8.43434 4.27171C8.42045 4.29254 8.4072 4.31401 8.39331 4.33484C8.16793 4.69279 7.94444 5.06464 7.72475 5.44658C7.51326 5.81527 7.3024 6.19406 7.0947 6.58042C6.90025 6.94343 6.7077 7.31401 6.51957 7.68901V7.68838C6.51263 7.70037 6.50758 7.713 6.50063 7.72499C6.38068 7.96363 6.26136 8.20163 6.14394 8.44406C6.07576 8.58421 6.00694 8.72562 5.94066 8.86577C5.75379 9.25593 5.57008 9.65176 5.39015 10.0482C5.20707 10.4504 5.02904 10.8538 4.85354 11.2572C4.68245 11.6537 4.51136 12.0501 4.34785 12.4466C4.18308 12.8418 4.0221 13.2364 3.86364 13.6278C3.69886 14.0369 3.53914 14.4415 3.38384 14.843C3.34912 14.9333 3.31439 15.0236 3.28283 15.1132C3.1572 15.4359 3.03725 15.7559 2.91919 16.071L2.02652 14.3134C2.12121 13.8525 2.23548 13.3891 2.36869 12.9245C2.42424 12.7263 2.48295 12.5287 2.54545 12.3311C2.62121 12.0987 2.70455 11.8582 2.79482 11.6088C2.93308 11.2294 3.08965 10.8298 3.26957 10.4106C3.42866 10.0413 3.60227 9.65618 3.79609 9.25782C3.82702 9.19658 3.85795 9.13282 3.88952 9.06906C4.04545 8.7534 4.2077 8.44027 4.37374 8.13029C4.56818 7.76287 4.76894 7.39987 4.97348 7.04317C5.17551 6.69153 5.38131 6.3462 5.58838 6.00845C5.60227 5.98446 5.61869 5.96047 5.63131 5.93774V5.93838C5.63952 5.92701 5.64646 5.91375 5.65341 5.90302C5.84975 5.5861 6.04798 5.27487 6.24432 4.97499C6.47601 4.62146 6.7077 4.27928 6.93371 3.95353C7.18056 3.59999 7.42298 3.26287 7.66035 2.94911C7.86869 2.67007 8.0745 2.40681 8.2702 2.16123C8.32197 2.09747 8.37247 2.03434 8.42424 1.9712L8.42298 1.97057C9.16667 1.06464 9.78914 0.44027 10.1641 0.218679C10.935 -0.236498 11.5915 0.827896 11.5915 0.827896C11.5915 0.827896 12.1092 1.49583 11.8491 2.95605ZM3.83396 16.1928L3.1149 16.2723C3.0928 16.3298 3.07008 16.3898 3.04798 16.451C2.93119 16.7742 2.8125 17.1019 2.69444 17.4377C2.69318 17.4441 2.69129 17.4478 2.68876 17.4529C2.67172 17.5002 2.65467 17.547 2.63889 17.5949C2.55934 17.8216 2.4899 18.0249 2.33081 18.4882C2.59343 18.6076 2.80303 18.9201 3.00126 19.2768C2.98043 18.9081 2.82765 18.5615 2.53725 18.2932C3.82828 18.3519 4.94003 18.0261 5.51389 17.0842C5.56566 17.0009 5.61237 16.9112 5.6553 16.8178C5.39268 17.1486 5.07008 17.2881 4.46086 17.2553C5.35795 16.8544 5.80808 16.4693 6.2077 15.8311C6.30303 15.6795 6.39331 15.5154 6.48801 15.3317C5.70202 16.1366 4.79167 16.367 3.83396 16.1928ZM2.42803 17.4011C2.43813 17.3765 2.44634 17.3513 2.45581 17.3254C2.57513 16.9958 2.69949 16.6568 2.82765 16.3121C2.85669 16.2345 2.88636 16.1555 2.91477 16.076C2.91477 16.0747 2.91604 16.0728 2.91604 16.0716L2.02462 14.3134C2.01894 14.3342 2.01515 14.355 2.01073 14.3759C1.89962 14.939 1.81818 15.5002 1.77967 16.0571C1.77841 16.0766 1.77652 16.0956 1.77525 16.1158C1.49621 15.6707 0.751263 15.2351 0.751894 15.2389C1.28535 16.011 1.69129 16.7793 1.75189 17.5324C1.46654 17.5912 1.07386 17.5053 0.621843 17.3405C1.09407 17.7736 1.44886 17.8929 1.58649 17.9245C1.15278 17.9497 0.701389 18.2477 0.246212 18.5893C0.910985 18.3184 1.44949 18.2111 1.83396 18.2982C1.22412 20.0242 0.611742 21.9289 0 23.9504C0.1875 23.8948 0.299874 23.7698 0.362374 23.5987C0.470959 23.2332 1.19634 20.8298 2.33081 17.6732C2.36237 17.5817 2.39457 17.4933 2.42803 17.4011ZM9.0221 7.55517C9.01641 7.55643 9.01263 7.55643 9.00758 7.55832C8.97348 7.56401 8.94066 7.56906 8.9072 7.57474C8.91288 7.57221 8.91793 7.56906 8.92424 7.56716L6.66793 7.81338C6.66477 7.82158 6.66098 7.83042 6.65657 7.838C6.63194 7.88976 6.6048 7.94279 6.58018 7.99519C6.50379 8.15428 6.4255 8.31527 6.34596 8.4813C6.2601 8.6587 6.17487 8.84305 6.08712 9.02928C6.04356 9.12398 6 9.21805 5.95518 9.31464C5.82323 9.60252 5.68813 9.90113 5.55114 10.2079C5.38194 10.5867 5.21212 10.9788 5.03851 11.386C4.87247 11.7749 4.70518 12.1764 4.53535 12.5943C4.37374 12.9895 4.21086 13.3973 4.04482 13.8172C3.89646 14.1928 3.74747 14.5773 3.59848 14.9737C3.59154 14.9939 3.5846 15.0129 3.57702 15.0305C3.42803 15.4239 3.27652 15.8273 3.12563 16.2408C3.12247 16.2509 3.11869 16.2603 3.11553 16.2686L3.83523 16.189C3.82134 16.1859 3.80745 16.1852 3.7923 16.1821C4.65088 16.0747 5.79356 15.4352 6.5303 14.6429C6.87058 14.2787 7.17803 13.8481 7.46465 13.3443C7.67614 12.9699 7.87689 12.5545 8.06629 12.0949C8.23232 11.6922 8.39141 11.2578 8.54672 10.7869C8.34848 10.8917 8.12311 10.9668 7.87311 11.0198C7.83081 11.0287 7.78914 11.0362 7.74495 11.0444C7.7399 11.0457 7.73485 11.0463 7.7298 11.0476C7.68813 11.0552 7.6452 11.0615 7.60038 11.0684C7.60038 11.0684 7.60164 11.0684 7.60164 11.0672C8.40341 10.7603 8.9072 10.1663 9.27588 9.43774C9.06503 9.58105 8.72222 9.76855 8.31124 9.85946C8.25505 9.87209 8.1976 9.88093 8.13889 9.88976C8.12626 9.89103 8.11301 9.89418 8.10038 9.89608C8.37753 9.78055 8.61174 9.64923 8.81439 9.49772C8.85859 9.46363 8.90088 9.4308 8.94192 9.39608C9.00442 9.34368 9.06313 9.2856 9.11869 9.22625C9.15467 9.18838 9.18939 9.14987 9.22285 9.10883C9.3024 9.01476 9.37816 8.91123 9.4476 8.80201C9.46843 8.76855 9.48927 8.7332 9.5101 8.69785C9.53725 8.64608 9.56187 8.5962 9.58649 8.54759C9.69823 8.32411 9.78914 8.12335 9.85985 7.94658C9.89583 7.85946 9.92677 7.77676 9.95328 7.70226C9.96402 7.67133 9.97412 7.64229 9.98422 7.61451C10.012 7.53055 10.036 7.45479 10.0537 7.38913C10.0814 7.29065 10.0966 7.21237 10.1061 7.15555C10.0795 7.17638 10.048 7.19848 10.0126 7.21931C9.77273 7.36325 9.35732 7.4933 9.0221 7.55517Z" fill="white"/>
</mask>
<g mask="url(#mask1_60_5086)">
<path d="M0 -0.236328V23.9505H12.1092V-0.236328H0Z" fill="url(#paint0_linear_60_5086)"/>
</g>
</g>
<defs>
<linearGradient id="paint0_linear_60_5086" x1="-9.45852e-07" y1="12.0282" x2="12.1093" y2="12.0282" gradientUnits="userSpaceOnUse">
<stop stop-color="#9C27B0"/>
<stop offset="0.00390625" stop-color="#9C27AF"/>
<stop offset="0.0078125" stop-color="#9D28AF"/>
<stop offset="0.0117188" stop-color="#9D28AE"/>
<stop offset="0.015625" stop-color="#9E29AD"/>
<stop offset="0.0195313" stop-color="#9E29AC"/>
<stop offset="0.0234375" stop-color="#9E2AAC"/>
<stop offset="0.0273438" stop-color="#9F2AAB"/>
<stop offset="0.03125" stop-color="#9F2BAA"/>
<stop offset="0.0351563" stop-color="#A02BAA"/>
<stop offset="0.0390625" stop-color="#A02BA9"/>
<stop offset="0.0429688" stop-color="#A02CA8"/>
<stop offset="0.046875" stop-color="#A12CA8"/>
<stop offset="0.0507813" stop-color="#A12DA7"/>
<stop offset="0.0546875" stop-color="#A22DA6"/>
<stop offset="0.0585938" stop-color="#A22EA5"/>
<stop offset="0.0625" stop-color="#A22EA5"/>
<stop offset="0.0664063" stop-color="#A32FA4"/>
<stop offset="0.0703125" stop-color="#A32FA3"/>
<stop offset="0.0742188" stop-color="#A430A3"/>
<stop offset="0.078125" stop-color="#A430A2"/>
<stop offset="0.0820312" stop-color="#A430A1"/>
<stop offset="0.0859375" stop-color="#A531A1"/>
<stop offset="0.0898438" stop-color="#A531A0"/>
<stop offset="0.09375" stop-color="#A5329F"/>
<stop offset="0.0976562" stop-color="#A6329E"/>
<stop offset="0.101563" stop-color="#A6339E"/>
<stop offset="0.105469" stop-color="#A7339D"/>
<stop offset="0.109375" stop-color="#A7349C"/>
<stop offset="0.113281" stop-color="#A7349C"/>
<stop offset="0.117188" stop-color="#A8349B"/>
<stop offset="0.121094" stop-color="#A8359A"/>
<stop offset="0.125" stop-color="#A9359A"/>
<stop offset="0.128906" stop-color="#A93699"/>
<stop offset="0.132813" stop-color="#A93698"/>
<stop offset="0.136719" stop-color="#AA3798"/>
<stop offset="0.140625" stop-color="#AA3797"/>
<stop offset="0.144531" stop-color="#AB3896"/>
<stop offset="0.148438" stop-color="#AB3895"/>
<stop offset="0.152344" stop-color="#AB3895"/>
<stop offset="0.15625" stop-color="#AC3994"/>
<stop offset="0.160156" stop-color="#AC3993"/>
<stop offset="0.164063" stop-color="#AD3A93"/>
<stop offset="0.167969" stop-color="#AD3A92"/>
<stop offset="0.171875" stop-color="#AD3B91"/>
<stop offset="0.175781" stop-color="#AE3B91"/>
<stop offset="0.179688" stop-color="#AE3C90"/>
<stop offset="0.183594" stop-color="#AF3C8F"/>
<stop offset="0.1875" stop-color="#AF3D8E"/>
<stop offset="0.191406" stop-color="#AF3D8E"/>
<stop offset="0.195313" stop-color="#B03D8D"/>
<stop offset="0.199219" stop-color="#B03E8C"/>
<stop offset="0.203125" stop-color="#B03E8C"/>
<stop offset="0.207031" stop-color="#B13F8B"/>
<stop offset="0.210938" stop-color="#B13F8A"/>
<stop offset="0.214844" stop-color="#B2408A"/>
<stop offset="0.21875" stop-color="#B24089"/>
<stop offset="0.222656" stop-color="#B24188"/>
<stop offset="0.226563" stop-color="#B34187"/>
<stop offset="0.230469" stop-color="#B34187"/>
<stop offset="0.234375" stop-color="#B44286"/>
<stop offset="0.238281" stop-color="#B44285"/>
<stop offset="0.242188" stop-color="#B44385"/>
<stop offset="0.246094" stop-color="#B54384"/>
<stop offset="0.25" stop-color="#B54483"/>
<stop offset="0.253906" stop-color="#B64483"/>
<stop offset="0.257812" stop-color="#B64582"/>
<stop offset="0.261719" stop-color="#B64581"/>
<stop offset="0.265625" stop-color="#B74580"/>
<stop offset="0.269531" stop-color="#B74680"/>
<stop offset="0.273438" stop-color="#B8467F"/>
<stop offset="0.277344" stop-color="#B8477E"/>
<stop offset="0.28125" stop-color="#B8477E"/>
<stop offset="0.285156" stop-color="#B9487D"/>
<stop offset="0.289063" stop-color="#B9487C"/>
<stop offset="0.292969" stop-color="#B9497C"/>
<stop offset="0.296875" stop-color="#BA497B"/>
<stop offset="0.300781" stop-color="#BA4A7A"/>
<stop offset="0.304688" stop-color="#BB4A7A"/>
<stop offset="0.308594" stop-color="#BB4A79"/>
<stop offset="0.3125" stop-color="#BB4B78"/>
<stop offset="0.316406" stop-color="#BC4B77"/>
<stop offset="0.320312" stop-color="#BC4C77"/>
<stop offset="0.324219" stop-color="#BD4C76"/>
<stop offset="0.328125" stop-color="#BD4D75"/>
<stop offset="0.332031" stop-color="#BD4D75"/>
<stop offset="0.335938" stop-color="#BE4E74"/>
<stop offset="0.339844" stop-color="#BE4E73"/>
<stop offset="0.34375" stop-color="#BF4E73"/>
<stop offset="0.347656" stop-color="#BF4F72"/>
<stop offset="0.351562" stop-color="#BF4F71"/>
<stop offset="0.355469" stop-color="#C05070"/>
<stop offset="0.359375" stop-color="#C05070"/>
<stop offset="0.363281" stop-color="#C1516F"/>
<stop offset="0.367188" stop-color="#C1516E"/>
<stop offset="0.371094" stop-color="#C1526E"/>
<stop offset="0.375" stop-color="#C2526D"/>
<stop offset="0.378906" stop-color="#C2526C"/>
<stop offset="0.382813" stop-color="#C3536C"/>
<stop offset="0.386719" stop-color="#C3536B"/>
<stop offset="0.390625" stop-color="#C3546A"/>
<stop offset="0.394531" stop-color="#C45469"/>
<stop offset="0.398438" stop-color="#C45569"/>
<stop offset="0.402344" stop-color="#C45568"/>
<stop offset="0.40625" stop-color="#C55667"/>
<stop offset="0.410156" stop-color="#C55667"/>
<stop offset="0.414062" stop-color="#C65766"/>
<stop offset="0.417969" stop-color="#C65765"/>
<stop offset="0.421875" stop-color="#C65765"/>
<stop offset="0.425781" stop-color="#C75864"/>
<stop offset="0.429688" stop-color="#C75863"/>
<stop offset="0.433594" stop-color="#C85962"/>
<stop offset="0.4375" stop-color="#C85962"/>
<stop offset="0.441406" stop-color="#C85A61"/>
<stop offset="0.445313" stop-color="#C95A60"/>
<stop offset="0.449219" stop-color="#C95B60"/>
<stop offset="0.453125" stop-color="#CA5B5F"/>
<stop offset="0.457031" stop-color="#CA5B5E"/>
<stop offset="0.460938" stop-color="#CA5C5E"/>
<stop offset="0.464844" stop-color="#CB5C5D"/>
<stop offset="0.46875" stop-color="#CB5D5C"/>
<stop offset="0.472656" stop-color="#CC5D5B"/>
<stop offset="0.476563" stop-color="#CC5E5B"/>
<stop offset="0.480469" stop-color="#CC5E5A"/>
<stop offset="0.484375" stop-color="#CD5F59"/>
<stop offset="0.488281" stop-color="#CD5F59"/>
<stop offset="0.492188" stop-color="#CE5F58"/>
<stop offset="0.496094" stop-color="#CE6057"/>
<stop offset="0.5" stop-color="#CE6057"/>
<stop offset="0.503906" stop-color="#CF6156"/>
<stop offset="0.507813" stop-color="#CF6155"/>
<stop offset="0.511719" stop-color="#CF6255"/>
<stop offset="0.515625" stop-color="#D06254"/>
<stop offset="0.519531" stop-color="#D06353"/>
<stop offset="0.523438" stop-color="#D16352"/>
<stop offset="0.527344" stop-color="#D16452"/>
<stop offset="0.53125" stop-color="#D16451"/>
<stop offset="0.535156" stop-color="#D26450"/>
<stop offset="0.539062" stop-color="#D26550"/>
<stop offset="0.542969" stop-color="#D3654F"/>
<stop offset="0.546875" stop-color="#D3664E"/>
<stop offset="0.550781" stop-color="#D3664E"/>
<stop offset="0.554688" stop-color="#D4674D"/>
<stop offset="0.558594" stop-color="#D4674C"/>
<stop offset="0.5625" stop-color="#D5684B"/>
<stop offset="0.566406" stop-color="#D5684B"/>
<stop offset="0.570313" stop-color="#D5684A"/>
<stop offset="0.574219" stop-color="#D66949"/>
<stop offset="0.578125" stop-color="#D66949"/>
<stop offset="0.582031" stop-color="#D76A48"/>
<stop offset="0.585938" stop-color="#D76A47"/>
<stop offset="0.589844" stop-color="#D76B47"/>
<stop offset="0.59375" stop-color="#D86B46"/>
<stop offset="0.597656" stop-color="#D86C45"/>
<stop offset="0.601563" stop-color="#D96C44"/>
<stop offset="0.605469" stop-color="#D96C44"/>
<stop offset="0.609375" stop-color="#D96D43"/>
<stop offset="0.613281" stop-color="#DA6D42"/>
<stop offset="0.617188" stop-color="#DA6E42"/>
<stop offset="0.621094" stop-color="#DA6E41"/>
<stop offset="0.625" stop-color="#DB6F40"/>
<stop offset="0.628906" stop-color="#DB6F40"/>
<stop offset="0.632812" stop-color="#DC703F"/>
<stop offset="0.636719" stop-color="#DC703E"/>
<stop offset="0.640625" stop-color="#DC713D"/>
<stop offset="0.644531" stop-color="#DD713D"/>
<stop offset="0.648438" stop-color="#DD713C"/>
<stop offset="0.652344" stop-color="#DE723B"/>
<stop offset="0.65625" stop-color="#DE723B"/>
<stop offset="0.660156" stop-color="#DE733A"/>
<stop offset="0.664063" stop-color="#DF7339"/>
<stop offset="0.667969" stop-color="#DF7439"/>
<stop offset="0.671875" stop-color="#E07438"/>
<stop offset="0.675781" stop-color="#E07537"/>
<stop offset="0.679688" stop-color="#E07536"/>
<stop offset="0.683594" stop-color="#E17536"/>
<stop offset="0.6875" stop-color="#E17635"/>
<stop offset="0.691406" stop-color="#E27634"/>
<stop offset="0.695313" stop-color="#E27734"/>
<stop offset="0.699219" stop-color="#E27733"/>
<stop offset="0.703125" stop-color="#E37832"/>
<stop offset="0.707031" stop-color="#E37832"/>
<stop offset="0.710938" stop-color="#E37931"/>
<stop offset="0.714844" stop-color="#E47930"/>
<stop offset="0.71875" stop-color="#E47930"/>
<stop offset="0.722656" stop-color="#E57A2F"/>
<stop offset="0.726562" stop-color="#E57A2E"/>
<stop offset="0.730469" stop-color="#E57B2D"/>
<stop offset="0.734375" stop-color="#E67B2D"/>
<stop offset="0.738281" stop-color="#E67C2C"/>
<stop offset="0.742188" stop-color="#E77C2B"/>
<stop offset="0.746094" stop-color="#E77D2B"/>
<stop offset="0.75" stop-color="#E77D2A"/>
<stop offset="0.753906" stop-color="#E87E29"/>
<stop offset="0.757813" stop-color="#E87E29"/>
<stop offset="0.761719" stop-color="#E97E28"/>
<stop offset="0.765625" stop-color="#E97F27"/>
<stop offset="0.769531" stop-color="#E97F26"/>
<stop offset="0.773438" stop-color="#EA8026"/>
<stop offset="0.777344" stop-color="#EA8025"/>
<stop offset="0.78125" stop-color="#EB8124"/>
<stop offset="0.785156" stop-color="#EB8124"/>
<stop offset="0.789063" stop-color="#EB8223"/>
<stop offset="0.792969" stop-color="#EC8222"/>
<stop offset="0.796875" stop-color="#EC8222"/>
<stop offset="0.800781" stop-color="#ED8321"/>
<stop offset="0.804688" stop-color="#ED8320"/>
<stop offset="0.808594" stop-color="#ED841F"/>
<stop offset="0.8125" stop-color="#EE841F"/>
<stop offset="0.816406" stop-color="#EE851E"/>
<stop offset="0.820313" stop-color="#EE851D"/>
<stop offset="0.824219" stop-color="#EF861D"/>
<stop offset="0.828125" stop-color="#EF861C"/>
<stop offset="0.832031" stop-color="#F0861B"/>
<stop offset="0.835938" stop-color="#F0871B"/>
<stop offset="0.839844" stop-color="#F0871A"/>
<stop offset="0.84375" stop-color="#F18819"/>
<stop offset="0.847656" stop-color="#F18818"/>
<stop offset="0.851563" stop-color="#F28918"/>
<stop offset="0.855469" stop-color="#F28917"/>
<stop offset="0.859375" stop-color="#F28A16"/>
<stop offset="0.863281" stop-color="#F38A16"/>
<stop offset="0.867188" stop-color="#F38B15"/>
<stop offset="0.871094" stop-color="#F48B14"/>
<stop offset="0.875" stop-color="#F48B14"/>
<stop offset="0.878906" stop-color="#F48C13"/>
<stop offset="0.882813" stop-color="#F58C12"/>
<stop offset="0.886719" stop-color="#F58D11"/>
<stop offset="0.890625" stop-color="#F68D11"/>
<stop offset="0.894531" stop-color="#F68E10"/>
<stop offset="0.898438" stop-color="#F68E0F"/>
<stop offset="0.902344" stop-color="#F78F0F"/>
<stop offset="0.90625" stop-color="#F78F0E"/>
<stop offset="0.910156" stop-color="#F88F0D"/>
<stop offset="0.914063" stop-color="#F8900D"/>
<stop offset="0.917969" stop-color="#F8900C"/>
<stop offset="0.921875" stop-color="#F9910B"/>
<stop offset="0.925781" stop-color="#F9910B"/>
<stop offset="0.929688" stop-color="#F9920A"/>
<stop offset="0.933594" stop-color="#FA9209"/>
<stop offset="0.9375" stop-color="#FA9308"/>
<stop offset="0.941406" stop-color="#FB9308"/>
<stop offset="0.945313" stop-color="#FB9307"/>
<stop offset="0.949219" stop-color="#FB9406"/>
<stop offset="0.953125" stop-color="#FC9406"/>
<stop offset="0.957031" stop-color="#FC9505"/>
<stop offset="0.960938" stop-color="#FD9504"/>
<stop offset="0.964844" stop-color="#FD9604"/>
<stop offset="0.96875" stop-color="#FD9603"/>
<stop offset="0.972656" stop-color="#FE9702"/>
<stop offset="0.976563" stop-color="#FE9701"/>
<stop offset="0.980469" stop-color="#FF9801"/>
<stop offset="0.984375" stop-color="#FF9800"/>
<stop offset="1" stop-color="#FF9800"/>
</linearGradient>
</defs>
</svg>
