<svg width="19" height="24" viewBox="0 0 19 24" fill="none" xmlns="http://www.w3.org/2000/svg">
<mask id="mask0_60_5084" style="mask-type:luminance" maskUnits="userSpaceOnUse" x="0" y="6" width="19" height="18">
<path d="M0 6.96582H18.9709V24.0001H0V6.96582Z" fill="white"/>
</mask>
<g mask="url(#mask0_60_5084)">
<path fill-rule="evenodd" clip-rule="evenodd" d="M4.20779 7.26665C2.42135 7.85791 1.0202 9.32369 0.461266 11.1912C0.0233688 12.6564 -0.253565 15.0924 0.939721 18.3567C0.951128 18.3909 2.1273 21.6146 5.00944 23.3554C6.42769 24.2179 8.20273 24.1773 9.52846 23.2635L9.58043 23.2293C9.63239 23.1887 9.68436 23.1545 9.73062 23.1203C9.8054 23.0569 9.89158 23.0284 9.9784 23.0284C10.0646 23.0284 10.1457 23.0569 10.2205 23.1089C10.2896 23.1659 10.3586 23.2179 10.4163 23.2521L10.4277 23.2578C11.7534 24.1773 13.5291 24.2116 14.9474 23.3497C17.5298 21.787 18.7344 19.0576 18.9708 18.4657C18.9189 18.4657 18.8669 18.4657 18.8149 18.4657H18.8035C17.4315 18.4657 16.1349 17.9314 15.166 16.9657C14.192 15.9948 13.6501 14.7077 13.6501 13.3345C13.6444 10.9149 15.3447 8.8465 17.6451 8.31798C17.0919 7.8465 16.4518 7.48465 15.7598 7.25461C12.6989 6.24383 10.5088 8.38136 10.2724 8.6285L10.261 8.63991C10.1108 8.78883 9.86306 8.78883 9.71287 8.63991L9.70147 8.6285C9.45368 8.39276 7.26927 6.25524 4.20779 7.26665Z" fill="black"/>
</g>
<path fill-rule="evenodd" clip-rule="evenodd" d="M11.1891 1.16408C10.3647 1.98601 9.96733 3.20401 10.0421 4.61719C11.4661 4.69197 12.6879 4.29019 13.5123 3.46256C14.3368 2.64063 14.7398 1.42263 14.6594 0.00881387C13.2354 -0.0659646 12.0136 0.336445 11.1891 1.16408Z" fill="black"/>
</svg>
