<svg width="16" height="24" viewBox="0 0 16 24" fill="none" xmlns="http://www.w3.org/2000/svg">
<mask id="mask0_60_5077" style="mask-type:luminance" maskUnits="userSpaceOnUse" x="7" y="7" width="9" height="10">
<path d="M7.9209 7.91211H15.9908V16.0879H7.9209V7.91211Z" fill="white"/>
</mask>
<g mask="url(#mask0_60_5077)">
<path d="M7.99561 12.0002C7.99561 10.9394 8.41704 9.92183 9.16661 9.17163C9.91618 8.42144 10.9331 8 11.9933 8C13.0535 8 14.0704 8.42144 14.82 9.17163C15.5702 9.92183 15.991 10.9394 15.991 12.0002C15.991 13.061 15.5702 14.0786 14.82 14.8288C14.0704 15.579 13.0535 16.0004 11.9933 16.0004C10.9331 16.0004 9.91618 15.579 9.16661 14.8288C8.41704 14.0786 7.99561 13.061 7.99561 12.0002Z" fill="#1ABCFE"/>
</g>
<mask id="mask1_60_5077" style="mask-type:luminance" maskUnits="userSpaceOnUse" x="0" y="15" width="9" height="9">
<path d="M0 15.9277H8.08119V24.0002H0V15.9277Z" fill="white"/>
</mask>
<g mask="url(#mask1_60_5077)">
<path d="M0 20.0001C0 18.9393 0.421437 17.9223 1.17101 17.1721C1.92057 16.4219 2.93753 16.0005 3.9977 16.0005H7.9954V20.0001C7.9954 21.0615 7.57459 22.0784 6.8244 22.8286C6.07483 23.5788 5.05787 24.0003 3.9977 24.0003C2.93753 24.0003 1.92057 23.5788 1.17101 22.8286C0.421437 22.0784 0 21.0615 0 20.0001Z" fill="#0ACF83"/>
</g>
<mask id="mask2_60_5077" style="mask-type:luminance" maskUnits="userSpaceOnUse" x="7" y="0" width="9" height="9">
<path d="M7.9209 0H15.9908V8.07243H7.9209V0Z" fill="white"/>
</mask>
<g mask="url(#mask2_60_5077)">
<path d="M7.99561 0V7.99979H11.9933C13.0535 7.99979 14.0704 7.57835 14.82 6.82815C15.5702 6.07796 15.991 5.061 15.991 3.99958C15.991 2.93879 15.5702 1.92183 14.82 1.17163C14.0704 0.421437 13.0535 0 11.9933 0H7.99561Z" fill="#FF7262"/>
</g>
<mask id="mask3_60_5077" style="mask-type:luminance" maskUnits="userSpaceOnUse" x="0" y="0" width="9" height="9">
<path d="M0 0H8.08119V8.07243H0V0Z" fill="white"/>
</mask>
<g mask="url(#mask3_60_5077)">
<path d="M0 3.99958C0 5.061 0.421437 6.07796 1.17101 6.82815C1.92057 7.57835 2.93753 7.99979 3.9977 7.99979H7.9954V0H3.9977C2.93753 0 1.92057 0.421437 1.17101 1.17163C0.421437 1.92183 0 2.93879 0 3.99958Z" fill="#F24E1E"/>
</g>
<mask id="mask4_60_5077" style="mask-type:luminance" maskUnits="userSpaceOnUse" x="0" y="7" width="9" height="10">
<path d="M0 7.91211H8.08119V16.0879H0V7.91211Z" fill="white"/>
</mask>
<g mask="url(#mask4_60_5077)">
<path d="M0 12.0002C0 13.061 0.421437 14.0786 1.17101 14.8288C1.92057 15.579 2.93753 16.0004 3.9977 16.0004H7.9954V8H3.9977C2.93753 8 1.92057 8.42144 1.17101 9.17163C0.421437 9.92183 0 10.9394 0 12.0002Z" fill="#A259FF"/>
</g>
</svg>
