<svg width="22" height="24" viewBox="0 0 22 24" fill="none" xmlns="http://www.w3.org/2000/svg">
<mask id="mask0_60_5073" style="mask-type:luminance" maskUnits="userSpaceOnUse" x="0" y="0" width="22" height="24">
<path d="M0 0H21.28V24H0V0Z" fill="white"/>
</mask>
<g mask="url(#mask0_60_5073)">
<path d="M1.96826 21.5625L0.0463867 0H21.187L19.2651 21.5625L10.5933 24" fill="#E34F26"/>
</g>
<path d="M10.6401 22.125L17.6245 20.2031L19.2651 1.73438H10.6401" fill="#EF652A"/>
<path d="M10.6401 9.75H7.12451L6.89014 7.03125H10.6401V4.40625H3.98389L4.03076 5.10937L4.68701 12.4219H10.6401V9.75ZM10.6401 16.6406H10.5933L7.64014 15.8437L7.45264 13.7344H4.82764L5.15576 17.9062L10.5933 19.4062H10.6401V16.6406Z" fill="#EBEBEB"/>
<path d="M10.5933 9.75V12.4219H13.8745L13.5464 15.8437L10.5933 16.6406V19.4062L16.0308 17.9062L16.0776 17.4375L16.687 10.4531L16.7808 9.75H10.5933ZM10.5933 4.40625V7.03125H17.0151L17.062 6.46875L17.2026 5.10937L17.2495 4.40625H10.5933Z" fill="black"/>
</svg>
