<svg width="30" height="24" viewBox="0 0 30 24" fill="none" xmlns="http://www.w3.org/2000/svg">
<path d="M1.59188 18.1014C0.843128 18.0905 0.357216 18.3354 0.130249 18.8346C-0.204352 19.5693 0.0943709 20.1254 1.15823 20.7455C1.75646 21.0941 2.02164 21.3944 2.02164 21.7228C2.02164 22.4013 1.19879 22.6423 0.350976 22.2126C0.178606 22.1252 0.0311945 22.0535 0.021835 22.0535C-0.0078034 22.2461 0.00545594 22.7071 0.00545594 22.7071C0.00545594 22.7071 0.264401 22.8147 0.655159 22.8927C1.62542 23.0853 2.50677 22.6314 2.58945 21.8959C2.66666 21.2111 2.41474 20.8476 1.46865 20.2791C0.834548 19.8984 0.555324 19.6223 0.591202 19.2955C0.689477 18.3947 1.80403 18.521 2.41786 18.8611L2.4202 18.2551C2.4202 18.2551 2.07858 18.1084 1.59188 18.1014ZM5.32007 18.1045C5.27483 18.1053 5.22882 18.1061 5.1828 18.1092C4.26323 18.1591 3.64317 18.5639 3.27737 19.3525C2.96773 20.0669 3.00204 21.0013 3.28283 21.7165C3.60729 22.4177 4.13532 22.7882 5.01199 22.9301C5.19684 22.9605 5.32319 23.0643 5.68119 23.4831L6.12342 24.0002H6.92756L6.39251 23.4628C6.09769 23.168 5.85746 22.9098 5.85746 22.8896C5.85746 22.8693 5.96977 22.8186 6.10782 22.778C6.55942 22.6423 6.93146 22.2952 7.19508 21.7625C7.40645 21.3367 7.43843 21.2056 7.46651 20.6729C7.54996 19.0849 6.71307 18.0921 5.32007 18.1045ZM13.5431 18.11C12.7952 18.0999 12.3085 18.344 12.0815 18.8432C11.7469 19.5787 12.0464 20.134 13.1103 20.7548C13.7077 21.1027 13.9721 21.4022 13.9721 21.7306C13.9721 22.4091 13.1508 22.6509 12.303 22.2219C12.1306 22.1346 11.9817 22.0628 11.9723 22.0628C11.9427 22.2547 11.9567 22.7156 11.9567 22.7156C11.9567 22.7156 12.2157 22.8225 12.6064 22.9005C13.5759 23.0931 14.4572 22.6392 14.5399 21.9029C14.6171 21.2189 14.366 20.8547 13.4191 20.2869C12.7858 19.9062 12.5058 19.6317 12.5417 19.3041C12.6399 18.4033 13.7545 18.5304 14.3683 18.8697L14.3707 18.2637C14.3707 18.2637 14.0298 18.117 13.5431 18.11ZM8.1981 18.1599V22.8319H10.6682V22.2789H8.78229V18.1599H8.1981ZM5.27717 18.6006C6.25368 18.6006 6.81056 19.1973 6.88076 20.3204C6.93926 21.2517 6.62572 21.9552 6.02437 22.2461C5.63517 22.4341 5.06658 22.4731 4.69533 22.3366C4.31393 22.197 3.94345 21.8008 3.77342 21.3515C3.58857 20.8609 3.61509 19.9546 3.82724 19.5475C4.16574 18.8962 4.61733 18.6006 5.27717 18.6006ZM25.0561 19.418C24.9414 19.4195 24.8213 19.4336 24.6981 19.4601C23.9189 19.6637 23.479 20.4078 23.5086 21.1744C23.5086 21.8179 23.6334 22.1361 23.9438 22.4715C24.5779 22.9933 25.1543 23.0331 25.9327 22.7554C26.0677 22.6985 26.2096 22.6337 26.2096 22.6337L26.2088 22.1135L25.9327 22.2578C25.3049 22.53 24.8314 22.5308 24.4524 22.2087C24.209 21.9606 24.1053 21.6705 24.053 21.3328H26.4038V20.8851C26.4038 19.978 25.8547 19.4055 25.0561 19.418ZM16.4711 19.4258C16.3572 19.4273 16.2379 19.4414 16.1146 19.4679C15.3355 19.6715 14.894 20.4148 14.9237 21.1815C14.9244 21.8249 15.05 22.1439 15.3604 22.4793C15.9945 23.0011 16.5701 23.0409 17.3485 22.7632C17.4827 22.7055 17.6254 22.6408 17.6254 22.6408V22.1213L17.3485 22.2656C16.7207 22.5378 16.2465 22.5386 15.8674 22.2165C15.6241 21.9684 15.5203 21.6775 15.4688 21.3398H17.8204V20.8929C17.8204 19.985 17.2705 19.4133 16.4711 19.4258ZM28.4816 19.45C28.1431 19.45 27.885 19.5857 27.7134 19.8532L27.5769 20.0669L27.5761 19.7916L27.5745 19.5155H26.9896V22.8256H27.5745V21.768C27.5745 20.8016 27.587 20.687 27.7212 20.4218C27.9052 20.0576 28.2274 19.8774 28.537 19.9663L28.7445 20.0264V19.45H28.4816ZM19.8974 19.4578C19.5589 19.4578 19.3015 19.5935 19.13 19.861L18.9919 20.0747L18.9911 19.7986L18.9903 19.5233H18.4054V22.8319H18.9903V21.775C18.9903 20.8079 19.002 20.6932 19.1362 20.4288C19.3203 20.0638 19.6432 19.8844 19.9528 19.9733L20.1611 20.0326V19.4578H19.8974ZM20.3521 19.517C20.7437 20.6191 21.1672 21.743 21.5954 22.8311C21.781 22.8326 21.9667 22.8319 22.1523 22.8319L22.8074 21.1932L23.4727 19.5178H22.8956C22.8956 19.5178 22.6413 20.1823 22.3753 20.9272L21.8926 22.1837L21.4277 20.9178L20.9558 19.517H20.3521ZM25.0217 19.9187C25.1964 19.9195 25.3688 19.9749 25.5147 20.0872C25.8103 20.3134 25.8602 20.8718 25.8602 20.8718H24.1045C24.1045 20.8718 24.1926 20.304 24.514 20.0802C24.6692 19.9725 24.847 19.9179 25.0217 19.9187ZM16.4368 19.9265C16.6115 19.9273 16.7839 19.9827 16.9297 20.0942C17.2253 20.3212 17.2752 20.8781 17.2752 20.8781H15.5211C15.5211 20.8781 15.6092 20.3118 15.9306 20.088C16.085 19.9796 16.2621 19.9257 16.4368 19.9265Z" fill="black"/>
<path d="M10.2207 16.4665C10.2207 16.4415 10.2137 16.4244 10.2004 16.4135C10.1848 16.401 10.1583 16.3947 10.1224 16.3947H10.0694V16.539H10.1333C10.1911 16.539 10.2207 16.5149 10.2207 16.4665ZM10.3018 16.7668H10.2301L10.184 16.6654C10.1606 16.6147 10.1357 16.589 10.1084 16.589H10.0694V16.7668H10.0101V16.3441H10.1294C10.1825 16.3441 10.2223 16.3557 10.2496 16.3799C10.2722 16.4002 10.2839 16.4267 10.2839 16.4595C10.2839 16.4883 10.2745 16.5125 10.2558 16.5328C10.2371 16.5539 10.2106 16.5671 10.1762 16.5741V16.5765C10.2004 16.5812 10.2238 16.6077 10.2472 16.6537L10.3018 16.7668ZM10.4344 16.5601C10.4344 16.4759 10.4056 16.4064 10.3486 16.3511C10.2917 16.2949 10.223 16.2668 10.1411 16.2668C10.0561 16.2668 9.98672 16.2949 9.93056 16.3519C9.8744 16.408 9.8471 16.4774 9.8471 16.5601C9.8471 16.6436 9.87596 16.7145 9.93368 16.7707C9.98984 16.8261 10.0593 16.8541 10.1411 16.8541C10.2223 16.8541 10.2917 16.8261 10.3486 16.7699C10.4056 16.713 10.4344 16.6436 10.4344 16.5601ZM10.4742 16.5578C10.4742 16.6514 10.4414 16.7293 10.3775 16.7925C10.3127 16.8557 10.234 16.8877 10.1396 16.8877C10.0444 16.8877 9.96488 16.8565 9.90248 16.7949C9.8393 16.7332 9.80811 16.6553 9.80811 16.5609C9.80811 16.4681 9.84008 16.3901 9.90326 16.3261C9.96722 16.2629 10.0468 16.231 10.1419 16.231C10.2355 16.231 10.3135 16.2614 10.3767 16.3222C10.4414 16.3838 10.4742 16.4634 10.4742 16.5578Z" fill="#231F1F"/>
<path d="M1.86263 17.6583H1.6692V16.5492C1.6692 16.4618 1.67466 16.355 1.6848 16.2294H1.68012C1.66218 16.3027 1.64502 16.3558 1.63098 16.3893L1.06707 17.6583H0.971919L0.406451 16.3987C0.390072 16.3628 0.373693 16.3066 0.356534 16.2294H0.352634C0.358094 16.2949 0.361994 16.4026 0.361994 16.5515V17.6583H0.174805V16.0063H0.43063L0.938381 17.1583C0.976599 17.2449 1.00234 17.3112 1.01404 17.3564H1.02184C1.05459 17.266 1.08111 17.1981 1.10139 17.1537L1.61928 16.0063H1.86263" fill="#231F1F"/>
<path d="M2.46068 16.4788V17.6581H2.27115V16.4788H2.46068ZM2.49265 16.056C2.49265 16.0911 2.48018 16.12 2.456 16.1434C2.43182 16.1676 2.40218 16.1793 2.36786 16.1793C2.33432 16.1793 2.30547 16.1676 2.28051 16.145C2.25633 16.1223 2.24463 16.0927 2.24463 16.056C2.24463 16.0217 2.25633 15.9929 2.28051 15.9695C2.30547 15.9453 2.33432 15.9336 2.36786 15.9336C2.40218 15.9336 2.43182 15.9453 2.456 15.9695C2.48018 15.9929 2.49265 16.0217 2.49265 16.056Z" fill="#231F1F"/>
<path d="M3.63945 17.6045C3.54897 17.6591 3.44056 17.6872 3.31577 17.6872C3.14652 17.6872 3.01002 17.631 2.90551 17.5187C2.80411 17.4095 2.75342 17.2691 2.75342 17.0976C2.75342 16.9041 2.80957 16.7481 2.92033 16.6288C3.03108 16.5103 3.18083 16.4502 3.3688 16.4502C3.47176 16.4502 3.56301 16.4705 3.64179 16.5103V16.7037C3.55443 16.6421 3.46084 16.6116 3.36022 16.6116C3.24011 16.6116 3.14262 16.653 3.06618 16.7372C2.9874 16.823 2.94763 16.9377 2.94763 17.0804C2.94763 17.2177 2.9835 17.3261 3.05682 17.4064C3.12936 17.486 3.22685 17.5258 3.3493 17.5258C3.45226 17.5258 3.54897 17.4922 3.63945 17.4244" fill="#231F1F"/>
<path d="M4.54146 16.6702C4.5087 16.6444 4.46034 16.6319 4.39717 16.6319C4.32073 16.6319 4.25599 16.667 4.20374 16.7357C4.14446 16.8129 4.11482 16.9205 4.11482 17.057V17.6584H3.92529V16.4791H4.11482V16.7216H4.1195C4.1468 16.6358 4.1897 16.5695 4.24741 16.5227C4.30123 16.4798 4.36207 16.458 4.42836 16.458C4.47828 16.458 4.5165 16.4635 4.54146 16.4744" fill="#231F1F"/>
<path d="M5.59595 17.071C5.59595 16.9197 5.56163 16.8043 5.49377 16.7255C5.42748 16.6499 5.33466 16.6109 5.21533 16.6109C5.09756 16.6109 5.00318 16.6499 4.93299 16.7263C4.85811 16.809 4.82067 16.9252 4.82067 17.0757C4.82067 17.2169 4.85655 17.3276 4.92831 17.4064C5.00006 17.486 5.09522 17.5258 5.21533 17.5258C5.34012 17.5258 5.4345 17.486 5.50001 17.4049C5.56397 17.3269 5.59595 17.2153 5.59595 17.071ZM5.79016 17.064C5.79016 17.252 5.73712 17.4033 5.63105 17.5164C5.52497 17.6303 5.38146 17.6872 5.20207 17.6872C5.02346 17.6872 4.88307 17.6303 4.77934 17.5164C4.67716 17.4072 4.62646 17.2621 4.62646 17.0827C4.62646 16.8776 4.68496 16.7193 4.80039 16.607C4.90725 16.5025 5.04998 16.4502 5.22937 16.4502C5.40564 16.4502 5.54291 16.5048 5.64197 16.614C5.74024 16.7224 5.79016 16.8729 5.79016 17.064Z" fill="#231F1F"/>
<path d="M6.72858 17.3425C6.72858 17.4392 6.69192 17.5195 6.61939 17.5835C6.54061 17.6529 6.4322 17.6872 6.2957 17.6872C6.18339 17.6872 6.0859 17.663 6.00244 17.6154V17.4127C6.09448 17.4883 6.19743 17.5258 6.30974 17.5258C6.4595 17.5258 6.53437 17.4712 6.53437 17.3612C6.53437 17.3152 6.51799 17.2769 6.48445 17.2473C6.4517 17.2169 6.38774 17.181 6.29102 17.1389C6.19197 17.096 6.12177 17.0515 6.07966 17.0055C6.02974 16.9509 6.00478 16.88 6.00478 16.7918C6.00478 16.6935 6.04378 16.6124 6.12177 16.5477C6.19899 16.4822 6.29882 16.4502 6.42128 16.4502C6.51487 16.4502 6.59911 16.4689 6.67398 16.5056V16.6951C6.59677 16.6397 6.50707 16.6109 6.40646 16.6109C6.34328 16.6109 6.29336 16.6265 6.25515 16.6577C6.21771 16.6881 6.19899 16.7279 6.19899 16.7762C6.19899 16.8285 6.21459 16.869 6.24579 16.8979C6.27465 16.9252 6.33392 16.9579 6.42362 16.9962C6.52423 17.0383 6.59755 17.0812 6.642 17.1264C6.69972 17.1834 6.72858 17.2551 6.72858 17.3425Z" fill="#231F1F"/>
<path d="M7.88452 17.071C7.88452 16.9197 7.85021 16.8043 7.78235 16.7255C7.71605 16.6499 7.62324 16.6109 7.50391 16.6109C7.38613 16.6109 7.29176 16.6499 7.22078 16.7263C7.14669 16.809 7.10925 16.9252 7.10925 17.0757C7.10925 17.2169 7.14513 17.3276 7.21688 17.4064C7.28864 17.486 7.38379 17.5258 7.50391 17.5258C7.6287 17.5258 7.72307 17.486 7.78859 17.4049C7.85255 17.3269 7.88452 17.2153 7.88452 17.071ZM8.07873 17.064C8.07873 17.252 8.02492 17.4033 7.91962 17.5164C7.81355 17.6303 7.67004 17.6872 7.48987 17.6872C7.31204 17.6872 7.17164 17.6303 7.06791 17.5164C6.96574 17.4072 6.91504 17.2621 6.91504 17.0827C6.91504 16.8776 6.97354 16.7193 7.08897 16.607C7.19504 16.5025 7.33855 16.4502 7.51794 16.4502C7.69421 16.4502 7.83149 16.5048 7.92976 16.614C8.02881 16.7224 8.07873 16.8729 8.07873 17.064Z" fill="#231F1F"/>
<path d="M8.91268 16.0778C8.87602 16.0575 8.83391 16.0466 8.78711 16.0466C8.65452 16.0466 8.589 16.1301 8.589 16.297V16.4787H8.8651V16.6394H8.589V17.658H8.39947V16.6394H8.19824V16.4787H8.39947V16.2876C8.39947 16.1581 8.44003 16.056 8.52036 15.9827C8.58978 15.9187 8.67479 15.8867 8.77541 15.8867C8.83391 15.8867 8.87992 15.8937 8.91268 15.9078" fill="#231F1F"/>
<path d="M9.6595 17.6466C9.61426 17.6723 9.55576 17.6848 9.48167 17.6848C9.27498 17.6848 9.17203 17.5686 9.17203 17.337V16.6389H8.96924V16.479H9.17203V16.1912C9.23208 16.1717 9.29526 16.1514 9.36156 16.1304V16.479H9.6595V16.6389H9.36156V17.305C9.36156 17.3838 9.37481 17.4399 9.40211 17.4735C9.42863 17.507 9.47387 17.5234 9.53705 17.5234C9.58384 17.5234 9.6244 17.5109 9.6595 17.4852" fill="#231F1F"/>
<path d="M29.3315 19.6535C29.3315 19.6293 29.3245 19.6122 29.3113 19.6013C29.2957 19.5888 29.2691 19.5825 29.2333 19.5825H29.1802V19.7268H29.2442C29.3019 19.7268 29.3315 19.7019 29.3315 19.6535ZM29.4127 19.9538H29.3409L29.2949 19.8524C29.2715 19.8017 29.2465 19.7767 29.2192 19.7767H29.1802V19.9538H29.121V19.5318H29.2403C29.2933 19.5318 29.3331 19.5435 29.3604 19.5669C29.383 19.5872 29.3947 19.6137 29.3947 19.6465C29.3947 19.6754 29.3854 19.7003 29.3666 19.7206C29.3479 19.7417 29.3214 19.7549 29.2871 19.7619V19.7635C29.3113 19.7689 29.3347 19.7947 29.3581 19.8415L29.4127 19.9538ZM29.5452 19.7471C29.5452 19.6637 29.5164 19.5942 29.4595 19.5381C29.4025 19.4827 29.3339 19.4546 29.252 19.4546C29.167 19.4546 29.0976 19.4827 29.0414 19.5389C28.9852 19.595 28.9579 19.6644 28.9579 19.7471C28.9579 19.8313 28.9868 19.9015 29.0445 19.9585C29.1007 20.0139 29.1701 20.0412 29.252 20.0412C29.3331 20.0412 29.4025 20.0131 29.4595 19.9569C29.5164 19.9008 29.5452 19.8313 29.5452 19.7471ZM29.585 19.7455C29.585 19.8384 29.5523 19.9164 29.4883 19.9803C29.4236 20.0435 29.3448 20.0747 29.2504 20.0747C29.1553 20.0747 29.0757 20.0443 29.0133 19.9827C28.9501 19.921 28.9189 19.843 28.9189 19.7479C28.9189 19.6551 28.9509 19.5771 29.0141 19.5139C29.0781 19.4499 29.1576 19.418 29.2528 19.418C29.3464 19.418 29.4244 19.4484 29.4875 19.5092C29.5523 19.5716 29.585 19.6504 29.585 19.7455Z" fill="#231F1F"/>
<mask id="mask0_60_5067" style="mask-type:luminance" maskUnits="userSpaceOnUse" x="10" y="7" width="11" height="10">
<path d="M10.4956 7.5874H20.2794V16.5725H10.4956V7.5874Z" fill="white"/>
</mask>
<g mask="url(#mask0_60_5067)">
<mask id="mask1_60_5067" style="mask-type:luminance" maskUnits="userSpaceOnUse" x="10" y="7" width="11" height="10">
<path d="M20.0642 7.73389L16.7938 8.79853L13.9509 10.0519L13.1545 10.2617C12.9525 10.4536 12.738 10.6478 12.5095 10.8459C12.2591 11.0643 12.0228 11.2616 11.8434 11.4044C11.6438 11.5627 11.3466 11.8575 11.1953 12.0455C10.9691 12.3263 10.7928 12.6258 10.7164 12.8559C10.5799 13.27 10.647 13.6888 10.9098 14.0757C11.2468 14.5702 11.9167 15.0725 12.6959 15.4149C13.0937 15.5888 13.7645 15.8134 14.2675 15.9406C15.1052 16.1519 16.7252 16.3812 17.6174 16.4156C17.7984 16.4226 18.0394 16.4218 18.0503 16.4148C18.0706 16.4015 18.2094 16.1387 18.3701 15.8103C18.9184 14.6926 19.3154 13.6444 19.5291 12.749C19.6578 12.2077 19.7592 11.4847 19.8239 10.6275C19.8427 10.3881 19.8489 9.58706 19.8349 9.31486C19.8122 8.87262 19.7732 8.5115 19.7101 8.1574C19.7015 8.10515 19.6976 8.05991 19.7023 8.05523C19.7116 8.04743 19.7428 8.03807 20.1445 7.92108L20.0642 7.73389ZM19.317 8.17144C19.3466 8.17144 19.4254 8.928 19.4457 9.40767C19.4503 9.50984 19.4496 9.57536 19.4433 9.57536C19.4238 9.57536 19.0245 9.34137 18.7414 9.16354C18.4941 9.00911 18.0254 8.69791 17.9505 8.63941C17.9271 8.6207 17.9294 8.61992 18.1322 8.5505C18.4754 8.43273 19.2904 8.17144 19.317 8.17144ZM17.651 8.71741C17.672 8.71741 17.7298 8.74861 17.8655 8.83362C18.3756 9.15263 19.0666 9.53636 19.3622 9.66584C19.4542 9.70561 19.4644 9.69001 19.253 9.83353C18.8022 10.1385 18.2422 10.4388 17.5543 10.7437C17.4349 10.7968 17.3335 10.8404 17.3289 10.8404C17.325 10.8404 17.3382 10.7796 17.3585 10.7055C17.5254 10.0901 17.619 9.46929 17.6221 8.9709C17.6229 8.72521 17.6229 8.72365 17.6471 8.71819C17.6479 8.71741 17.6494 8.71741 17.651 8.71741ZM17.3078 8.84766C17.3226 8.86248 17.3117 9.41469 17.2938 9.56522C17.2509 9.92556 17.1799 10.2594 17.0668 10.6384C17.0403 10.7289 17.0145 10.8077 17.0106 10.8124C17.0005 10.8233 16.6628 10.4949 16.5505 10.3647C16.3578 10.1424 16.2065 9.92166 16.0957 9.70405C16.0396 9.5933 15.9499 9.37491 15.9577 9.36867C15.9959 9.34137 17.2984 8.8383 17.3078 8.84766ZM15.6925 9.48333C15.6956 9.48333 15.698 9.48411 15.6995 9.48567C15.7042 9.49113 15.7214 9.53168 15.7377 9.57536C15.8165 9.78907 15.9936 10.1057 16.1472 10.3085C16.3149 10.53 16.5341 10.7664 16.7174 10.9231C16.7759 10.973 16.8312 11.0206 16.839 11.0276C16.8546 11.0409 16.8601 11.0386 16.4569 11.1914C15.9897 11.3685 15.4804 11.5455 14.8962 11.7343C14.6739 11.806 14.4851 11.8669 14.4781 11.8692C14.4555 11.8778 14.4625 11.8637 14.5273 11.7624C14.8174 11.31 15.2573 10.4255 15.5038 9.79921C15.5459 9.69079 15.5864 9.58238 15.5942 9.55742C15.6044 9.52232 15.6153 9.50984 15.6488 9.49503C15.6676 9.48645 15.6839 9.48255 15.6925 9.48333ZM15.198 9.68689C15.2043 9.69313 15.0787 9.95754 14.9555 10.197C14.7168 10.6626 14.4532 11.1212 14.103 11.6805C14.0421 11.7772 13.9867 11.8653 13.9789 11.8762C13.9665 11.8942 13.9618 11.8879 13.9236 11.8123C13.8393 11.6454 13.7691 11.4356 13.7333 11.2406C13.6974 11.0471 13.7028 10.7125 13.7465 10.5051C13.7785 10.3514 13.7769 10.3545 13.8503 10.3179C14.1646 10.1564 15.1879 9.67831 15.198 9.68689ZM19.4613 9.86004V9.96534C19.4605 10.5152 19.402 11.2686 19.3162 11.8185C19.3014 11.9152 19.2881 11.9948 19.2873 11.9956C19.2865 11.9963 19.2163 11.9761 19.1329 11.9503C18.7616 11.8357 18.3592 11.6633 17.9965 11.4652C17.7563 11.3334 17.4084 11.1205 17.4178 11.1111C17.4209 11.108 17.5231 11.0542 17.6455 10.991C18.1306 10.7391 18.5947 10.4684 18.998 10.1993C19.1485 10.0987 19.3755 9.93492 19.4254 9.89124L19.4613 9.86004ZM13.3308 10.5893C13.3409 10.5893 13.3386 10.608 13.323 10.6993C13.3121 10.7625 13.2996 10.8818 13.2949 10.9637C13.2754 11.3248 13.3339 11.5908 13.5133 11.955C13.5632 12.0564 13.6022 12.1406 13.5999 12.1422C13.582 12.157 11.9472 12.6351 11.434 12.7755C11.2811 12.8169 11.1477 12.8535 11.1376 12.8566C11.1196 12.8621 11.1181 12.8582 11.1243 12.8169C11.1805 12.4542 11.4574 11.9792 11.8434 11.5806C12.1008 11.3154 12.3067 11.1587 12.6561 10.959C12.9073 10.8163 13.2973 10.6018 13.3261 10.5909C13.3277 10.5901 13.33 10.5893 13.3308 10.5893ZM17.1869 11.2788C17.1885 11.2772 17.2493 11.3092 17.3211 11.3513C17.8491 11.6555 18.5861 11.9417 19.214 12.0853L19.2709 12.0977L19.1929 12.1414C18.8654 12.3231 17.7843 12.7716 16.6807 13.185C16.5193 13.245 16.3625 13.3043 16.3313 13.3168C16.3009 13.3285 16.2759 13.3371 16.2759 13.3347C16.2759 13.3324 16.3212 13.245 16.3773 13.1405C16.687 12.5626 16.9958 11.8598 17.1549 11.3724C17.1713 11.3225 17.1853 11.2803 17.1869 11.2788ZM16.7938 11.4075C16.7954 11.409 16.7759 11.4605 16.7509 11.5221C16.5356 12.0416 16.2533 12.6086 15.8937 13.2458C15.8017 13.4081 15.7245 13.5407 15.7214 13.5399C15.719 13.5399 15.6442 13.4962 15.556 13.4424C15.0319 13.1218 14.5678 12.7279 14.2636 12.3442L14.22 12.2896L14.4461 12.228C15.2526 12.0073 15.9359 11.7717 16.616 11.4792C16.7119 11.4379 16.7922 11.4059 16.7938 11.4075ZM19.2358 12.2576C19.2366 12.2584 19.2374 12.2592 19.2374 12.26C19.2374 12.3146 19.1126 12.8223 19.0081 13.1897C18.9215 13.4978 18.8482 13.7388 18.7125 14.1662C18.6524 14.3541 18.6017 14.5086 18.5986 14.5078C18.5955 14.507 18.5807 14.5039 18.5666 14.5016C17.8319 14.369 17.1744 14.1841 16.5583 13.9369C16.3859 13.8675 16.1363 13.7575 16.1238 13.745C16.1191 13.7403 16.2681 13.6701 16.4537 13.589C17.5792 13.0992 18.7453 12.5408 19.1438 12.3021C19.1922 12.2732 19.2273 12.2561 19.2358 12.2576ZM13.5991 12.4503C13.6053 12.4565 13.2902 12.9058 12.8504 13.5204C12.6983 13.7333 12.5181 13.9852 12.4518 14.0788C12.3855 14.1732 12.2849 14.3222 12.2279 14.4103L12.1242 14.5702L12.0135 14.4774C11.8832 14.3682 11.6562 14.1373 11.5533 14.0086C11.3411 13.745 11.1968 13.4673 11.1407 13.2115C11.1142 13.0937 11.1134 13.0337 11.1384 13.0267C11.1742 13.0157 11.8341 12.8605 12.4534 12.717C12.7973 12.6375 13.1951 12.5446 13.337 12.5103C13.4798 12.476 13.5976 12.4495 13.5991 12.4503ZM13.9158 12.5712L13.9953 12.6601C14.351 13.0563 14.7137 13.3511 15.1551 13.6062C15.2331 13.6514 15.2932 13.6904 15.2877 13.6935C15.269 13.7052 13.7598 14.2403 13.0617 14.4836C12.6678 14.6201 12.3449 14.7316 12.3426 14.7316C12.341 14.7316 12.3184 14.7168 12.2935 14.6989L12.2482 14.6669L12.3192 14.564C12.5509 14.2286 12.8426 13.8604 13.479 13.0961L13.9158 12.5712ZM15.8883 13.9782C15.8898 13.9766 16.0006 14.0156 16.134 14.0656C16.4561 14.1857 16.7088 14.2637 17.0504 14.3495C17.47 14.454 18.0768 14.5593 18.4364 14.5889C18.4918 14.5936 18.5198 14.5998 18.5113 14.6053C18.4941 14.6162 18.1306 14.7371 17.8631 14.8213C17.438 14.9547 16.1402 15.3369 15.0826 15.6411C14.886 15.6972 14.7183 15.7448 14.7098 15.7471C14.6856 15.7518 14.6029 15.73 14.6029 15.7191C14.6029 15.7136 14.6622 15.6387 14.7347 15.5529C15.0904 15.1286 15.4429 14.6544 15.7385 14.206C15.8189 14.0827 15.8867 13.9805 15.8883 13.9782ZM15.4515 13.9907C15.4546 13.9938 15.2791 14.2746 14.9711 14.7589C14.8408 14.9633 14.6926 15.1965 14.6419 15.2768C14.592 15.3572 14.5179 15.4788 14.4781 15.5475L14.4056 15.6738L14.3689 15.6637C14.28 15.6403 13.6553 15.4196 13.4899 15.354C13.2856 15.2729 13.0719 15.1754 12.9151 15.0904C12.7185 14.9843 12.469 14.8268 12.4885 14.8206C12.4939 14.819 12.8324 14.727 13.2396 14.6162C14.3229 14.3214 14.9219 14.1521 15.315 14.0297C15.3883 14.0071 15.4499 13.9891 15.4515 13.9907ZM18.5276 14.7106C18.53 14.7106 18.5315 14.7106 18.5315 14.7106C18.5417 14.7363 18.1408 15.8454 17.9942 16.1964C17.9614 16.2752 17.9489 16.2947 17.9325 16.2939C17.8904 16.2916 17.3094 16.2104 16.9576 16.1574C16.3414 16.0638 15.3096 15.8844 15.049 15.8251L14.9882 15.8119L15.3579 15.7284C16.1488 15.5506 16.5294 15.4547 16.9147 15.3369C17.4014 15.1887 17.8826 15.0031 18.3693 14.7777C18.4458 14.7418 18.512 14.7145 18.5276 14.7106Z" fill="white"/>
</mask>
<g mask="url(#mask1_60_5067)">
<path d="M10.5801 7.73389V16.4226H20.1447V7.73389H10.5801Z" fill="url(#paint0_linear_60_5067)"/>
</g>
</g>
<mask id="mask2_60_5067" style="mask-type:luminance" maskUnits="userSpaceOnUse" x="13" y="0" width="6" height="4">
<path d="M13.0913 0H18.4824V3.39436H13.0913V0Z" fill="white"/>
</mask>
<g mask="url(#mask2_60_5067)">
<mask id="mask3_60_5067" style="mask-type:luminance" maskUnits="userSpaceOnUse" x="13" y="0" width="6" height="4">
<path d="M16.6939 0.127044C16.6393 0.120805 15.7611 0.436686 15.1972 0.665213C14.4336 0.974855 13.84 1.27202 13.4742 1.52862C13.3377 1.62378 13.1669 1.79537 13.142 1.86166C13.1326 1.88584 13.1279 1.9147 13.1279 1.94434L13.4594 2.2571L14.2472 2.50825L16.1237 2.84285L18.2686 3.21099L18.2905 3.02692C18.2842 3.02614 18.278 3.02458 18.271 3.0238L17.9886 2.97934L17.9317 2.87873C17.64 2.36552 17.3178 1.72985 17.1307 1.3001C16.9856 0.967056 16.8468 0.584098 16.7695 0.305654C16.7243 0.141083 16.7188 0.130164 16.6939 0.127044ZM16.6525 0.254177C16.6549 0.254177 16.6557 0.254177 16.6557 0.254177C16.658 0.256517 16.6674 0.325153 16.6775 0.407048C16.7196 0.751788 16.7968 1.08639 16.9185 1.44595C17.009 1.71737 17.0105 1.70177 16.9021 1.67136C16.6502 1.60116 15.5201 1.40773 14.7027 1.29464C14.5708 1.27592 14.4609 1.26032 14.4593 1.25798C14.4492 1.24784 15.049 0.934298 15.3149 0.811065C15.6558 0.652734 16.5847 0.266656 16.6525 0.254177ZM14.2706 1.35859L14.3665 1.39135C14.8914 1.56918 16.2064 1.82033 16.9333 1.88038C17.016 1.8874 17.0846 1.89442 17.087 1.89676C17.0885 1.89832 17.0191 1.93576 16.9318 1.97866C16.5816 2.15415 16.1955 2.36786 15.928 2.53477C15.85 2.5839 15.7782 2.62368 15.7681 2.6229C15.7587 2.62212 15.7072 2.61354 15.6534 2.60496L15.5544 2.58858L15.3063 2.34836C14.8703 1.92718 14.5303 1.60116 14.3985 1.47793L14.2706 1.35859ZM14.1731 1.43581L14.5209 1.86868C14.712 2.10735 14.9039 2.34368 14.9468 2.39437C14.9889 2.44507 15.0224 2.48875 15.0201 2.49031C15.01 2.49733 14.5162 2.40139 14.255 2.34134C13.9859 2.27972 13.8751 2.25008 13.7082 2.19705L13.5733 2.15415V2.12061C13.5748 1.9537 13.7854 1.70879 14.1419 1.45765L14.1731 1.43581ZM17.133 2.02623C17.1439 2.02701 17.1548 2.04807 17.1853 2.11515C17.2695 2.29922 17.5323 2.79917 17.5955 2.89588C17.6166 2.92786 17.6501 2.92942 17.3015 2.87327C16.4646 2.73833 16.1939 2.6931 16.1939 2.68842C16.1939 2.6853 16.2189 2.66892 16.2493 2.65176C16.509 2.50747 16.7703 2.32652 17.0027 2.13075C17.0589 2.08395 17.1119 2.03949 17.1221 2.03091C17.126 2.02779 17.1299 2.02545 17.133 2.02623Z" fill="white"/>
</mask>
<g mask="url(#mask3_60_5067)">
<path d="M13.1279 0.120605V3.21079H18.2905V0.120605H13.1279Z" fill="url(#paint1_linear_60_5067)"/>
</g>
</g>
<mask id="mask4_60_5067" style="mask-type:luminance" maskUnits="userSpaceOnUse" x="11" y="1" width="15" height="11">
<path d="M11.6938 1.79688H25.6706V11.5806H11.6938V1.79688Z" fill="white"/>
</mask>
<g mask="url(#mask4_60_5067)">
<mask id="mask5_60_5067" style="mask-type:luminance" maskUnits="userSpaceOnUse" x="11" y="1" width="15" height="11">
<path d="M13.157 1.82812C13.157 1.82812 13.1024 1.91392 13.1539 2.04183C13.1851 2.12061 13.2803 2.21576 13.3855 2.31638C13.3855 2.31638 14.4837 3.3857 14.6187 3.54091C15.227 4.24209 15.4914 4.93235 15.5156 5.88467C15.5312 6.49616 15.4134 7.03354 15.1264 7.65829C14.6116 8.7783 13.5283 10.013 11.8545 11.3857L12.1002 11.3046C12.2577 11.1868 12.4722 11.0605 12.9784 10.7843C14.1429 10.1487 15.4516 9.56372 17.0584 8.96081C19.3701 8.0935 23.174 7.07644 25.3376 6.74496L25.563 6.71064L25.5287 6.65683C25.3306 6.34952 25.1956 6.16 25.0334 5.95955C24.5584 5.3738 23.9836 4.89569 23.2801 4.50259C22.3121 3.96208 21.0572 3.54169 19.4715 3.22658C19.1713 3.16731 18.5145 3.05499 17.9803 2.97154C16.8478 2.79605 16.1177 2.67672 15.3113 2.53632C15.0219 2.48641 14.5906 2.41465 14.3036 2.35225C14.1546 2.32028 13.8707 2.2532 13.6499 2.17754C13.4682 2.10579 13.2116 2.03637 13.157 1.82812ZM13.7935 2.44507C13.795 2.44351 13.8364 2.45599 13.8863 2.47315C13.9791 2.50435 14.1015 2.541 14.2435 2.58078C14.3433 2.60886 14.4533 2.6385 14.5695 2.66814C14.7185 2.70557 14.8409 2.73833 14.8425 2.73989C14.8589 2.75861 15.1085 3.55339 15.1943 3.85835C15.2262 3.97534 15.2512 4.07206 15.2489 4.0744C15.2465 4.07674 15.2184 4.03384 15.188 3.97924C14.8987 3.47227 14.4416 2.9575 13.9128 2.54256C13.8473 2.49031 13.7935 2.44663 13.7935 2.44507ZM15.0102 2.78045C15.0227 2.77967 15.078 2.78903 15.1436 2.80307C15.564 2.89588 16.3166 3.04096 16.8002 3.12207C16.8805 3.13533 16.9468 3.15015 16.9468 3.15483C16.9468 3.15873 16.9164 3.17823 16.8797 3.19617C16.7986 3.2375 16.4703 3.43327 16.3611 3.50659C16.0865 3.68988 15.8401 3.88565 15.6607 4.06426C15.5881 4.13601 15.5281 4.19451 15.5257 4.19451C15.5242 4.19451 15.5117 4.15239 15.4977 4.10169C15.408 3.75773 15.2223 3.25076 15.0562 2.89354C15.0297 2.83661 15.0079 2.78591 15.0079 2.78123C15.0079 2.78045 15.0086 2.78045 15.0102 2.78045ZM17.1512 3.18681C17.1652 3.19149 17.1917 3.27416 17.2393 3.46057C17.329 3.81779 17.3711 4.21869 17.3571 4.58995C17.3532 4.6929 17.3469 4.78883 17.343 4.80287L17.3352 4.82861L17.2073 4.78727C16.9437 4.70304 16.5139 4.57669 16.145 4.47529C15.9352 4.41758 15.7636 4.36532 15.7636 4.36064C15.7636 4.34504 16.0694 4.04008 16.2012 3.92464C16.4515 3.70314 17.127 3.17901 17.1512 3.18681ZM17.3212 3.21099C17.329 3.20397 18.3445 3.37946 18.8055 3.46759C19.1494 3.53311 19.647 3.63684 19.6767 3.64932C19.6915 3.65556 19.64 3.68364 19.4747 3.75773C18.8211 4.05178 18.3375 4.31462 17.8562 4.63596C17.7291 4.72098 17.6238 4.78961 17.6215 4.78961C17.6191 4.78961 17.6176 4.71942 17.6176 4.63284C17.6168 4.16487 17.5232 3.69222 17.3516 3.2921C17.3329 3.2492 17.3196 3.21255 17.3212 3.21099ZM19.9465 3.72888C19.9543 3.73668 19.9208 3.93712 19.8919 4.0549C19.8022 4.42226 19.5643 4.96744 19.2703 5.47987C19.2188 5.57035 19.172 5.64601 19.1674 5.64756C19.1619 5.64912 19.0948 5.61403 19.0184 5.56957C18.7314 5.40188 18.4061 5.24277 18.0489 5.09614C17.9491 5.0548 17.864 5.01892 17.8601 5.01424C17.8438 4.99942 18.6378 4.47451 19.0582 4.22259C19.3951 4.02136 19.9372 3.71952 19.9465 3.72888ZM20.1345 3.75851C20.1571 3.75851 20.6071 3.88097 20.8404 3.95038C21.4199 4.12353 22.0891 4.36766 22.5235 4.56421L22.7037 4.6461L22.5765 4.67496C21.5142 4.91909 20.604 5.19987 19.7274 5.55475C19.6548 5.58439 19.5916 5.60857 19.587 5.60857C19.5823 5.60857 19.6057 5.55241 19.6384 5.48377C19.9021 4.92455 20.0721 4.3388 20.1158 3.84041C20.1205 3.79517 20.1283 3.75851 20.1345 3.75851ZM15.6583 4.78493C15.6654 4.77792 16.0085 4.85825 16.1949 4.91051C16.4765 4.98928 17.074 5.18895 17.0747 5.20455C17.0747 5.20767 17.0084 5.26461 16.9281 5.33168C16.6052 5.60155 16.2932 5.88389 15.9196 6.24423C15.8089 6.35108 15.7145 6.43766 15.7098 6.43766C15.7051 6.43766 15.7036 6.42206 15.7059 6.40334C15.7621 5.98841 15.7504 5.45648 15.6716 4.91519C15.6622 4.84655 15.656 4.78805 15.6583 4.78493ZM22.8753 4.79195C22.8807 4.79741 22.7161 5.05324 22.614 5.19909C22.465 5.4128 22.249 5.69202 21.7568 6.31053C21.4979 6.63499 21.2062 7.00235 21.1079 7.12636C21.0096 7.25037 20.9277 7.35255 20.9254 7.35255C20.9223 7.35255 20.8911 7.30809 20.8544 7.25349C20.5775 6.84012 20.2476 6.47666 19.8553 6.14986C19.782 6.08902 19.6985 6.02272 19.6712 6.00166C19.6439 5.98139 19.6213 5.96267 19.6213 5.95955C19.6205 5.95253 20.0401 5.77314 20.3607 5.64289C20.9184 5.4167 21.6804 5.14527 22.2505 4.97134C22.5516 4.87931 22.8706 4.78727 22.8753 4.79195ZM23.0648 4.84187C23.0734 4.83953 23.1334 4.86839 23.2052 4.90973C23.8057 5.25291 24.3946 5.69436 24.8571 6.14752C24.9889 6.27621 25.3111 6.61081 25.3064 6.61393C25.3048 6.61471 25.1941 6.62329 25.0591 6.63343C24.0179 6.71142 22.6873 6.93215 21.4066 7.23945C21.3192 7.26051 21.2444 7.27767 21.2397 7.27767C21.2342 7.27767 21.3302 7.18252 21.4511 7.0663C22.2029 6.34484 22.5469 5.88857 22.9501 5.0743C23.0102 4.95341 23.0617 4.84811 23.064 4.84187C23.064 4.84187 23.064 4.84187 23.0648 4.84187ZM17.5638 5.40422C17.5981 5.41202 17.9186 5.56099 18.1612 5.68188C18.3827 5.79264 18.7181 5.97047 18.7345 5.98685C18.7368 5.98841 18.6183 6.05002 18.4716 6.12334C18.0076 6.35498 17.6098 6.57415 17.1941 6.82764C17.0763 6.89939 16.9765 6.95867 16.9733 6.95867C16.9632 6.95867 16.9671 6.95009 17.0334 6.8292C17.2549 6.4244 17.4335 5.94161 17.5357 5.47052C17.545 5.4284 17.556 5.40266 17.5638 5.40422ZM17.2401 5.46194C17.2471 5.46896 17.1636 5.77392 17.1114 5.93693C17.01 6.24969 16.8392 6.64279 16.6746 6.93839C16.6364 7.00781 16.5771 7.1092 16.5436 7.16458L16.482 7.26441L16.3439 7.13026C16.1825 6.97427 16.0514 6.87755 15.8837 6.79176C15.8182 6.75822 15.7644 6.72702 15.7644 6.72234C15.7644 6.70206 16.1856 6.31911 16.5116 6.04456C16.744 5.84801 17.2346 5.45648 17.2401 5.46194ZM19.2048 6.26841L19.3257 6.3464C19.6018 6.52579 19.9294 6.7668 20.179 6.97427C20.3186 7.09048 20.59 7.33305 20.6461 7.39232L20.6766 7.42352L20.4761 7.47968C19.3436 7.79322 18.4693 8.07167 17.4491 8.44604C17.336 8.48738 17.2377 8.52248 17.2315 8.52248C17.2175 8.52248 17.2034 8.53496 17.4577 8.30097C18.1105 7.70197 18.6869 7.04134 19.1182 6.39866L19.2048 6.26841ZM18.6885 6.3971C18.6947 6.40334 18.3539 6.87911 18.1518 7.1482C17.9101 7.46954 17.4787 8.00693 17.1824 8.35713C17.0584 8.50298 16.9523 8.62465 16.946 8.62621C16.9398 8.62855 16.9359 8.59268 16.9359 8.53574C16.9351 8.2378 16.8595 7.91801 16.7261 7.64815C16.6692 7.53428 16.6598 7.5062 16.6715 7.49606C16.7183 7.45394 17.4382 7.04368 17.8921 6.80112C18.2041 6.63421 18.683 6.39164 18.6885 6.3971ZM15.5671 7.16068C15.5733 7.16068 15.631 7.18954 15.695 7.22541C15.8525 7.31277 15.9945 7.4087 16.1193 7.51244C16.124 7.51634 16.0592 7.56937 15.9758 7.62943C15.741 7.7979 15.3846 8.06699 15.1779 8.23078C14.9603 8.40393 14.9525 8.40939 14.9774 8.37195C15.1404 8.12236 15.2223 7.98197 15.3081 7.8018C15.3846 7.64113 15.4602 7.45082 15.5148 7.28547C15.5374 7.21683 15.5608 7.16068 15.5671 7.16068ZM16.3985 7.81194C16.4094 7.81116 16.4258 7.83222 16.4929 7.93127C16.6333 8.14186 16.7417 8.42187 16.769 8.65039L16.7752 8.69953L16.4375 8.82978C15.8307 9.06455 15.273 9.29619 14.8963 9.46856C14.7902 9.51614 14.6046 9.60506 14.4829 9.66589C14.3613 9.72673 14.2622 9.77431 14.2622 9.77197C14.2622 9.76885 14.3386 9.71191 14.4315 9.64405C15.1716 9.10823 15.8096 8.5217 16.2901 7.93439C16.3416 7.872 16.3876 7.8174 16.3938 7.8135C16.3954 7.81272 16.397 7.81272 16.3985 7.81194ZM16.0148 7.90709C16.0241 7.91723 15.7418 8.23624 15.5515 8.43044C15.0749 8.91558 14.6023 9.29619 14.0165 9.66667C13.9432 9.71347 13.8769 9.75559 13.8676 9.76027C13.852 9.76963 13.873 9.74545 14.1304 9.46622C14.2919 9.28996 14.4159 9.1441 14.557 8.96159C14.6491 8.84148 14.667 8.82432 14.8027 8.72683C15.1685 8.4632 16.0046 7.89774 16.0148 7.90709Z" fill="white"/>
</mask>
<g mask="url(#mask5_60_5067)">
<path d="M25.2566 13.4087L26.9795 2.0416L12.1611 -0.195312L10.439 11.1718L25.2566 13.4087Z" fill="url(#paint2_radial_60_5067)"/>
</g>
</g>
<path d="M18.8771 16.0072H18.7398V16.4315H18.6837V16.0072H18.5464V15.9565H18.8771" fill="#231F1F"/>
<path d="M19.4381 16.4315H19.3819V16.1125C19.3819 16.0876 19.3835 16.0564 19.3866 16.0205H19.385C19.3803 16.0416 19.3757 16.0572 19.371 16.0665L19.2088 16.4315H19.1815L19.0184 16.0689C19.0138 16.0587 19.0091 16.0423 19.0044 16.0205H19.0036C19.0052 16.0392 19.006 16.0704 19.006 16.1133V16.4315H18.9521V15.9565H19.0255L19.1721 16.288C19.183 16.313 19.19 16.3317 19.1932 16.345H19.1955C19.2056 16.3192 19.2134 16.2997 19.2189 16.2865L19.3679 15.9565H19.4381" fill="#231F1F"/>
<defs>
<linearGradient id="paint0_linear_60_5067" x1="11.1486" y1="17.3824" x2="22.0394" y2="10.9348" gradientUnits="userSpaceOnUse">
<stop stop-color="#909CA9"/>
<stop offset="0.125" stop-color="#909CA9"/>
<stop offset="0.1875" stop-color="#909CA9"/>
<stop offset="0.21875" stop-color="#909CA9"/>
<stop offset="0.234375" stop-color="#909CA9"/>
<stop offset="0.242187" stop-color="#919CA9"/>
<stop offset="0.246094" stop-color="#929DAA"/>
<stop offset="0.25" stop-color="#929EAB"/>
<stop offset="0.253906" stop-color="#939EAB"/>
<stop offset="0.257812" stop-color="#939FAC"/>
<stop offset="0.261719" stop-color="#94A0AC"/>
<stop offset="0.265625" stop-color="#95A0AC"/>
<stop offset="0.269531" stop-color="#95A1AD"/>
<stop offset="0.273438" stop-color="#96A1AD"/>
<stop offset="0.277344" stop-color="#96A2AE"/>
<stop offset="0.28125" stop-color="#97A2AE"/>
<stop offset="0.285156" stop-color="#98A3AF"/>
<stop offset="0.289062" stop-color="#98A3AF"/>
<stop offset="0.292969" stop-color="#99A4B0"/>
<stop offset="0.296875" stop-color="#9AA4B0"/>
<stop offset="0.300781" stop-color="#9AA5B1"/>
<stop offset="0.304688" stop-color="#9BA5B1"/>
<stop offset="0.308594" stop-color="#9BA6B1"/>
<stop offset="0.3125" stop-color="#9CA6B2"/>
<stop offset="0.316406" stop-color="#9DA7B2"/>
<stop offset="0.320312" stop-color="#9DA8B3"/>
<stop offset="0.324219" stop-color="#9EA8B3"/>
<stop offset="0.328125" stop-color="#9FA9B4"/>
<stop offset="0.332031" stop-color="#9FA9B4"/>
<stop offset="0.335938" stop-color="#A0AAB5"/>
<stop offset="0.339844" stop-color="#A0AAB5"/>
<stop offset="0.34375" stop-color="#A1ABB6"/>
<stop offset="0.347656" stop-color="#A2ABB6"/>
<stop offset="0.351562" stop-color="#A2ACB7"/>
<stop offset="0.355469" stop-color="#A3ACB7"/>
<stop offset="0.359375" stop-color="#A3ADB7"/>
<stop offset="0.363281" stop-color="#A4ADB8"/>
<stop offset="0.367188" stop-color="#A5AEB8"/>
<stop offset="0.371094" stop-color="#A5AFB9"/>
<stop offset="0.375" stop-color="#A6AFB9"/>
<stop offset="0.378906" stop-color="#A7B0BA"/>
<stop offset="0.382812" stop-color="#A7B0BA"/>
<stop offset="0.386719" stop-color="#A8B1BB"/>
<stop offset="0.390625" stop-color="#A8B1BB"/>
<stop offset="0.394531" stop-color="#A9B2BC"/>
<stop offset="0.398437" stop-color="#AAB2BC"/>
<stop offset="0.402344" stop-color="#AAB3BC"/>
<stop offset="0.40625" stop-color="#ABB3BD"/>
<stop offset="0.410156" stop-color="#ABB4BD"/>
<stop offset="0.414062" stop-color="#ACB4BE"/>
<stop offset="0.417969" stop-color="#ADB5BE"/>
<stop offset="0.421875" stop-color="#ADB6BF"/>
<stop offset="0.425781" stop-color="#AEB6BF"/>
<stop offset="0.429688" stop-color="#AFB7C0"/>
<stop offset="0.433594" stop-color="#AFB7C0"/>
<stop offset="0.4375" stop-color="#B0B8C1"/>
<stop offset="0.441406" stop-color="#B0B8C1"/>
<stop offset="0.445312" stop-color="#B1B9C1"/>
<stop offset="0.449219" stop-color="#B2B9C2"/>
<stop offset="0.453125" stop-color="#B2BAC2"/>
<stop offset="0.457031" stop-color="#B3BAC3"/>
<stop offset="0.460937" stop-color="#B3BBC3"/>
<stop offset="0.464844" stop-color="#B4BBC4"/>
<stop offset="0.46875" stop-color="#B5BCC4"/>
<stop offset="0.472656" stop-color="#B5BCC5"/>
<stop offset="0.476562" stop-color="#B6BDC5"/>
<stop offset="0.480469" stop-color="#B7BEC6"/>
<stop offset="0.484375" stop-color="#B7BEC6"/>
<stop offset="0.488281" stop-color="#B8BFC7"/>
<stop offset="0.492188" stop-color="#B8BFC7"/>
<stop offset="0.496094" stop-color="#B9C0C7"/>
<stop offset="0.5" stop-color="#BAC0C8"/>
<stop offset="0.503906" stop-color="#BAC1C8"/>
<stop offset="0.507812" stop-color="#BBC1C9"/>
<stop offset="0.511719" stop-color="#BBC2C9"/>
<stop offset="0.515625" stop-color="#BCC2CA"/>
<stop offset="0.519531" stop-color="#BDC3CA"/>
<stop offset="0.523437" stop-color="#BDC3CB"/>
<stop offset="0.527344" stop-color="#BEC4CB"/>
<stop offset="0.53125" stop-color="#BFC5CC"/>
<stop offset="0.535156" stop-color="#BFC5CC"/>
<stop offset="0.539062" stop-color="#C0C6CC"/>
<stop offset="0.542969" stop-color="#C0C6CD"/>
<stop offset="0.546875" stop-color="#C1C7CD"/>
<stop offset="0.550781" stop-color="#C2C7CE"/>
<stop offset="0.554688" stop-color="#C2C8CE"/>
<stop offset="0.558594" stop-color="#C3C8CF"/>
<stop offset="0.5625" stop-color="#C3C9CF"/>
<stop offset="0.566406" stop-color="#C4C9D0"/>
<stop offset="0.570312" stop-color="#C5CAD0"/>
<stop offset="0.574219" stop-color="#C5CAD1"/>
<stop offset="0.578125" stop-color="#C6CBD1"/>
<stop offset="0.582031" stop-color="#C7CBD1"/>
<stop offset="0.585938" stop-color="#C7CCD2"/>
<stop offset="0.589844" stop-color="#C8CDD2"/>
<stop offset="0.59375" stop-color="#C8CDD3"/>
<stop offset="0.597656" stop-color="#C9CED3"/>
<stop offset="0.601563" stop-color="#CACED4"/>
<stop offset="0.605469" stop-color="#CACFD4"/>
<stop offset="0.609375" stop-color="#CBCFD5"/>
<stop offset="0.613281" stop-color="#CBD0D5"/>
<stop offset="0.617188" stop-color="#CCD0D6"/>
<stop offset="0.621094" stop-color="#CDD1D6"/>
<stop offset="0.625" stop-color="#CDD1D6"/>
<stop offset="0.628906" stop-color="#CED2D7"/>
<stop offset="0.632812" stop-color="#CFD2D7"/>
<stop offset="0.636719" stop-color="#CFD3D8"/>
<stop offset="0.640625" stop-color="#D0D4D8"/>
<stop offset="0.644531" stop-color="#D0D4D9"/>
<stop offset="0.648438" stop-color="#D1D5D9"/>
<stop offset="0.652344" stop-color="#D2D5DA"/>
<stop offset="0.65625" stop-color="#D2D6DA"/>
<stop offset="0.660156" stop-color="#D3D6DB"/>
<stop offset="0.664063" stop-color="#D3D7DB"/>
<stop offset="0.667969" stop-color="#D4D7DC"/>
<stop offset="0.671875" stop-color="#D5D8DC"/>
<stop offset="0.675781" stop-color="#D5D8DC"/>
<stop offset="0.679688" stop-color="#D6D9DD"/>
<stop offset="0.683594" stop-color="#D7D9DD"/>
<stop offset="0.6875" stop-color="#D7DADE"/>
<stop offset="0.691406" stop-color="#D8DBDE"/>
<stop offset="0.695312" stop-color="#D8DBDF"/>
<stop offset="0.699219" stop-color="#D9DCDF"/>
<stop offset="0.703125" stop-color="#DADCE0"/>
<stop offset="0.707031" stop-color="#DADDE0"/>
<stop offset="0.710938" stop-color="#DBDDE1"/>
<stop offset="0.714844" stop-color="#DBDEE1"/>
<stop offset="0.71875" stop-color="#DCDEE1"/>
<stop offset="0.722656" stop-color="#DDDFE2"/>
<stop offset="0.726562" stop-color="#DDDFE2"/>
<stop offset="0.730469" stop-color="#DEE0E3"/>
<stop offset="0.734375" stop-color="#DFE0E3"/>
<stop offset="0.738281" stop-color="#DFE1E4"/>
<stop offset="0.742188" stop-color="#E0E1E4"/>
<stop offset="0.746094" stop-color="#E0E2E5"/>
<stop offset="0.75" stop-color="#E1E3E5"/>
<stop offset="0.753906" stop-color="#E2E3E6"/>
<stop offset="0.757812" stop-color="#E2E4E6"/>
<stop offset="0.761719" stop-color="#E3E4E6"/>
<stop offset="0.765625" stop-color="#E4E5E7"/>
<stop offset="0.769531" stop-color="#E4E5E7"/>
<stop offset="0.773438" stop-color="#E5E6E8"/>
<stop offset="0.777344" stop-color="#E5E6E8"/>
<stop offset="0.78125" stop-color="#E6E7E9"/>
<stop offset="0.785156" stop-color="#E7E7E9"/>
<stop offset="0.789062" stop-color="#E7E8EA"/>
<stop offset="0.792969" stop-color="#E8E8EA"/>
<stop offset="0.796875" stop-color="#E8E9EB"/>
<stop offset="0.800781" stop-color="#E9EAEB"/>
<stop offset="0.804687" stop-color="#EAEAEC"/>
<stop offset="0.808594" stop-color="#EAEBEC"/>
<stop offset="0.8125" stop-color="#EBEBEC"/>
<stop offset="0.816406" stop-color="#ECECED"/>
<stop offset="0.820312" stop-color="#ECECED"/>
<stop offset="0.828125" stop-color="#EDEDEE"/>
<stop offset="0.84375" stop-color="#EDEDEE"/>
<stop offset="0.875" stop-color="#EDEDEE"/>
<stop offset="1" stop-color="#EDEDEE"/>
</linearGradient>
<linearGradient id="paint1_linear_60_5067" x1="13.1276" y1="1.66873" x2="18.2903" y2="1.66873" gradientUnits="userSpaceOnUse">
<stop stop-color="#939FAB"/>
<stop offset="0.0078125" stop-color="#939FAB"/>
<stop offset="0.015625" stop-color="#94A0AC"/>
<stop offset="0.0234375" stop-color="#94A0AC"/>
<stop offset="0.03125" stop-color="#95A1AD"/>
<stop offset="0.0390625" stop-color="#95A1AD"/>
<stop offset="0.046875" stop-color="#96A2AD"/>
<stop offset="0.0546875" stop-color="#97A2AE"/>
<stop offset="0.0625" stop-color="#97A3AE"/>
<stop offset="0.0703125" stop-color="#98A3AF"/>
<stop offset="0.078125" stop-color="#98A4AF"/>
<stop offset="0.0859375" stop-color="#99A4B0"/>
<stop offset="0.09375" stop-color="#99A5B0"/>
<stop offset="0.101562" stop-color="#9AA5B0"/>
<stop offset="0.109375" stop-color="#9BA6B1"/>
<stop offset="0.117188" stop-color="#9BA6B1"/>
<stop offset="0.125" stop-color="#9CA7B2"/>
<stop offset="0.132813" stop-color="#9CA7B2"/>
<stop offset="0.140625" stop-color="#9DA8B2"/>
<stop offset="0.148438" stop-color="#9DA8B3"/>
<stop offset="0.15625" stop-color="#9EA9B3"/>
<stop offset="0.164063" stop-color="#9FA9B4"/>
<stop offset="0.171875" stop-color="#9FAAB4"/>
<stop offset="0.179688" stop-color="#A0AAB5"/>
<stop offset="0.1875" stop-color="#A0ABB5"/>
<stop offset="0.195313" stop-color="#A1ABB5"/>
<stop offset="0.203125" stop-color="#A1ACB6"/>
<stop offset="0.210938" stop-color="#A2ACB6"/>
<stop offset="0.21875" stop-color="#A3ADB7"/>
<stop offset="0.226563" stop-color="#A3ADB7"/>
<stop offset="0.234375" stop-color="#A4AEB8"/>
<stop offset="0.242188" stop-color="#A4AEB8"/>
<stop offset="0.25" stop-color="#A5AFB8"/>
<stop offset="0.257813" stop-color="#A5AFB9"/>
<stop offset="0.265625" stop-color="#A6B0B9"/>
<stop offset="0.273438" stop-color="#A7B0BA"/>
<stop offset="0.28125" stop-color="#A7B1BA"/>
<stop offset="0.289063" stop-color="#A8B1BA"/>
<stop offset="0.296875" stop-color="#A8B2BB"/>
<stop offset="0.304688" stop-color="#A9B2BB"/>
<stop offset="0.3125" stop-color="#A9B3BC"/>
<stop offset="0.320312" stop-color="#AAB3BC"/>
<stop offset="0.328125" stop-color="#ABB4BD"/>
<stop offset="0.335938" stop-color="#ABB4BD"/>
<stop offset="0.34375" stop-color="#ACB5BD"/>
<stop offset="0.351562" stop-color="#ACB5BE"/>
<stop offset="0.359375" stop-color="#ADB6BE"/>
<stop offset="0.367188" stop-color="#ADB6BF"/>
<stop offset="0.375" stop-color="#AEB6BF"/>
<stop offset="0.382813" stop-color="#AFB7BF"/>
<stop offset="0.390625" stop-color="#AFB7C0"/>
<stop offset="0.398438" stop-color="#B0B8C0"/>
<stop offset="0.40625" stop-color="#B0B8C1"/>
<stop offset="0.414063" stop-color="#B1B9C1"/>
<stop offset="0.421875" stop-color="#B1B9C2"/>
<stop offset="0.429688" stop-color="#B2BAC2"/>
<stop offset="0.4375" stop-color="#B3BAC2"/>
<stop offset="0.445313" stop-color="#B3BBC3"/>
<stop offset="0.453125" stop-color="#B4BBC3"/>
<stop offset="0.460938" stop-color="#B4BCC4"/>
<stop offset="0.46875" stop-color="#B5BCC4"/>
<stop offset="0.476563" stop-color="#B5BDC5"/>
<stop offset="0.484375" stop-color="#B6BDC5"/>
<stop offset="0.492188" stop-color="#B7BEC5"/>
<stop offset="0.5" stop-color="#B7BEC6"/>
<stop offset="0.507812" stop-color="#B8BFC6"/>
<stop offset="0.515625" stop-color="#B8BFC7"/>
<stop offset="0.523438" stop-color="#B9C0C7"/>
<stop offset="0.53125" stop-color="#B9C0C7"/>
<stop offset="0.539062" stop-color="#BAC1C8"/>
<stop offset="0.546875" stop-color="#BBC1C8"/>
<stop offset="0.554688" stop-color="#BBC2C9"/>
<stop offset="0.5625" stop-color="#BCC2C9"/>
<stop offset="0.570312" stop-color="#BCC3CA"/>
<stop offset="0.578125" stop-color="#BDC3CA"/>
<stop offset="0.585938" stop-color="#BDC4CA"/>
<stop offset="0.59375" stop-color="#BEC4CB"/>
<stop offset="0.601562" stop-color="#BFC5CB"/>
<stop offset="0.609375" stop-color="#BFC5CC"/>
<stop offset="0.617188" stop-color="#C0C6CC"/>
<stop offset="0.625" stop-color="#C0C6CD"/>
<stop offset="0.632812" stop-color="#C1C7CD"/>
<stop offset="0.640625" stop-color="#C1C7CD"/>
<stop offset="0.648438" stop-color="#C2C8CE"/>
<stop offset="0.65625" stop-color="#C3C8CE"/>
<stop offset="0.664062" stop-color="#C3C9CF"/>
<stop offset="0.671875" stop-color="#C4C9CF"/>
<stop offset="0.679688" stop-color="#C4CACF"/>
<stop offset="0.6875" stop-color="#C5CAD0"/>
<stop offset="0.695312" stop-color="#C5CBD0"/>
<stop offset="0.703125" stop-color="#C6CBD1"/>
<stop offset="0.710938" stop-color="#C7CCD1"/>
<stop offset="0.71875" stop-color="#C7CCD2"/>
<stop offset="0.726562" stop-color="#C8CDD2"/>
<stop offset="0.734375" stop-color="#C8CDD2"/>
<stop offset="0.742188" stop-color="#C9CED3"/>
<stop offset="0.75" stop-color="#C9CED3"/>
<stop offset="0.757812" stop-color="#CACFD4"/>
<stop offset="0.765625" stop-color="#CBCFD4"/>
<stop offset="0.773438" stop-color="#CBD0D5"/>
<stop offset="0.78125" stop-color="#CCD0D5"/>
<stop offset="0.789062" stop-color="#CCD1D5"/>
<stop offset="0.796875" stop-color="#CDD1D6"/>
<stop offset="0.804688" stop-color="#CDD2D6"/>
<stop offset="0.8125" stop-color="#CED2D7"/>
<stop offset="0.820312" stop-color="#CFD3D7"/>
<stop offset="0.828125" stop-color="#CFD3D7"/>
<stop offset="0.835938" stop-color="#D0D4D8"/>
<stop offset="0.84375" stop-color="#D0D4D8"/>
<stop offset="0.851562" stop-color="#D1D5D9"/>
<stop offset="0.859375" stop-color="#D1D5D9"/>
<stop offset="0.867188" stop-color="#D2D5DA"/>
<stop offset="0.875" stop-color="#D3D6DA"/>
<stop offset="0.882812" stop-color="#D3D6DA"/>
<stop offset="0.890625" stop-color="#D4D7DB"/>
<stop offset="0.898438" stop-color="#D4D7DB"/>
<stop offset="0.90625" stop-color="#D5D8DC"/>
<stop offset="0.914062" stop-color="#D5D8DC"/>
<stop offset="0.921875" stop-color="#D6D9DC"/>
<stop offset="0.929688" stop-color="#D7D9DD"/>
<stop offset="0.9375" stop-color="#D7DADD"/>
<stop offset="0.945312" stop-color="#D8DADE"/>
<stop offset="0.953125" stop-color="#D8DBDE"/>
<stop offset="0.960938" stop-color="#D9DBDF"/>
<stop offset="0.96875" stop-color="#D9DCDF"/>
<stop offset="0.976562" stop-color="#DADCDF"/>
<stop offset="0.984375" stop-color="#DBDDE0"/>
<stop offset="0.992188" stop-color="#DBDDE0"/>
<stop offset="1" stop-color="#DCDEE1"/>
</linearGradient>
<radialGradient id="paint2_radial_60_5067" cx="0" cy="0" r="1" gradientUnits="userSpaceOnUse" gradientTransform="translate(17.998 6.03916) rotate(-171.417) scale(6.66045 13.2778)">
<stop stop-color="#EE352C"/>
<stop offset="0.0078125" stop-color="#ED352C"/>
<stop offset="0.0195312" stop-color="#EC342C"/>
<stop offset="0.03125" stop-color="#EB342C"/>
<stop offset="0.0429688" stop-color="#EB342C"/>
<stop offset="0.0546875" stop-color="#EA342B"/>
<stop offset="0.0664062" stop-color="#E9332B"/>
<stop offset="0.078125" stop-color="#E8332B"/>
<stop offset="0.0898438" stop-color="#E7332B"/>
<stop offset="0.101562" stop-color="#E7322B"/>
<stop offset="0.113281" stop-color="#E6322B"/>
<stop offset="0.125" stop-color="#E5322B"/>
<stop offset="0.136719" stop-color="#E4322B"/>
<stop offset="0.148438" stop-color="#E3312B"/>
<stop offset="0.160156" stop-color="#E2312A"/>
<stop offset="0.171875" stop-color="#E2312A"/>
<stop offset="0.183594" stop-color="#E1302A"/>
<stop offset="0.195312" stop-color="#E0302A"/>
<stop offset="0.207031" stop-color="#DF302A"/>
<stop offset="0.21875" stop-color="#DE302A"/>
<stop offset="0.230469" stop-color="#DE2F2A"/>
<stop offset="0.242188" stop-color="#DD2F2A"/>
<stop offset="0.253906" stop-color="#DC2F29"/>
<stop offset="0.261719" stop-color="#DC2F29"/>
<stop offset="0.269531" stop-color="#DB2E29"/>
<stop offset="0.277344" stop-color="#DB2E29"/>
<stop offset="0.285156" stop-color="#DA2E29"/>
<stop offset="0.292969" stop-color="#D92E29"/>
<stop offset="0.300781" stop-color="#D92E29"/>
<stop offset="0.308594" stop-color="#D82E29"/>
<stop offset="0.316406" stop-color="#D82D29"/>
<stop offset="0.324219" stop-color="#D72D29"/>
<stop offset="0.332031" stop-color="#D72D29"/>
<stop offset="0.339844" stop-color="#D62D29"/>
<stop offset="0.347656" stop-color="#D62D29"/>
<stop offset="0.355469" stop-color="#D52C28"/>
<stop offset="0.363281" stop-color="#D52C28"/>
<stop offset="0.371094" stop-color="#D42C28"/>
<stop offset="0.378906" stop-color="#D42C28"/>
<stop offset="0.386719" stop-color="#D32C28"/>
<stop offset="0.394531" stop-color="#D22B28"/>
<stop offset="0.402344" stop-color="#D22B28"/>
<stop offset="0.410156" stop-color="#D12B28"/>
<stop offset="0.417969" stop-color="#D12B28"/>
<stop offset="0.425781" stop-color="#D02B28"/>
<stop offset="0.433594" stop-color="#D02B28"/>
<stop offset="0.441406" stop-color="#CF2A28"/>
<stop offset="0.449219" stop-color="#CF2A27"/>
<stop offset="0.457031" stop-color="#CE2A27"/>
<stop offset="0.464844" stop-color="#CE2A27"/>
<stop offset="0.472656" stop-color="#CD2A27"/>
<stop offset="0.480469" stop-color="#CD2927"/>
<stop offset="0.488281" stop-color="#CC2927"/>
<stop offset="0.496094" stop-color="#CB2927"/>
<stop offset="0.503906" stop-color="#CB2927"/>
<stop offset="0.515625" stop-color="#CA2927"/>
<stop offset="0.527344" stop-color="#C92827"/>
<stop offset="0.539062" stop-color="#C82827"/>
<stop offset="0.550781" stop-color="#C82826"/>
<stop offset="0.5625" stop-color="#C72726"/>
<stop offset="0.574219" stop-color="#C62726"/>
<stop offset="0.585938" stop-color="#C52726"/>
<stop offset="0.597656" stop-color="#C42726"/>
<stop offset="0.609375" stop-color="#C42626"/>
<stop offset="0.621094" stop-color="#C32626"/>
<stop offset="0.632812" stop-color="#C22626"/>
<stop offset="0.640625" stop-color="#C22626"/>
<stop offset="0.648438" stop-color="#C12525"/>
<stop offset="0.65625" stop-color="#C02525"/>
<stop offset="0.664062" stop-color="#C02525"/>
<stop offset="0.671875" stop-color="#BF2525"/>
<stop offset="0.679688" stop-color="#BF2525"/>
<stop offset="0.6875" stop-color="#BE2425"/>
<stop offset="0.695312" stop-color="#BE2425"/>
<stop offset="0.703125" stop-color="#BD2425"/>
<stop offset="0.710938" stop-color="#BD2425"/>
<stop offset="0.71875" stop-color="#BC2425"/>
<stop offset="0.726562" stop-color="#BC2425"/>
<stop offset="0.734375" stop-color="#BB2325"/>
<stop offset="0.742188" stop-color="#BB2325"/>
<stop offset="0.75" stop-color="#BA2324"/>
<stop offset="0.757812" stop-color="#B92324"/>
<stop offset="0.769531" stop-color="#B92224"/>
<stop offset="0.78125" stop-color="#B82224"/>
<stop offset="0.792969" stop-color="#B72224"/>
<stop offset="0.804688" stop-color="#B62224"/>
<stop offset="0.816406" stop-color="#B52124"/>
<stop offset="0.824219" stop-color="#B52124"/>
<stop offset="0.832031" stop-color="#B42124"/>
<stop offset="0.839844" stop-color="#B42124"/>
<stop offset="0.847656" stop-color="#B32123"/>
<stop offset="0.855469" stop-color="#B32023"/>
<stop offset="0.863281" stop-color="#B22023"/>
<stop offset="0.871094" stop-color="#B22023"/>
<stop offset="0.878906" stop-color="#B12023"/>
<stop offset="0.890625" stop-color="#B02023"/>
<stop offset="0.902344" stop-color="#AF1F23"/>
<stop offset="0.914062" stop-color="#AF1F23"/>
<stop offset="0.921875" stop-color="#AE1F23"/>
<stop offset="0.929688" stop-color="#AE1F23"/>
<stop offset="0.9375" stop-color="#AD1E23"/>
<stop offset="0.945312" stop-color="#AC1E22"/>
<stop offset="0.957031" stop-color="#AC1E22"/>
<stop offset="0.964844" stop-color="#AB1E22"/>
<stop offset="0.972656" stop-color="#AB1E22"/>
<stop offset="0.984375" stop-color="#AA1D22"/>
<stop offset="0.992188" stop-color="#A91D22"/>
<stop offset="1" stop-color="#A91D22"/>
</radialGradient>
</defs>
</svg>
