<svg width="24" height="24" viewBox="0 0 24 24" fill="none" xmlns="http://www.w3.org/2000/svg">
<mask id="mask0_60_5066" style="mask-type:luminance" maskUnits="userSpaceOnUse" x="0" y="0" width="24" height="24">
<path d="M0 0H24V24H0V0Z" fill="white"/>
</mask>
<g mask="url(#mask0_60_5066)">
<path d="M24 12.0006C24 12.1969 23.9956 12.3931 23.9856 12.5894C23.9762 12.7856 23.9619 12.9813 23.9425 13.1769C23.9231 13.3725 23.8994 13.5669 23.8706 13.7613C23.8419 13.9556 23.8081 14.1488 23.77 14.3419C23.7312 14.5344 23.6881 14.7256 23.6406 14.9163C23.5931 15.1069 23.5406 15.2963 23.4837 15.4838C23.4262 15.6719 23.365 15.8581 23.2987 16.0431C23.2325 16.2281 23.1619 16.4113 23.0869 16.5925C23.0119 16.7744 22.9319 16.9538 22.8481 17.1313C22.7644 17.3088 22.6756 17.4844 22.5831 17.6575C22.4906 17.8306 22.3937 18.0013 22.2931 18.17C22.1919 18.3381 22.0869 18.5044 21.9781 18.6675C21.8687 18.8306 21.7556 18.9913 21.6387 19.1488C21.5219 19.3069 21.4012 19.4619 21.2762 19.6131C21.1519 19.765 21.0237 19.9138 20.8919 20.0594C20.76 20.205 20.6244 20.3469 20.4856 20.4863C20.3469 20.625 20.2044 20.76 20.0587 20.8919C19.9131 21.0238 19.765 21.1525 19.6131 21.2769C19.4612 21.4013 19.3062 21.5225 19.1487 21.6394C18.9906 21.7563 18.8306 21.8694 18.6669 21.9781C18.5037 22.0875 18.3381 22.1925 18.1694 22.2938C18.0012 22.3944 17.83 22.4913 17.6569 22.5838C17.4837 22.6763 17.3081 22.7644 17.1306 22.8488C16.9531 22.9325 16.7737 23.0119 16.5925 23.0875C16.4106 23.1625 16.2275 23.2331 16.0431 23.2994C15.8581 23.3656 15.6712 23.4269 15.4837 23.4838C15.2956 23.5413 15.1062 23.5931 14.9156 23.6413C14.7256 23.6888 14.5337 23.7319 14.3412 23.77C14.1487 23.8088 13.955 23.8419 13.7606 23.8706C13.5669 23.8994 13.3719 23.9238 13.1762 23.9431C12.9806 23.9625 12.785 23.9769 12.5887 23.9863C12.3925 23.9956 12.1962 24.0006 12 24.0006C11.8037 24.0006 11.6075 23.9956 11.4112 23.9863C11.215 23.9769 11.0194 23.9625 10.8237 23.9431C10.6281 23.9238 10.4337 23.8994 10.2394 23.8706C10.045 23.8419 9.85187 23.8088 9.65875 23.77C9.46625 23.7319 9.275 23.6888 9.08437 23.6413C8.89375 23.5931 8.70437 23.5413 8.51687 23.4838C8.32875 23.4269 8.1425 23.3656 7.9575 23.2994C7.7725 23.2331 7.58937 23.1625 7.4075 23.0875C7.22625 23.0119 7.04687 22.9325 6.86937 22.8488C6.69187 22.7644 6.51625 22.6763 6.34312 22.5838C6.17 22.4913 5.99937 22.3944 5.83062 22.2938C5.6625 22.1925 5.49625 22.0875 5.33312 21.9781C5.17 21.8694 5.00938 21.7563 4.85125 21.6394C4.69375 21.5225 4.53875 21.4013 4.3875 21.2769C4.23562 21.1525 4.08688 21.0238 3.94125 20.8919C3.79562 20.76 3.65375 20.625 3.51437 20.4863C3.37562 20.3469 3.24062 20.205 3.10875 20.0594C2.97687 19.9138 2.84812 19.765 2.72375 19.6131C2.59937 19.4619 2.47812 19.3069 2.36125 19.1488C2.24438 18.9913 2.13125 18.8306 2.0225 18.6675C1.91312 18.5044 1.80812 18.3381 1.70687 18.17C1.60625 18.0013 1.50937 17.8306 1.41687 17.6575C1.32437 17.4844 1.23625 17.3088 1.15187 17.1313C1.06812 16.9538 0.98875 16.7744 0.913125 16.5925C0.838125 16.4113 0.7675 16.2281 0.70125 16.0431C0.635 15.8581 0.57375 15.6719 0.516875 15.4838C0.459375 15.2963 0.4075 15.1069 0.359375 14.9163C0.311875 14.7256 0.26875 14.5344 0.230625 14.3419C0.191875 14.1488 0.15875 13.9556 0.13 13.7613C0.100625 13.5669 0.076875 13.3725 0.0575 13.1769C0.038125 12.9813 0.02375 12.7856 0.014375 12.5894C0.004375 12.3931 0 12.1969 0 12.0006C0 11.8044 0.004375 11.6081 0.014375 11.4119C0.02375 11.2156 0.038125 11.02 0.0575 10.8244C0.076875 10.6288 0.100625 10.4338 0.13 10.24C0.15875 10.0456 0.191875 9.85188 0.230625 9.65938C0.26875 9.46688 0.311875 9.275 0.359375 9.085C0.4075 8.89438 0.459375 8.705 0.516875 8.51688C0.57375 8.32938 0.635 8.1425 0.70125 7.9575C0.7675 7.77313 0.838125 7.58938 0.913125 7.40813C0.98875 7.22688 1.06812 7.0475 1.15187 6.87C1.23625 6.6925 1.32437 6.51688 1.41687 6.34375C1.50937 6.17063 1.60625 5.99938 1.70687 5.83125C1.80812 5.6625 1.91312 5.49688 2.0225 5.33375C2.13125 5.17 2.24438 5.01 2.36125 4.85188C2.47812 4.69438 2.59937 4.53938 2.72375 4.3875C2.84812 4.23563 2.97687 4.0875 3.10875 3.94188C3.24062 3.79625 3.37562 3.65375 3.51437 3.515C3.65375 3.37625 3.79562 3.24063 3.94125 3.10875C4.08688 2.97688 4.23562 2.84875 4.3875 2.72438C4.53875 2.59938 4.69375 2.47875 4.85125 2.36188C5.00938 2.245 5.17 2.13188 5.33312 2.0225C5.49625 1.91375 5.6625 1.80875 5.83062 1.7075C5.99937 1.60688 6.17 1.51 6.34312 1.4175C6.51625 1.325 6.69187 1.23625 6.86937 1.1525C7.04687 1.06875 7.22625 0.98875 7.4075 0.91375C7.58937 0.83875 7.7725 0.768125 7.9575 0.701875C8.1425 0.635625 8.32875 0.57375 8.51687 0.516875C8.70437 0.46 8.89375 0.4075 9.08437 0.36C9.275 0.3125 9.46625 0.269375 9.65875 0.230625C9.85187 0.1925 10.045 0.15875 10.2394 0.13C10.4337 0.10125 10.6281 0.0775 10.8237 0.058125C11.0194 0.0387501 11.215 0.024375 11.4112 0.015C11.6075 0.005 11.8037 0 12 0C12.1962 0 12.3925 0.005 12.5887 0.015C12.785 0.024375 12.9806 0.0387501 13.1762 0.058125C13.3719 0.0775 13.5669 0.10125 13.7606 0.13C13.955 0.15875 14.1487 0.1925 14.3412 0.230625C14.5337 0.269375 14.7256 0.3125 14.9156 0.36C15.1062 0.4075 15.2956 0.46 15.4837 0.516875C15.6712 0.57375 15.8581 0.635625 16.0431 0.701875C16.2275 0.768125 16.4106 0.83875 16.5925 0.91375C16.7737 0.98875 16.9531 1.06875 17.1306 1.1525C17.3081 1.23625 17.4837 1.325 17.6569 1.4175C17.83 1.51 18.0012 1.60688 18.1694 1.7075C18.3381 1.80875 18.5037 1.91375 18.6669 2.0225C18.8306 2.13188 18.9906 2.245 19.1487 2.36188C19.3062 2.47875 19.4612 2.59938 19.6131 2.72438C19.765 2.84875 19.9131 2.97688 20.0587 3.10875C20.2044 3.24063 20.3469 3.37625 20.4856 3.515C20.6244 3.65375 20.76 3.79625 20.8919 3.94188C21.0237 4.0875 21.1519 4.23563 21.2762 4.3875C21.4012 4.53938 21.5219 4.69438 21.6387 4.85188C21.7556 5.01 21.8687 5.17 21.9781 5.33375C22.0869 5.49688 22.1919 5.6625 22.2931 5.83125C22.3937 5.99938 22.4906 6.17063 22.5831 6.34375C22.6756 6.51688 22.7644 6.6925 22.8481 6.87C22.9319 7.0475 23.0119 7.22688 23.0869 7.40813C23.1619 7.58938 23.2325 7.77313 23.2987 7.9575C23.365 8.1425 23.4262 8.32938 23.4837 8.51688C23.5406 8.705 23.5931 8.89438 23.6406 9.085C23.6881 9.275 23.7312 9.46688 23.77 9.65938C23.8081 9.85188 23.8419 10.0456 23.8706 10.24C23.8994 10.4338 23.9231 10.6288 23.9425 10.8244C23.9619 11.02 23.9762 11.2156 23.9856 11.4119C23.9956 11.6081 24 11.8044 24 12.0006Z" fill="#1A171B"/>
</g>
<path d="M17.2463 4.4405C16.0263 4.483 14.9632 5.15425 14.1713 6.08487C13.2951 7.10425 12.7113 8.31175 12.2901 9.5455C11.5382 8.92925 10.9582 8.13112 9.76008 7.78362C9.52258 7.7105 9.27945 7.66612 9.0307 7.65175C8.78258 7.63675 8.5357 7.65175 8.2907 7.69675C8.04633 7.74175 7.81008 7.81487 7.5832 7.91612C7.3557 8.018 7.14383 8.14487 6.94758 8.29737C6.5207 8.61675 6.22633 9.098 6.08695 9.55112C5.7257 10.728 6.46695 11.7755 6.80445 12.1511L7.54195 12.9411C7.69383 13.0949 8.05945 13.5011 7.8807 14.0792C7.68758 14.7092 6.92758 15.1186 6.14883 14.8774C5.8007 14.7717 5.30133 14.5124 5.4132 14.1474C5.4582 13.998 5.56695 13.8855 5.62383 13.7567C5.67633 13.6455 5.70133 13.5624 5.71758 13.513C5.8607 13.0486 5.66508 12.4442 5.1682 12.2905C4.70383 12.1474 4.22883 12.2605 4.04445 12.8599C3.83633 13.5392 4.16008 14.7717 5.90133 15.2992C7.94133 15.9261 9.66633 14.8149 9.91133 13.3655C10.0645 12.4586 9.6557 11.7842 8.9057 10.9261L8.29383 10.2505C7.93258 9.88862 7.79695 9.24925 8.18008 8.76487C8.5032 8.3555 8.96445 8.18112 9.71883 8.3855C10.8207 8.68362 11.3107 9.44862 12.1313 10.0661C11.7932 11.1755 11.5707 12.2886 11.372 13.288L11.2501 14.0324C10.6645 17.1049 10.2176 18.7917 9.05445 19.7592C8.81945 19.9255 8.48508 20.1749 7.98133 20.193C7.71633 20.2017 7.63133 20.0192 7.62883 19.9399C7.62258 19.7549 7.77883 19.6692 7.88195 19.5855C8.03695 19.5011 8.27195 19.3599 8.2557 18.9111C8.23758 18.3792 7.79883 17.9167 7.16258 17.9392C6.6857 17.9555 5.95883 18.4049 5.98633 19.2261C6.01508 20.0755 6.8057 20.7105 7.9982 20.6699C8.63508 20.6486 10.0582 20.3899 11.4613 18.7211C13.0945 16.8092 13.5507 14.6186 13.8951 13.0142L14.2782 10.8961L14.9663 10.9449C16.9995 10.9874 18.017 9.93487 18.0326 9.16862C18.0413 8.70487 17.7276 8.24862 17.2876 8.25862C16.9713 8.268 16.577 8.47737 16.482 8.913C16.3888 9.3405 17.1288 9.72612 16.5507 10.1005C16.1395 10.3661 15.4032 10.5536 14.3657 10.4011L14.5557 9.35862C14.9401 7.38112 15.4138 4.94925 17.2163 4.89112C17.3476 4.88487 17.8282 4.89737 17.8401 5.21487C17.8432 5.3205 17.8176 5.34737 17.6926 5.5905C17.5663 5.77112 17.5182 5.94112 17.5245 6.12612C17.5426 6.63237 17.9257 6.963 18.4807 6.943C19.2238 6.91862 19.4382 6.19612 19.4257 5.823C19.3957 4.94987 18.4751 4.398 17.257 4.43862L17.2463 4.4405Z" fill="white"/>
</svg>
