<svg width="40" height="24" viewBox="0 0 40 24" fill="none" xmlns="http://www.w3.org/2000/svg">
<mask id="mask0_60_5080" style="mask-type:luminance" maskUnits="userSpaceOnUse" x="0" y="0" width="40" height="24">
<path d="M0 0H39.5604V24H0V0Z" fill="white"/>
</mask>
<g mask="url(#mask0_60_5080)">
<path d="M19.7812 0.132812C14.5065 0.132812 11.2108 2.76915 9.89109 8.04387C11.8691 5.40651 14.1768 4.41853 16.8142 5.07787C18.3193 5.45287 19.3949 6.54387 20.5868 7.75438C22.5257 9.7221 24.7695 11.9999 29.6713 11.9999C34.946 11.9999 38.2417 9.36358 39.5614 4.0868C37.5834 6.72519 35.2757 7.7142 32.6383 7.05486C31.1332 6.67883 30.0587 5.58783 28.8657 4.37835C26.9278 2.41063 24.684 0.132812 19.7812 0.132812ZM9.89109 11.9999C4.61636 11.9999 1.32069 14.6362 0.000976562 19.913C1.979 17.2746 4.28669 16.2856 6.92405 16.945C8.42921 17.32 9.50475 18.412 10.6967 19.6215C12.6356 21.5892 14.8794 23.867 19.7812 23.867C25.0559 23.867 28.3516 21.2307 29.6713 15.956C27.6933 18.5933 25.3856 19.5813 22.7482 18.922C21.2431 18.547 20.1686 17.456 18.9756 16.2455C17.0377 14.2777 14.7939 11.9999 9.89109 11.9999Z" fill="#38BDF8"/>
</g>
</svg>
