<svg width="25" height="24" viewBox="0 0 25 24" fill="none" xmlns="http://www.w3.org/2000/svg">
<mask id="mask0_60_5065" style="mask-type:luminance" maskUnits="userSpaceOnUse" x="0" y="0" width="25" height="24">
<path d="M0 0H24.6154V24H0V0Z" fill="white"/>
</mask>
<g mask="url(#mask0_60_5065)">
<path d="M12.8646 0H14.5357C14.5357 0.744872 14.5357 1.48718 14.5357 2.23269C17.5255 2.24936 20.5126 2.20192 23.5005 2.24936C24.137 2.18526 24.6376 2.67885 24.5787 3.31538C24.6261 8.81282 24.5678 14.3135 24.6069 19.8109C24.5787 20.375 24.6626 21 24.3357 21.4994C23.928 21.7897 23.3998 21.7532 22.9242 21.7756C20.1274 21.7615 17.3325 21.7673 14.5357 21.7673C14.5357 22.5122 14.5357 23.2545 14.5357 24H12.7889C8.53572 23.2244 4.27098 22.5122 0.00944038 21.7673C0.00687628 15.2564 0.00944038 8.74615 0.00944038 2.23782C4.29342 1.49038 8.58059 0.761538 12.8646 0Z" fill="#2A5699"/>
</g>
<path d="M14.5361 3.06982C17.6099 3.06982 20.6836 3.06982 23.7579 3.06982C23.7579 9.02239 23.7579 14.9775 23.7579 20.9301C20.6836 20.9301 17.6099 20.9301 14.5361 20.9301C14.5361 20.1852 14.5361 19.4429 14.5361 18.6974C16.9586 18.6974 19.3784 18.6974 21.8015 18.6974C21.8015 18.3262 21.8015 17.9525 21.8015 17.5814C19.3784 17.5814 16.9586 17.5814 14.5361 17.5814C14.5361 17.1153 14.5361 16.6519 14.5361 16.1859C16.9586 16.1859 19.3784 16.1859 21.8015 16.1859C21.8015 15.8147 21.8015 15.441 21.8015 15.0698C19.3784 15.0698 16.9586 15.0698 14.5361 15.0698C14.5361 14.6038 14.5361 14.1403 14.5361 13.6743C16.9586 13.6743 19.3784 13.6743 21.8015 13.6743C21.8015 13.3032 21.8015 12.9294 21.8015 12.5583C19.3784 12.5583 16.9586 12.5583 14.5361 12.5583C14.5361 12.0916 14.5361 11.6288 14.5361 11.1628C16.9586 11.1628 19.3784 11.1628 21.8015 11.1628C21.8015 10.7916 21.8015 10.4173 21.8015 10.0461C19.3784 10.0461 16.9586 10.0461 14.5361 10.0461C14.5361 9.58008 14.5361 9.11726 14.5361 8.65124C16.9586 8.65124 19.3784 8.65124 21.8015 8.65124C21.8015 8.28008 21.8015 7.90572 21.8015 7.53457C19.3784 7.53457 16.9586 7.53457 14.5361 7.53457C14.5361 7.06854 14.5361 6.60572 14.5361 6.13906C16.9586 6.13906 19.3784 6.13906 21.8015 6.13906C21.8015 5.7679 21.8015 5.39418 21.8015 5.02303C19.3784 5.02303 16.9586 5.02303 14.5361 5.02303C14.5361 4.37303 14.5361 3.71982 14.5361 3.06982Z" fill="white"/>
<path d="M5.78335 8.0006C6.31412 7.96983 6.84489 7.94803 7.3763 7.91983C7.74746 9.8038 8.12758 11.6846 8.53015 13.5596C8.84617 11.623 9.19553 9.69162 9.53335 7.75829C10.0923 7.73842 10.6513 7.70765 11.2071 7.67432C10.5757 10.3782 10.0225 13.1051 9.33207 15.7923C8.86541 16.0352 8.16669 15.7814 7.61348 15.8205C7.24169 13.973 6.80899 12.1365 6.4763 10.2807C6.14938 12.0833 5.72438 13.8698 5.35002 15.6615C4.81348 15.6333 4.27438 15.6 3.73464 15.5634C3.27117 13.1077 2.7263 10.6685 2.29297 8.20701C2.77053 8.18521 3.2513 8.16534 3.72951 8.14868C4.01733 9.92624 4.34425 11.6955 4.59553 13.4762C4.98976 11.6512 5.39233 9.8256 5.78335 8.0006Z" fill="white"/>
</svg>
