<svg width="26" height="20" viewBox="0 0 26 20" fill="none" xmlns="http://www.w3.org/2000/svg">
<path d="M9.6962 3.58449C9.91212 3.61725 10.2 3.6618 10.4153 3.69849C10.3494 3.63297 10.2559 3.55108 10.1785 3.49866C9.84889 3.40694 9.51256 3.3388 9.17286 3.29556C8.98182 3.28639 8.72687 3.27591 8.53516 3.27132C8.6253 3.29229 8.74504 3.32308 8.83114 3.35649C9.12241 3.40825 9.41166 3.4849 9.6962 3.58449Z" fill="#101828"/>
<path d="M8.90357 3.73708C9.11345 3.77049 9.39261 3.8157 9.60181 3.85107C9.59373 3.77835 9.57692 3.68204 9.55001 3.61391C9.2796 3.5117 9.00447 3.43243 8.72733 3.37739C8.55042 3.36757 8.31498 3.35446 8.13807 3.34726C8.18179 3.37674 8.2383 3.42194 8.26924 3.46453C8.48181 3.53201 8.6937 3.62308 8.90357 3.73708Z" fill="url(#paint0_linear_1_1323)"/>
<path d="M7.95245 3.92191C8.14147 3.95925 8.39372 4.00904 8.58275 4.04639C8.62849 3.9658 8.68634 3.85639 8.71997 3.76991C8.52691 3.65263 8.33251 3.55829 8.13811 3.48753C7.98878 3.47312 7.78899 3.45412 7.63966 3.44102C7.63293 3.48884 7.61544 3.55174 7.59459 3.59498C7.71163 3.68081 7.83137 3.79022 7.95245 3.92191Z" fill="#101828"/>
<path d="M6.89755 4.13574C7.05429 4.17964 7.26416 4.23729 7.42157 4.27856C7.51978 4.18619 7.6496 4.06105 7.74243 3.96343C7.64153 3.82781 7.54198 3.71447 7.44578 3.62471C7.33277 3.6044 7.18344 3.57689 7.0711 3.55461C7.00518 3.61423 6.91572 3.69088 6.84643 3.74657C6.85854 3.85402 6.87536 3.98374 6.89755 4.13574Z" fill="url(#paint1_linear_1_1323)"/>
<path d="M5.82733 4.3595C5.93361 4.41584 6.07756 4.48594 6.18788 4.53442C6.33453 4.42894 6.5296 4.28808 6.67557 4.18129C6.67423 4.02536 6.67893 3.8904 6.6897 3.77902C6.62176 3.75216 6.53162 3.71482 6.46839 3.67944C6.35403 3.74692 6.20201 3.83733 6.08833 3.90481C5.99281 4.03454 5.90536 4.18653 5.82733 4.3595Z" fill="url(#paint2_linear_1_1323)"/>
<path d="M4.89692 4.56196C4.93796 4.63075 5.00052 4.71789 5.055 4.77686C5.22519 4.66482 5.45255 4.5161 5.62341 4.40472C5.72095 4.22783 5.8279 4.0719 5.9436 3.93759C5.92679 3.89894 5.90997 3.84129 5.91468 3.79935C5.76804 3.87339 5.57363 3.97363 5.42901 4.04897C5.23999 4.199 5.0624 4.37 4.89692 4.56196Z" fill="url(#paint3_linear_1_1323)"/>
<path d="M4.15865 4.72837C4.13981 4.80372 4.12165 4.90658 4.12232 4.98389C4.30327 4.86792 4.54611 4.71396 4.72907 4.59996C4.91002 4.40538 5.10375 4.23045 5.30959 4.07714C5.34861 4.02014 5.40713 3.94808 5.45825 3.90091C5.29143 3.97952 5.07012 4.08566 4.90531 4.16821C4.64297 4.33397 4.39341 4.522 4.15865 4.72837Z" fill="url(#paint4_linear_1_1323)"/>
<path d="M3.6532 4.84662C3.58324 4.9318 3.49377 5.04776 3.43592 5.14014C3.61485 5.02286 3.85365 4.86759 4.0346 4.75425C4.28147 4.54459 4.54247 4.3546 4.81759 4.18557C4.90571 4.11874 5.02747 4.03357 5.12231 3.97591C4.94876 4.0565 4.71804 4.16591 4.54718 4.25108C4.23371 4.42929 3.93572 4.62846 3.6532 4.84662Z" fill="#101828"/>
<path d="M13.451 3.93818C13.7039 4.024 14.0409 4.13997 14.2925 4.23169C14.3154 4.09738 14.3409 3.9159 14.345 3.77897C14.0846 3.53656 13.8109 3.3125 13.5263 3.10809C13.2936 3.03602 12.9828 2.94299 12.748 2.87682C12.7507 2.98885 12.746 3.13954 12.7306 3.25026C12.9801 3.46056 13.2203 3.69053 13.451 3.93818Z" fill="url(#paint5_linear_1_1323)"/>
<mask id="mask0_1_1323" style="mask-type:luminance" maskUnits="userSpaceOnUse" x="13" y="0" width="3" height="2">
<path d="M15.1292 1.43433L13.2349 1.43433V0.00017786L15.1292 0.00017786V1.43433Z" fill="white"/>
</mask>
<g mask="url(#mask0_1_1323)">
<path d="M13.8347 1.14029C14.1119 1.22088 14.4805 1.32898 14.7563 1.41284C14.8438 1.26543 14.9574 1.06626 15.0334 0.912299C14.8121 0.662682 14.5821 0.430755 14.3426 0.218483C14.091 0.152966 13.7554 0.066485 13.5031 0.0042448C13.4399 0.132001 13.3504 0.299723 13.2764 0.421583C13.4681 0.643027 13.6545 0.882816 13.8347 1.14029Z" fill="#101828"/>
</g>
<path d="M9.26992 6.11333C9.55312 6.19195 9.93116 6.29743 10.2144 6.37671C10.3603 6.21554 10.5527 5.99868 10.6926 5.83227C10.5238 5.57283 10.3496 5.33042 10.1713 5.10635C9.91771 5.0428 9.57935 4.95959 9.32508 4.89735C9.20131 5.03756 9.03382 5.22166 8.90466 5.35662C9.02709 5.59183 9.14952 5.84472 9.26992 6.11333Z" fill="#101828"/>
<path d="M7.31573 6.51112C7.59085 6.59039 7.95746 6.69653 8.23258 6.77515C8.429 6.60153 8.69 6.36895 8.88306 6.1914C8.77543 5.92016 8.6678 5.66399 8.56017 5.42617C8.31936 5.36262 7.99849 5.27745 7.75835 5.21259C7.58143 5.36327 7.34533 5.5631 7.16572 5.71051C7.21146 5.96078 7.26191 6.22809 7.31573 6.51112Z" fill="url(#paint6_linear_1_1323)" fill-opacity="0.4"/>
<path d="M5.32793 6.92765C5.56471 7.0161 5.88154 7.13075 6.12101 7.21265C6.3551 7.02855 6.66722 6.78221 6.90063 6.59745C6.86095 6.31245 6.82597 6.04187 6.79637 5.78767C6.58313 5.72084 6.29927 5.63043 6.08805 5.55902C5.88086 5.7156 5.60372 5.9246 5.39587 6.08118C5.36425 6.34849 5.34138 6.63086 5.32793 6.92765Z" fill="url(#paint7_linear_1_1323)" fill-opacity="0.4"/>
<path d="M3.60348 7.29914C3.77568 7.40069 4.00843 7.53238 4.18601 7.62476C4.41472 7.43869 4.72011 7.19169 4.95017 7.00825C4.9764 6.70884 5.0134 6.42319 5.05981 6.15326C4.90779 6.07595 4.70532 5.97047 4.558 5.88465C4.3488 6.04189 4.06964 6.25285 3.86178 6.41271C3.76156 6.69377 3.67545 6.9899 3.60348 7.29914Z" fill="#101828"/>
<path d="M2.23582 7.6051C2.33807 7.72041 2.48 7.86978 2.59369 7.97461C2.80154 7.79051 3.08137 7.54679 3.29327 7.36662C3.37533 7.05476 3.47287 6.75666 3.58521 6.47232C3.49439 6.38257 3.37735 6.26071 3.29932 6.16112C3.10155 6.3164 2.83854 6.52474 2.64414 6.6846C2.49077 6.97811 2.35421 7.28538 2.23582 7.6051Z" fill="url(#paint8_linear_1_1323)" fill-opacity="0.4"/>
<path d="M1.29817 7.83071C1.32642 7.95781 1.37284 8.12619 1.4206 8.24805C1.59415 8.06853 1.82689 7.83267 2.0065 7.65906C2.13229 7.33803 2.27691 7.02814 2.4397 6.73266C2.41145 6.62783 2.37983 6.48501 2.37176 6.37691C2.2009 6.52694 1.97488 6.72938 1.8094 6.88531C1.61904 7.18734 1.44818 7.50313 1.29817 7.83071Z" fill="url(#paint9_linear_1_1323)" fill-opacity="0.4"/>
<path d="M0.868076 7.95474C0.824352 8.09233 0.772556 8.27905 0.74834 8.42188C0.869421 8.25153 1.03557 8.02681 1.16674 7.86368C1.32078 7.53544 1.49635 7.21834 1.6921 6.91435C1.7291 6.79249 1.78627 6.63066 1.84009 6.51405C1.71228 6.65556 1.54478 6.84687 1.42639 6.99559C1.21921 7.30286 1.03221 7.62323 0.868076 7.95474Z" fill="url(#paint10_linear_1_1323)" fill-opacity="0.4"/>
<path d="M16.1139 8.06301C16.3527 8.18945 16.6695 8.36242 16.9023 8.5C17.0045 8.31197 17.137 8.05842 17.2258 7.86449C17.0859 7.50743 16.9251 7.16413 16.7462 6.83589C16.5189 6.71272 16.2128 6.55286 15.98 6.43886C15.8926 6.61838 15.7708 6.85489 15.6713 7.02785C15.8347 7.35871 15.9827 7.70463 16.1139 8.06301Z" fill="url(#paint11_linear_1_1323)"/>
<path d="M20.1466 5.51483C20.4339 5.63144 20.8146 5.78999 21.0978 5.91382C21.2633 5.71137 21.4805 5.43883 21.6379 5.23049C21.5095 4.87211 21.3655 4.52553 21.2068 4.19336C20.9323 4.08264 20.5644 3.9372 20.2865 3.83303C20.1338 4.02564 19.9267 4.2805 19.7659 4.46788C19.9038 4.80398 20.0309 5.15318 20.1466 5.51483Z" fill="url(#paint12_linear_1_1323)"/>
<path d="M10.4629 9.55975C10.7817 9.66982 11.2055 9.81723 11.523 9.93188C11.7376 9.71699 12.0221 9.42872 12.2327 9.2099C12.1203 8.84825 11.9979 8.49774 11.8661 8.16033C11.562 8.05747 11.1557 7.92251 10.8497 7.82423C10.6431 8.02799 10.3667 8.29791 10.1561 8.49839C10.2624 8.84104 10.3647 9.19483 10.4629 9.55975Z" fill="url(#paint13_linear_1_1323)" fill-opacity="0.4"/>
<path d="M8.03161 10.0536C8.36727 10.1597 8.81393 10.3012 9.14825 10.4087C9.39848 10.184 9.73213 9.88325 9.98169 9.65657C9.88752 9.29099 9.79065 8.93523 9.69109 8.59193C9.37359 8.49431 8.95048 8.36524 8.63298 8.26959C8.38611 8.48186 8.05583 8.76489 7.80694 8.97585C7.87891 9.32505 7.95425 9.68539 8.03161 10.0536Z" fill="url(#paint14_linear_1_1323)" fill-opacity="0.4"/>
<path d="M5.55974 10.5711C5.87657 10.6812 6.29968 10.8266 6.61852 10.9321C6.88692 10.7002 7.24545 10.391 7.51587 10.161C7.44255 9.79149 7.37326 9.42984 7.30869 9.07933C6.99724 8.98433 6.5822 8.85658 6.27142 8.7583C6.01446 8.97189 5.67275 9.25885 5.41847 9.47571C5.45547 9.83211 5.50256 10.1983 5.55974 10.5711Z" fill="#101828"/>
<path d="M3.41513 11.0358C3.67949 11.1563 4.03332 11.3142 4.30037 11.4282C4.53513 11.1996 4.85062 10.8969 5.09009 10.6735C5.03695 10.2994 4.99524 9.93249 4.9643 9.57477C4.70599 9.47126 4.36293 9.33105 4.10731 9.22098C3.87726 9.42998 3.57187 9.71104 3.34585 9.92463C3.35257 10.2882 3.37544 10.6591 3.41513 11.0358Z" fill="#101828"/>
<path d="M1.71154 11.417C1.91267 11.5507 2.18375 11.7243 2.39094 11.8481C2.57861 11.6274 2.83154 11.3352 3.02661 11.1203C2.99029 10.7429 2.97212 10.3708 2.97078 10.0065C2.77436 9.89249 2.51471 9.73721 2.32434 9.61273C2.13465 9.81452 1.88307 10.0858 1.7001 10.2928C1.68261 10.6616 1.68597 11.0371 1.71154 11.417Z" fill="url(#paint15_linear_1_1323)"/>
<path d="M0.546473 11.6948C0.672936 11.8428 0.847158 12.0354 0.986401 12.1724C1.11354 11.9621 1.28776 11.6843 1.427 11.4812C1.40346 11.1005 1.40346 10.7245 1.42498 10.3549C1.2965 10.2278 1.12901 10.0536 1.01331 9.91533C0.876756 10.106 0.69917 10.3635 0.574053 10.5613C0.539746 10.9341 0.530329 11.3121 0.546473 11.6948Z" fill="url(#paint16_linear_1_1323)"/>
<mask id="mask1_1_1323" style="mask-type:luminance" maskUnits="userSpaceOnUse" x="0" y="9" width="1" height="4">
<path d="M0.490479 12.5005H0.000100046L0.000100046 9.98467H0.490479L0.490479 12.5005Z" fill="white"/>
</mask>
<g mask="url(#mask1_1_1323)">
<path d="M0.0122873 11.8513C0.0539929 12.0138 0.11857 12.228 0.182473 12.3833C0.234942 12.1874 0.312972 11.9286 0.383603 11.7386C0.369476 11.356 0.380912 10.9767 0.417236 10.6039C0.362077 10.4591 0.296828 10.2632 0.263194 10.1125C0.193909 10.2901 0.10848 10.5292 0.058029 10.7133C0.0163232 11.0874 0.00085187 11.468 0.0122873 11.8513Z" fill="url(#paint17_linear_1_1323)"/>
</g>
<path d="M17.1131 12.035C17.2773 12.1654 17.4932 12.3423 17.6479 12.4832C17.8134 12.2938 18.0313 12.039 18.1887 11.8431C18.215 11.4703 18.2183 11.0909 18.1982 10.7083C18.032 10.5576 17.806 10.3617 17.6297 10.2222C17.4703 10.4305 17.253 10.7057 17.0849 10.9068C17.1145 11.2881 17.1239 11.6649 17.1131 12.035Z" fill="url(#paint18_linear_1_1323)" fill-opacity="0.4"/>
<mask id="mask2_1_1323" style="mask-type:luminance" maskUnits="userSpaceOnUse" x="24" y="7" width="2" height="3">
<path d="M25.8313 9.98535L24.2552 9.98535V7.63725L25.8313 7.63725V9.98535Z" fill="white"/>
</mask>
<g mask="url(#mask2_1_1323)">
<path d="M24.3834 9.47892C24.6094 9.59554 24.9088 9.75475 25.1294 9.87988C25.34 9.6794 25.6191 9.40948 25.825 9.20441C25.831 8.8349 25.8182 8.45884 25.7859 8.07819C25.5525 7.94323 25.2397 7.76633 25.0023 7.63989C24.7917 7.85805 24.5092 8.14829 24.294 8.36187C24.339 8.74056 24.3686 9.11334 24.3834 9.47892Z" fill="#101828"/>
</g>
<path d="M11.2646 13.6094C11.541 13.7155 11.909 13.8596 12.1834 13.9717C12.4222 13.7627 12.7397 13.4829 12.9758 13.2713C12.9543 12.9064 12.9207 12.5349 12.8722 12.1575C12.587 12.035 12.2063 11.8745 11.9184 11.7579C11.6749 11.9839 11.348 12.284 11.1018 12.5074C11.1643 12.8821 11.2181 13.2503 11.2646 13.6094Z" fill="#101828"/>
<path d="M8.91327 14.0894C9.22875 14.187 9.64917 14.3181 9.96398 14.4189C10.2142 14.2054 10.5485 13.9197 10.7981 13.7048C10.7456 13.3471 10.6858 12.9802 10.6192 12.6061C10.297 12.4941 9.86644 12.346 9.54222 12.2373C9.28122 12.4672 8.93143 12.7745 8.66909 13.0038C8.75182 13.374 8.83322 13.7369 8.91327 14.0894Z" fill="url(#paint19_linear_1_1323)" fill-opacity="0.4"/>
<path d="M6.5247 14.5884C6.84759 14.6854 7.27877 14.8131 7.60233 14.9075C7.84583 14.6919 8.17073 14.405 8.41626 14.192C8.32881 13.8409 8.24136 13.4799 8.15526 13.1097C7.81287 13.0055 7.35613 12.866 7.01441 12.7599C6.76754 12.9865 6.44062 13.2899 6.19778 13.5205C6.3007 13.8867 6.40968 14.2431 6.5247 14.5884Z" fill="#101828"/>
<path d="M4.44881 15.0356C4.74411 15.1371 5.1383 15.2714 5.43495 15.3684C5.62195 15.1607 5.87487 14.8869 6.0686 14.6851C5.94685 14.3411 5.8325 13.9854 5.72621 13.6198C5.41544 13.5123 5.00242 13.3662 4.69366 13.2529C4.49791 13.4698 4.23961 13.7606 4.05058 13.9827C4.17032 14.345 4.30418 14.6969 4.44881 15.0356Z" fill="url(#paint20_linear_1_1323)"/>
<path d="M2.80311 15.4039C3.05671 15.514 3.39506 15.6581 3.65202 15.761C3.77445 15.5651 3.94195 15.307 4.07446 15.1176C3.92446 14.7802 3.78656 14.4297 3.66346 14.0674C3.39843 13.9527 3.04595 13.7968 2.78495 13.6736C2.64974 13.8781 2.47283 14.1532 2.34771 14.3642C2.48225 14.7239 2.63427 15.0711 2.80311 15.4039Z" fill="url(#paint21_linear_1_1323)"/>
<path d="M1.67666 15.6726C1.8724 15.7944 2.13744 15.9523 2.33991 16.0637C2.38902 15.8822 2.46234 15.6425 2.52759 15.4662C2.35471 15.134 2.19932 14.7875 2.06277 14.4284C1.85559 14.304 1.58114 14.1336 1.38068 13.9973C1.31409 14.1886 1.23135 14.4461 1.18224 14.642C1.32619 14.9991 1.49167 15.343 1.67666 15.6726Z" fill="url(#paint22_linear_1_1323)" fill-opacity="0.4"/>
<path d="M1.15799 15.8246C1.28109 15.9609 1.45128 16.1372 1.58716 16.261C1.55689 16.0985 1.52594 15.8803 1.5172 15.7152C1.3302 15.3863 1.1627 15.043 1.0174 14.686C0.878833 14.5484 0.698557 14.3591 0.574785 14.2084C0.586894 14.3866 0.61111 14.6244 0.646089 14.7987C0.794077 15.1551 0.965608 15.4971 1.15799 15.8246Z" fill="url(#paint23_linear_1_1323)"/>
<path d="M17.2272 15.6103C17.2871 15.7157 17.3631 15.8599 17.4061 15.9739C17.5931 15.8238 17.8413 15.6221 18.0243 15.4681C18.1985 15.1641 18.3546 14.847 18.4905 14.5181C18.4246 14.3871 18.329 14.2148 18.2463 14.0929C18.0526 14.2705 17.7929 14.505 17.5945 14.678C17.4889 15.001 17.3658 15.3128 17.2272 15.6103Z" fill="url(#paint24_linear_1_1323)" fill-opacity="0.4"/>
<path d="M13.0139 16.7462C13.1336 16.8379 13.2911 16.9637 13.402 17.0659C13.6072 16.91 13.8796 16.701 14.0828 16.5431C14.2113 16.2476 14.3243 15.9377 14.4211 15.616C14.2839 15.4988 14.0969 15.3461 13.9516 15.2387C13.733 15.4215 13.4411 15.6639 13.2204 15.8447C13.1646 16.1585 13.0953 16.4599 13.0139 16.7462Z" fill="url(#paint25_linear_1_1323)"/>
<path d="M20.563 15.6167C20.7386 15.6966 20.9727 15.806 21.1449 15.8938C21.3507 15.7352 21.6259 15.5243 21.8317 15.3657C21.9003 15.0814 21.9568 14.7826 22.0012 14.4714C21.8021 14.3673 21.5344 14.233 21.3312 14.1373C21.1052 14.3221 20.8032 14.5684 20.5765 14.7532C20.5799 15.0552 20.5752 15.3435 20.563 15.6167Z" fill="url(#paint26_linear_1_1323)"/>
<path d="M9.69813 17.4114C9.92482 17.4809 10.2269 17.5752 10.4522 17.6499C10.6446 17.4927 10.9022 17.283 11.0959 17.1264C11.0933 16.8565 11.0838 16.5709 11.067 16.2714C10.8148 16.181 10.4784 16.0624 10.2248 15.9766C10.0062 16.1607 9.71495 16.4064 9.497 16.5918C9.56696 16.8801 9.63423 17.1539 9.69813 17.4114Z" fill="url(#paint27_linear_1_1323)" fill-opacity="0.4"/>
<path d="M7.92713 17.7806C8.18341 17.8448 8.52446 17.9299 8.78008 17.9941C8.94354 17.8402 9.16283 17.6364 9.33032 17.4864C9.25027 17.2322 9.16754 16.961 9.08412 16.6753C8.79286 16.596 8.40405 16.4905 8.11278 16.4119C7.92914 16.5882 7.68631 16.8247 7.50872 17.0062C7.64595 17.2807 7.78519 17.5395 7.92713 17.7806Z" fill="#101828"/>
<path d="M6.38937 18.1113C6.64633 18.1749 6.98872 18.2587 7.24635 18.3203C7.34591 18.1768 7.48179 17.9881 7.59009 17.8512C7.43336 17.6134 7.27999 17.3572 7.12998 17.086C6.84342 17.008 6.46067 16.9039 6.17478 16.8239C6.05303 16.9871 5.89361 17.2072 5.78127 17.3775C5.97702 17.6396 6.18017 17.8846 6.38937 18.1113Z" fill="url(#paint28_linear_1_1323)"/>
<path d="M5.16818 18.3867C5.41236 18.4522 5.73793 18.538 5.98279 18.5996C6.0144 18.4699 6.06351 18.2989 6.1106 18.1738C5.88929 17.9497 5.6747 17.7073 5.46887 17.4478C5.20114 17.3679 4.84463 17.2611 4.57825 17.1766C4.52174 17.3279 4.45044 17.531 4.41008 17.6863C4.65157 17.9379 4.90517 18.1718 5.16818 18.3867Z" fill="url(#paint29_linear_1_1323)"/>
<path d="M4.33315 18.5858C4.54908 18.6572 4.83766 18.7496 5.05493 18.8145C5.01995 18.7018 4.98026 18.5491 4.96479 18.4325C4.69236 18.2202 4.43136 17.9883 4.1818 17.7387C3.94771 17.6542 3.63694 17.5395 3.40621 17.4484C3.41765 17.588 3.44052 17.7741 3.47281 17.9103C3.74591 18.1541 4.03381 18.3801 4.33315 18.5858Z" fill="url(#paint30_linear_1_1323)" fill-opacity="0.4"/>
<path d="M3.94831 18.6976C4.11782 18.7782 4.34653 18.8824 4.52075 18.9531C4.42389 18.8575 4.2981 18.7245 4.21469 18.6164C3.90997 18.412 3.61735 18.1879 3.33954 17.9448C3.15455 17.8531 2.91037 17.726 2.73144 17.6238C2.81754 17.7522 2.93863 17.9193 3.0402 18.0359C3.3281 18.2757 3.63148 18.4965 3.94831 18.6976Z" fill="url(#paint31_linear_1_1323)" fill-opacity="0.4"/>
<path d="M12.236 19.0787C12.1708 19.1469 12.0793 19.2347 12.0053 19.293C12.1782 19.2117 12.4069 19.1023 12.5778 19.0178C12.8697 18.8376 13.1475 18.6372 13.4098 18.417C13.4549 18.3299 13.5101 18.2113 13.5383 18.1176C13.3554 18.2342 13.1119 18.3888 12.9275 18.5035C12.7103 18.7151 12.4795 18.9071 12.236 19.0787Z" fill="url(#paint32_linear_1_1323)"/>
<path d="M11.6723 19.1851C11.6602 19.2421 11.636 19.3167 11.6057 19.3672C11.7638 19.2873 11.9737 19.1798 12.1304 19.0979C12.3591 18.9295 12.5757 18.7395 12.7795 18.5305C12.7708 18.4506 12.7506 18.3445 12.7224 18.2685C12.5461 18.3844 12.31 18.5384 12.1331 18.6537C11.9905 18.8509 11.8365 19.0291 11.6723 19.1851Z" fill="url(#paint33_linear_1_1323)" fill-opacity="0.4"/>
<path d="M11.0003 19.3187C11.0379 19.3587 11.087 19.4151 11.1099 19.4648C11.2404 19.3888 11.414 19.2873 11.5444 19.2113C11.6897 19.0586 11.8263 18.8844 11.9514 18.6898C11.8821 18.6184 11.7846 18.5286 11.7066 18.467C11.5498 18.5791 11.3406 18.7291 11.1839 18.8418C11.1308 19.022 11.0695 19.1812 11.0003 19.3187Z" fill="url(#paint34_linear_1_1323)" fill-opacity="0.4"/>
<path d="M10.2524 19.4681C10.3405 19.4982 10.4569 19.5395 10.5423 19.5762C10.6345 19.5061 10.7583 19.4137 10.8518 19.3462C10.8995 19.2126 10.9405 19.0573 10.9749 18.881C10.8477 18.8227 10.6762 18.7487 10.5457 18.6976C10.4199 18.8031 10.2531 18.9446 10.1293 19.0534C10.175 19.2132 10.2161 19.3521 10.2524 19.4681Z" fill="#101828"/>
<path d="M9.49262 19.6271C9.62649 19.6488 9.80407 19.6782 9.93793 19.7012C9.98099 19.6383 10.0429 19.5583 10.094 19.5013C10.0348 19.39 9.97224 19.2557 9.90565 19.0997C9.72739 19.0552 9.48926 18.9962 9.30966 18.9536C9.23095 19.0486 9.12736 19.1764 9.05741 19.2779C9.20338 19.4168 9.34867 19.5335 9.49262 19.6271Z" fill="url(#paint35_linear_1_1323)" fill-opacity="0.4"/>
<path d="M8.83281 19.7705C8.99762 19.7862 9.21825 19.8066 9.38306 19.8203C9.36355 19.7745 9.34673 19.7089 9.3474 19.6591C9.18327 19.57 9.01847 19.4574 8.85299 19.3224C8.65052 19.2844 8.37943 19.2339 8.17695 19.1959C8.15476 19.2798 8.13054 19.3931 8.12718 19.4796C8.35992 19.5995 8.59603 19.6971 8.83281 19.7705Z" fill="url(#paint36_linear_1_1323)"/>
<mask id="mask3_1_1323" style="mask-type:luminance" maskUnits="userSpaceOnUse" x="7" y="19" width="2" height="1">
<path d="M8.92993 20H7.20789V19.3796H8.92993V20Z" fill="white"/>
</mask>
<g mask="url(#mask3_1_1323)">
<path d="M8.31077 19.8872C8.49643 19.8976 8.7433 19.9114 8.92896 19.9199C8.86169 19.8885 8.7729 19.8413 8.71505 19.7954C8.46145 19.726 8.2092 19.6317 7.96031 19.515C7.74572 19.4816 7.45984 19.4358 7.24593 19.4004C7.28158 19.477 7.33741 19.5773 7.38988 19.6441C7.69258 19.7483 7.99999 19.8302 8.31077 19.8872Z" fill="url(#paint37_linear_1_1323)" fill-opacity="0.4"/>
</g>
<mask id="mask4_1_1323" style="mask-type:luminance" maskUnits="userSpaceOnUse" x="6" y="19" width="3" height="1">
<path d="M8.75708 20H6.51842V19.5473H8.75708V20Z" fill="white"/>
</mask>
<g mask="url(#mask4_1_1323)">
<path d="M7.95263 19.9758C8.14434 19.9849 8.40063 19.9954 8.59302 20C8.48068 19.9777 8.33202 19.9443 8.22305 19.9096C7.89949 19.8559 7.57997 19.7772 7.26651 19.675C7.05394 19.6429 6.77142 19.5984 6.55953 19.5624C6.65303 19.6292 6.78285 19.713 6.88443 19.7681C7.23422 19.8611 7.59073 19.9306 7.95263 19.9758Z" fill="#101828"/>
</g>
<path d="M10.6003 4.42728C10.8472 4.48625 11.1755 4.56618 11.4217 4.62842C11.4331 4.52228 11.4425 4.37946 11.4351 4.27267C11.1566 4.09839 10.8694 3.94377 10.5761 3.81209C10.3561 3.77278 10.0622 3.72102 9.84155 3.68433C9.86308 3.75967 9.88326 3.86253 9.88528 3.9405C10.1288 4.08136 10.3676 4.24449 10.6003 4.42728Z" fill="#101828"/>
<path d="M11.3319 1.01773C11.5795 1.07604 11.9091 1.154 12.156 1.21362C12.2259 1.09635 12.3167 0.938455 12.3752 0.815285C12.1553 0.629219 11.9306 0.463463 11.7026 0.319328C11.4873 0.280673 11.2014 0.229571 10.9868 0.192226C10.9478 0.282639 10.89 0.401878 10.8395 0.487049C11.005 0.643633 11.1698 0.820526 11.3319 1.01773Z" fill="url(#paint38_linear_1_1323)"/>
<path d="M7.83605 4.9735C8.06946 5.03443 8.38024 5.11567 8.61366 5.17529C8.73944 5.04557 8.90492 4.87064 9.02466 4.73502C8.87802 4.5352 8.73003 4.35438 8.58204 4.19517C8.38696 4.1539 8.12664 4.09886 7.93156 4.05759C7.83403 4.15979 7.70151 4.29476 7.59926 4.39238C7.67595 4.56599 7.75465 4.76058 7.83605 4.9735Z" fill="url(#paint39_linear_1_1323)" fill-opacity="0.4"/>
<path d="M6.25148 5.30089C6.45598 5.36706 6.73043 5.45419 6.93694 5.51709C7.1125 5.37492 7.34592 5.18427 7.5188 5.03882C7.45489 4.82196 7.39368 4.62345 7.3365 4.4459C7.17237 4.40004 6.95375 4.33845 6.79029 4.28997C6.64096 4.40266 6.43983 4.55204 6.28848 4.66276C6.26897 4.85669 6.25686 5.06961 6.25148 5.30089Z" fill="url(#paint40_linear_1_1323)"/>
<path d="M4.77386 5.61338C4.91713 5.69397 5.11019 5.79683 5.25818 5.8689C5.45998 5.71821 5.72972 5.51773 5.93153 5.36704C5.95507 5.1325 5.98534 4.91498 6.02368 4.71778C5.90933 4.66405 5.75798 4.59068 5.649 4.52844C5.47411 4.64637 5.24069 4.80295 5.06647 4.92153C4.95817 5.13381 4.85996 5.36508 4.77386 5.61338Z" fill="#101828"/>
<path d="M3.54721 5.88395C3.62322 5.97764 3.73085 6.09819 3.8183 6.1814C4.02212 6.02874 4.29455 5.82499 4.50039 5.6743C4.60196 5.42272 4.71497 5.18752 4.84009 4.97197C4.78358 4.90645 4.71093 4.8167 4.66856 4.74201C4.4829 4.8619 4.23603 5.02307 4.05172 5.14559C3.86942 5.37424 3.70125 5.62123 3.54721 5.88395Z" fill="url(#paint41_linear_1_1323)" fill-opacity="0.4"/>
<path d="M2.63265 6.09462C2.64139 6.19748 2.6609 6.33572 2.68915 6.4353C2.88086 6.28265 3.1385 6.08021 3.33357 5.93148C3.49905 5.66614 3.67933 5.41587 3.8744 5.1846C3.8744 5.10336 3.8818 4.99329 3.90063 4.91402C3.71834 5.03391 3.47551 5.19508 3.29523 5.31891C3.05778 5.56066 2.83647 5.81945 2.63265 6.09462Z" fill="url(#paint42_linear_1_1323)" fill-opacity="0.4"/>
<path d="M2.08803 6.23432C2.03556 6.347 1.97031 6.50031 1.93399 6.6189C2.09812 6.47017 2.31943 6.27363 2.48894 6.13015C2.70084 5.85301 2.93022 5.59226 3.17642 5.34854C3.23359 5.25223 3.317 5.12775 3.38696 5.0393C3.22216 5.15592 3.00488 5.31316 2.84479 5.43502C2.57437 5.68529 2.32145 5.95194 2.08803 6.23432Z" fill="url(#paint43_linear_1_1323)"/>
<path d="M17.4096 3.17025C17.6383 3.28228 17.9424 3.43625 18.1664 3.55811C18.1946 3.40152 18.2256 3.19056 18.2336 3.03136C18.017 2.72933 17.783 2.44302 17.5327 2.1744C17.3202 2.06958 17.0343 1.93331 16.817 1.83831C16.8096 1.97851 16.7914 2.16523 16.7652 2.30347C16.9946 2.57602 17.2098 2.86494 17.4096 3.17025Z" fill="url(#paint44_linear_1_1323)" fill-opacity="0.4"/>
<path d="M12.8142 7.131C13.088 7.23451 13.4526 7.37406 13.7236 7.48413C13.8219 7.31313 13.949 7.08252 14.0344 6.90497C13.84 6.59901 13.6308 6.30877 13.4075 6.03557C13.1519 5.94188 12.8095 5.81937 12.5512 5.73223C12.4725 5.88881 12.3615 6.09519 12.2707 6.24588C12.4624 6.52497 12.644 6.82111 12.8142 7.131Z" fill="url(#paint45_linear_1_1323)"/>
<path d="M10.934 7.49533C11.2353 7.59229 11.6376 7.72332 11.9376 7.82422C12.097 7.63881 12.3062 7.38985 12.4583 7.19919C12.2955 6.88734 12.1219 6.58989 11.9389 6.30949C11.6584 6.223 11.2838 6.10966 11.0019 6.02711C10.86 6.1968 10.6676 6.42086 10.5189 6.58531C10.6622 6.87358 10.8015 7.17757 10.934 7.49533Z" fill="url(#paint46_linear_1_1323)"/>
<path d="M8.77317 7.92705C9.08663 8.02074 9.50369 8.14653 9.81648 8.24219C10.0264 8.04433 10.3042 7.77899 10.51 7.57785C10.3856 7.25814 10.2564 6.95283 10.1232 6.66194C9.83532 6.58004 9.45055 6.47063 9.16197 6.38939C8.96623 6.57022 8.70456 6.81 8.50544 6.9869C8.59424 7.28631 8.6837 7.60013 8.77317 7.92705Z" fill="url(#paint47_linear_1_1323)"/>
<path d="M15.7883 5.74779C16.0964 5.84213 16.5074 5.96727 16.8162 6.0603C17.0644 5.85262 17.3947 5.57417 17.6409 5.36452C17.5608 5.03629 17.4821 4.71984 17.4048 4.41847C17.1243 4.33657 16.7503 4.22782 16.4697 4.14527C16.233 4.33461 15.9168 4.58684 15.6787 4.77553C15.709 5.08673 15.7453 5.41169 15.7883 5.74779Z" fill="url(#paint48_linear_1_1323)" fill-opacity="0.4"/>
<path d="M4.29675 8.86527C4.55102 8.97075 4.8914 9.10964 5.14903 9.20923C5.39994 8.99696 5.7356 8.71458 5.98853 8.50493C5.95489 8.16687 5.92933 7.83994 5.91117 7.52546C5.67035 7.43964 5.35016 7.32236 5.11203 7.22933C4.87794 7.41802 4.56649 7.67025 4.33442 7.86156C4.30953 8.18456 4.29675 8.52 4.29675 8.86527Z" fill="url(#paint49_linear_1_1323)" fill-opacity="0.4"/>
<path d="M2.50448 9.25824C2.69417 9.37748 2.95046 9.53276 3.14621 9.64282C3.36953 9.43317 3.66955 9.15604 3.89691 8.95097C3.90498 8.60439 3.92718 8.26698 3.96216 7.94202C3.7839 7.8444 3.54712 7.71206 3.37491 7.60527C3.16033 7.79003 2.87579 8.03833 2.66457 8.22767C2.59394 8.56115 2.54013 8.90511 2.50448 9.25824Z" fill="url(#paint50_linear_1_1323)" fill-opacity="0.4"/>
<path d="M1.16786 9.56655C1.28491 9.7002 1.44702 9.87448 1.57617 9.99634C1.7578 9.79389 2.00332 9.52593 2.19234 9.32873C2.23405 8.97429 2.29459 8.62836 2.37329 8.29357C2.26028 8.18351 2.11297 8.03282 2.01274 7.91227C1.83246 8.09047 1.59366 8.33092 1.41944 8.51502C1.3145 8.8557 1.23042 9.20752 1.16786 9.56655Z" fill="url(#paint51_linear_1_1323)" fill-opacity="0.4"/>
<path d="M0.372273 9.77155C0.40927 9.91831 0.467793 10.1122 0.525643 10.2524C0.65076 10.0592 0.822291 9.80431 0.958171 9.6189C1.02477 9.25856 1.11356 8.90608 1.22388 8.56409C1.17881 8.43699 1.12567 8.26599 1.10145 8.1343C0.970279 8.30268 0.798748 8.53002 0.677667 8.70626C0.552549 9.05219 0.450303 9.40794 0.372273 9.77155Z" fill="url(#paint52_linear_1_1323)"/>
<mask id="mask5_1_1323" style="mask-type:luminance" maskUnits="userSpaceOnUse" x="0" y="8" width="1" height="3">
<path d="M0.836182 10.4895H0.00139463L0.00139463 8.1414H0.836182L0.836182 10.4895Z" fill="white"/>
</mask>
<g mask="url(#mask5_1_1323)">
<path d="M0.0863129 10.386C0.137436 10.2071 0.214121 9.97061 0.283406 9.79765C0.364127 9.43338 0.468391 9.07697 0.595526 8.73039C0.624451 8.58429 0.671538 8.39102 0.719971 8.25016L0.647322 8.40674C0.534986 8.70091 0.389688 9.09532 0.296187 9.39604C0.237664 9.63779 0.156271 9.95948 0.109856 10.2039L0.0863129 10.386Z" fill="#101828"/>
</g>
<path d="M15.758 10.6888C15.9323 10.8323 16.1623 11.0275 16.3258 11.1821C16.4321 10.9921 16.5686 10.7353 16.6594 10.5375C16.6305 10.3442 16.5955 10.1496 16.5531 9.95501C16.5114 9.76043 16.463 9.56912 16.4085 9.38044C16.2397 9.22778 16.0096 9.02992 15.8293 8.88972C15.7385 9.08496 15.6114 9.34309 15.5078 9.53178C15.5603 9.72046 15.608 9.91243 15.6497 10.107C15.6921 10.3016 15.7284 10.4955 15.758 10.6888Z" fill="url(#paint53_linear_1_1323)" fill-opacity="0.4"/>
<path d="M18.692 8.83403C18.9295 8.96375 19.245 9.14065 19.477 9.27954C19.6459 9.07448 19.8672 8.79865 20.0266 8.58638C19.9963 8.39311 19.96 8.19918 19.9176 8.0046C19.8759 7.81001 19.8282 7.61805 19.7764 7.42937C19.5396 7.29244 19.2221 7.11358 18.9806 6.98648C18.8219 7.19613 18.6073 7.47326 18.4418 7.67702C18.4916 7.86636 18.538 8.05832 18.5797 8.2529C18.6221 8.44749 18.6591 8.64076 18.692 8.83403Z" fill="url(#paint54_linear_1_1323)"/>
<path d="M12.0755 11.3873C12.3628 11.5072 12.7455 11.669 13.0301 11.7935C13.246 11.5766 13.5319 11.2851 13.7424 11.0636C13.7095 10.8703 13.6718 10.6764 13.6294 10.4825C13.587 10.2879 13.5413 10.0959 13.4922 9.90594C13.2056 9.78211 12.8229 9.61832 12.5336 9.50105C12.3224 9.72118 12.0399 10.0134 11.8246 10.2302C11.8717 10.4202 11.9161 10.6129 11.9585 10.8074C12.0002 11.0014 12.0392 11.1953 12.0755 11.3873Z" fill="#101828"/>
<path d="M19.7383 12.0895C20.0619 12.2009 20.4931 12.3509 20.8153 12.4656C21.0635 12.2395 21.3924 11.9369 21.6379 11.7076C21.6009 11.5156 21.5619 11.3223 21.5195 11.1277C21.4772 10.9332 21.4334 10.7405 21.387 10.5505C21.0668 10.4352 20.6404 10.2832 20.3188 10.1725C20.0699 10.4012 19.7376 10.7052 19.4881 10.9318C19.5311 11.1225 19.5735 11.3158 19.6159 11.5097C19.6576 11.7043 19.6986 11.8976 19.7383 12.0895Z" fill="#101828"/>
<path d="M7.17758 12.3826C7.52132 12.4901 7.98008 12.6322 8.32382 12.739C8.58818 12.5071 8.94066 12.1972 9.20435 11.964C9.16331 11.772 9.12228 11.5794 9.0799 11.3848C9.03752 11.1902 8.99514 10.9976 8.95344 10.8069C8.61576 10.6975 8.16574 10.5534 7.82738 10.4459C7.55697 10.6792 7.19642 10.991 6.92735 11.2256C6.96636 11.4169 7.00672 11.6102 7.04843 11.8048C7.09081 11.9993 7.13386 12.192 7.17758 12.3826Z" fill="url(#paint55_linear_1_1323)"/>
<path d="M4.81702 12.8838C5.12846 12.9985 5.54485 13.1478 5.85831 13.2566C6.0998 13.0247 6.42336 12.7174 6.66821 12.4901C6.62314 12.2994 6.58009 12.1068 6.53771 11.9122C6.49534 11.7176 6.45565 11.5243 6.41731 11.3324C6.0998 11.2236 5.67737 11.0769 5.36188 10.9635C5.12107 11.1909 4.80222 11.4949 4.56678 11.7268C4.60176 11.9188 4.6401 12.1127 4.68248 12.3073C4.72419 12.5018 4.76926 12.6938 4.81702 12.8838Z" fill="url(#paint56_linear_1_1323)" fill-opacity="0.4"/>
<path d="M2.8572 13.3162C3.12088 13.4393 3.47471 13.6012 3.74243 13.7158C3.93145 13.4931 4.18505 13.1982 4.38013 12.9801C4.33169 12.7907 4.28663 12.5981 4.24425 12.4042C4.20254 12.2096 4.1642 12.0157 4.12989 11.8231C3.86351 11.7058 3.50902 11.5472 3.246 11.4234C3.05093 11.6416 2.79396 11.9344 2.60696 12.1592C2.63858 12.3518 2.67557 12.5457 2.71795 12.7403C2.75966 12.9349 2.80607 13.1268 2.8572 13.3162Z" fill="url(#paint57_linear_1_1323)"/>
<path d="M1.39489 13.6519C1.59804 13.7875 1.87249 13.9637 2.08304 14.0889C2.20815 13.8766 2.37901 13.5968 2.51489 13.3918C2.4631 13.2024 2.41668 13.0105 2.3743 12.8165C2.33193 12.622 2.2956 12.428 2.26399 12.2348C2.05815 12.107 1.78572 11.9334 1.5866 11.7958C1.44871 12.0028 1.26978 12.2806 1.14399 12.4949C1.17358 12.6881 1.20991 12.8827 1.25161 13.0773C1.29399 13.2719 1.34175 13.4632 1.39489 13.6519Z" fill="url(#paint58_linear_1_1323)" fill-opacity="0.4"/>
<path d="M0.524899 13.8775C0.653379 14.0275 0.830965 14.2228 0.974244 14.3604C1.02402 14.1638 1.09802 13.9024 1.16528 13.7104C1.11214 13.5217 1.06371 13.3304 1.022 13.1359C0.979626 12.9413 0.943974 12.7467 0.915049 12.5534C0.778496 12.4126 0.600238 12.2199 0.477139 12.0679C0.408526 12.2612 0.323769 12.5213 0.273992 12.7205C0.302244 12.9144 0.337223 13.109 0.378929 13.3029C0.421307 13.4975 0.469739 13.6895 0.524899 13.8775Z" fill="url(#paint59_linear_1_1323)" fill-opacity="0.4"/>
<mask id="mask6_1_1323" style="mask-type:luminance" maskUnits="userSpaceOnUse" x="0" y="12" width="1" height="3">
<path d="M0.66333 14.5122H0.000747263L0.000747263 12.1641H0.66333L0.66333 14.5122Z" fill="white"/>
</mask>
<g mask="url(#mask6_1_1323)">
<path d="M0.51001 14.5005C0.475703 14.3229 0.439379 14.0851 0.428616 13.9049C0.37413 13.7163 0.325025 13.525 0.283319 13.331C0.240941 13.1358 0.205962 12.9419 0.178382 12.7479C0.119187 12.5887 0.049229 12.3732 0.0135772 12.2074L0.0243399 12.442C0.0647003 12.7243 0.116496 13.1011 0.172328 13.3808C0.242959 13.6501 0.334442 14.0111 0.419872 14.2771L0.51001 14.5005Z" fill="url(#paint60_linear_1_1323)"/>
</g>
<path d="M16.4489 14.5333C16.4577 14.6801 16.461 14.8766 16.4483 15.0227C16.5471 14.8701 16.6756 14.6637 16.7604 14.5032C16.8895 14.1546 16.9965 13.7969 17.0779 13.432C17.0839 13.2682 17.0833 13.0487 17.0651 12.8849C16.975 13.0625 16.8478 13.2957 16.7436 13.4654C16.6682 13.8297 16.57 14.1861 16.4489 14.5333Z" fill="url(#paint61_linear_1_1323)" fill-opacity="0.4"/>
<path d="M14.1536 14.9389C14.2995 15.0516 14.4926 15.2049 14.6291 15.3274C14.8296 15.1492 15.0946 14.9107 15.2904 14.7279C15.3798 14.3859 15.4498 14.0341 15.5002 13.6738C15.3449 13.5381 15.1336 13.3619 14.9688 13.2368C14.7643 13.4373 14.4892 13.7039 14.28 13.9005C14.2538 14.2555 14.2114 14.6028 14.1536 14.9389Z" fill="url(#paint62_linear_1_1323)"/>
<path d="M12.4011 15.2764C12.607 15.3766 12.8794 15.5123 13.0799 15.6204C13.3032 15.4356 13.6005 15.188 13.8218 15.0006C13.8709 14.6658 13.9052 14.3205 13.9241 13.9661C13.7034 13.8455 13.4081 13.6876 13.1835 13.5749C12.9487 13.782 12.6359 14.0578 12.3998 14.2629C12.4112 14.6108 12.4119 14.9495 12.4011 15.2764Z" fill="url(#paint63_linear_1_1323)" fill-opacity="0.4"/>
<path d="M10.3886 15.6809C10.6449 15.7707 10.986 15.8913 11.2402 15.9856C11.4703 15.7976 11.777 15.5453 12.0071 15.356C12.0064 15.031 11.9963 14.6943 11.9761 14.3477C11.703 14.2396 11.3384 14.0981 11.0633 13.9959C10.8164 14.2062 10.4868 14.4866 10.24 14.6969C10.2945 15.0363 10.3442 15.3652 10.3886 15.6809Z" fill="url(#paint64_linear_1_1323)"/>
<path d="M8.22759 16.1271C8.52424 16.2077 8.9191 16.3165 9.21441 16.3997C9.43572 16.2103 9.73169 15.9587 9.95435 15.77C9.89784 15.4569 9.8373 15.13 9.7734 14.7919C9.45993 14.6949 9.0422 14.5665 8.72806 14.4722C8.48523 14.6825 8.16167 14.9629 7.92086 15.1752C8.02176 15.5054 8.124 15.8231 8.22759 16.1271Z" fill="#101828"/>
<path d="M6.21647 16.5538C6.50841 16.6357 6.89721 16.7438 7.18983 16.8237C7.36808 16.6396 7.6089 16.3966 7.79321 16.2177C7.67751 15.9163 7.5645 15.6012 7.45419 15.273C7.13601 15.1806 6.71156 15.0561 6.39405 14.9618C6.20167 15.1609 5.94807 15.4282 5.76174 15.6333C5.90569 15.9537 6.05772 16.2616 6.21647 16.5538Z" fill="#101828"/>
<path d="M4.54641 16.9209C4.8175 17.0068 5.17939 17.1194 5.45183 17.2007C5.56551 17.0284 5.72089 16.801 5.84399 16.6353C5.67515 16.345 5.51438 16.0397 5.36236 15.7207C5.07042 15.625 4.68162 15.496 4.39102 15.3957C4.26052 15.5824 4.08966 15.834 3.96925 16.0273C4.14953 16.3405 4.34259 16.6386 4.54641 16.9209Z" fill="#101828"/>
<path d="M3.30128 17.2079C3.53671 17.3009 3.85152 17.4215 4.08965 17.5073C4.1327 17.3494 4.1966 17.1398 4.25513 16.9865C4.04323 16.7061 3.84278 16.4093 3.65712 16.0974C3.40487 15.9959 3.06988 15.8583 2.82099 15.7495C2.75776 15.9231 2.67905 16.157 2.63331 16.3352C2.83982 16.6425 3.06315 16.9334 3.30128 17.2079Z" fill="url(#paint65_linear_1_1323)"/>
<path d="M2.5601 17.3978C2.74306 17.5013 2.98993 17.635 3.17896 17.728C3.14868 17.5878 3.11572 17.3985 3.10631 17.255C2.8628 16.9825 2.63476 16.6922 2.42354 16.3863C2.2251 16.2762 1.96276 16.1248 1.77105 16.0043C1.78249 16.1655 1.80468 16.3804 1.83765 16.5389C2.0603 16.8416 2.30179 17.1286 2.5601 17.3978Z" fill="url(#paint66_linear_1_1323)"/>
<path d="M2.79712 17.8457C2.69487 17.7238 2.5637 17.5568 2.4776 17.4238C2.2166 17.1552 1.97309 16.8689 1.74909 16.5668C1.61792 16.4437 1.44774 16.2746 1.33136 16.139L1.4733 16.3716C1.64752 16.6016 1.88094 16.9082 2.06794 17.1283C2.22064 17.2888 2.41908 17.5063 2.57917 17.6596L2.79712 17.8457Z" fill="url(#paint67_linear_1_1323)"/>
<path d="M15.5267 17.681C15.4984 17.7773 15.454 17.905 15.409 17.9961C15.5852 17.8795 15.82 17.7229 15.9929 17.6023C16.2505 17.3514 16.4906 17.0835 16.7126 16.8004C16.7348 16.6845 16.757 16.5272 16.759 16.4093C16.5774 16.5567 16.3339 16.7519 16.1482 16.8954C15.9579 17.1732 15.75 17.4359 15.5267 17.681Z" fill="url(#paint68_linear_1_1323)" fill-opacity="0.4"/>
<path d="M12.946 18.0673C12.975 18.1479 13.0079 18.2586 13.0173 18.3438C13.2037 18.2232 13.4519 18.062 13.6362 17.9395C13.8488 17.6958 14.0459 17.435 14.2268 17.1592C14.1851 17.0518 14.1205 16.9109 14.0613 16.812C13.8609 16.9633 13.5938 17.1645 13.392 17.3145C13.2568 17.5818 13.1082 17.8334 12.946 18.0673Z" fill="#101828"/>
<path d="M11.882 18.2726C11.9641 18.3401 12.0717 18.4325 12.1444 18.5098C12.3247 18.3886 12.5648 18.2267 12.7451 18.1049C12.8924 17.8743 13.0269 17.6253 13.1487 17.36C13.0411 17.265 12.8937 17.1411 12.7774 17.056C12.5762 17.208 12.3072 17.4111 12.106 17.5631C12.0408 17.8166 11.9661 18.0544 11.882 18.2726Z" fill="url(#paint69_linear_1_1323)"/>
<path d="M10.6597 18.5154C10.7949 18.5718 10.9751 18.6491 11.107 18.7126C11.2677 18.5941 11.4817 18.4362 11.6424 18.3182C11.7097 18.1027 11.7675 17.8688 11.8167 17.6179C11.6492 17.536 11.4245 17.4298 11.253 17.3552C11.0653 17.5052 10.815 17.7057 10.628 17.857C10.6442 18.0942 10.6549 18.315 10.6597 18.5154Z" fill="url(#paint70_linear_1_1323)" fill-opacity="0.4"/>
<path d="M9.34705 18.7861C9.53271 18.8326 9.78026 18.8955 9.96524 18.9453C10.093 18.8313 10.2653 18.6806 10.3958 18.5692C10.3722 18.3727 10.3433 18.1558 10.3096 17.9213C10.0897 17.8525 9.79573 17.7621 9.57509 17.6972C9.41365 17.842 9.19907 18.0353 9.04166 18.184C9.14458 18.4035 9.24683 18.6046 9.34705 18.7861Z" fill="url(#paint71_linear_1_1323)" fill-opacity="0.4"/>
<path d="M8.12537 19.046C8.33457 19.0879 8.61373 19.1436 8.8236 19.1855C8.89759 19.0794 9.00051 18.9418 9.08325 18.8422C8.96352 18.6647 8.84311 18.4675 8.7227 18.2513C8.47448 18.191 8.1442 18.1104 7.89666 18.0502C7.79374 18.1818 7.65853 18.3594 7.56436 18.4976C7.74867 18.7007 7.93567 18.8835 8.12537 19.046Z" fill="#101828"/>
<path d="M7.11031 19.27C7.33027 19.3093 7.62289 19.3611 7.84285 19.3984C7.85227 19.3067 7.87245 19.1849 7.89868 19.0964C7.69284 18.9372 7.4897 18.7577 7.29059 18.5585C7.04035 18.5002 6.70603 18.4229 6.45647 18.3626C6.41409 18.4825 6.36297 18.6443 6.33741 18.7688C6.58899 18.9562 6.84729 19.1239 7.11031 19.27Z" fill="url(#paint72_linear_1_1323)" fill-opacity="0.4"/>
<path d="M6.35336 19.4432C6.56929 19.4825 6.85786 19.5343 7.07446 19.5703C7.02469 19.4956 6.96482 19.3915 6.9332 19.3082C6.65673 19.1654 6.38632 19.0003 6.1233 18.8149C5.88383 18.7573 5.56499 18.678 5.32686 18.6157C5.34704 18.7258 5.38202 18.8726 5.42238 18.978C5.72374 19.1543 6.03518 19.3096 6.35336 19.4432Z" fill="#101828"/>
<path d="M5.90359 19.5603C6.10001 19.6042 6.36303 19.6599 6.56079 19.6973C6.45989 19.6357 6.3267 19.5485 6.23522 19.4745C5.90763 19.3428 5.58878 19.1895 5.27935 19.0152C5.06611 18.9537 4.78292 18.8691 4.5717 18.8017C4.65847 18.9019 4.77955 19.031 4.87844 19.1194C5.20939 19.2884 5.55178 19.4359 5.90359 19.5603Z" fill="url(#paint73_linear_1_1323)"/>
<defs>
<linearGradient id="paint0_linear_1_1323" x1="9.59992" y1="3.34891" x2="8.98952" y2="4.36327" gradientUnits="userSpaceOnUse">
<stop stop-color="#087443"/>
<stop offset="1" stop-color="#099250"/>
</linearGradient>
<linearGradient id="paint1_linear_1_1323" x1="7.74128" y1="3.55699" x2="6.805" y2="4.2198" gradientUnits="userSpaceOnUse">
<stop stop-color="#087443"/>
<stop offset="1" stop-color="#099250"/>
</linearGradient>
<linearGradient id="paint2_linear_1_1323" x1="6.68859" y1="3.68224" x2="5.67366" y2="4.26779" gradientUnits="userSpaceOnUse">
<stop stop-color="#087443"/>
<stop offset="1" stop-color="#099250"/>
</linearGradient>
<linearGradient id="paint3_linear_1_1323" x1="5.94226" y1="3.80256" x2="4.74828" y2="4.53384" gradientUnits="userSpaceOnUse">
<stop stop-color="#087443"/>
<stop offset="1" stop-color="#099250"/>
</linearGradient>
<linearGradient id="paint4_linear_1_1323" x1="5.45653" y1="3.90446" x2="4.05747" y2="4.89164" gradientUnits="userSpaceOnUse">
<stop stop-color="#087443"/>
<stop offset="1" stop-color="#099250"/>
</linearGradient>
<linearGradient id="paint5_linear_1_1323" x1="14.3429" y1="2.88126" x2="12.6137" y2="4.05981" gradientUnits="userSpaceOnUse">
<stop stop-color="#087443"/>
<stop offset="1" stop-color="#099250"/>
</linearGradient>
<linearGradient id="paint6_linear_1_1323" x1="7.07644" y1="5.14707" x2="7.97689" y2="7.41388" gradientUnits="userSpaceOnUse">
<stop stop-color="#087443"/>
<stop offset="0.509778" stop-color="#1D2939"/>
<stop offset="1" stop-color="#AAF0C4"/>
</linearGradient>
<linearGradient id="paint7_linear_1_1323" x1="5.24616" y1="5.48968" x2="6.29922" y2="7.78374" gradientUnits="userSpaceOnUse">
<stop stop-color="#087443"/>
<stop offset="0.509778" stop-color="#1D2939"/>
<stop offset="1" stop-color="#AAF0C4"/>
</linearGradient>
<linearGradient id="paint8_linear_1_1323" x1="2.16567" y1="6.08509" x2="3.49515" y2="8.35099" gradientUnits="userSpaceOnUse">
<stop stop-color="#087443"/>
<stop offset="0.509778" stop-color="#1D2939"/>
<stop offset="1" stop-color="#AAF0C4"/>
</linearGradient>
<linearGradient id="paint9_linear_1_1323" x1="1.23883" y1="6.29845" x2="2.72618" y2="8.37686" gradientUnits="userSpaceOnUse">
<stop stop-color="#087443"/>
<stop offset="0.509778" stop-color="#1D2939"/>
<stop offset="1" stop-color="#AAF0C4"/>
</linearGradient>
<linearGradient id="paint10_linear_1_1323" x1="0.691582" y1="6.43405" x2="2.23686" y2="8.45954" gradientUnits="userSpaceOnUse">
<stop stop-color="#087443"/>
<stop offset="0.509778" stop-color="#1D2939"/>
<stop offset="1" stop-color="#AAF0C4"/>
</linearGradient>
<linearGradient id="paint11_linear_1_1323" x1="17.2238" y1="6.44562" x2="15.1679" y2="7.33255" gradientUnits="userSpaceOnUse">
<stop stop-color="#087443"/>
<stop offset="1" stop-color="#099250"/>
</linearGradient>
<linearGradient id="paint12_linear_1_1323" x1="21.6355" y1="3.83985" x2="19.3138" y2="5.03464" gradientUnits="userSpaceOnUse">
<stop stop-color="#087443"/>
<stop offset="1" stop-color="#099250"/>
</linearGradient>
<linearGradient id="paint13_linear_1_1323" x1="10.0482" y1="7.73586" x2="11.3594" y2="10.6949" gradientUnits="userSpaceOnUse">
<stop stop-color="#087443"/>
<stop offset="0.509778" stop-color="#1D2939"/>
<stop offset="1" stop-color="#AAF0C4"/>
</linearGradient>
<linearGradient id="paint14_linear_1_1323" x1="7.69388" y1="8.1799" x2="8.99651" y2="11.2134" gradientUnits="userSpaceOnUse">
<stop stop-color="#087443"/>
<stop offset="0.509778" stop-color="#1D2939"/>
<stop offset="1" stop-color="#AAF0C4"/>
</linearGradient>
<linearGradient id="paint15_linear_1_1323" x1="3.02489" y1="9.62006" x2="1.1469" y2="10.2627" gradientUnits="userSpaceOnUse">
<stop stop-color="#087443"/>
<stop offset="1" stop-color="#099250"/>
</linearGradient>
<linearGradient id="paint16_linear_1_1323" x1="1.42586" y1="9.92273" x2="0.0997851" y2="10.2212" gradientUnits="userSpaceOnUse">
<stop stop-color="#087443"/>
<stop offset="1" stop-color="#099250"/>
</linearGradient>
<linearGradient id="paint17_linear_1_1323" x1="0.41671" y1="10.12" x2="-0.217518" y2="10.1852" gradientUnits="userSpaceOnUse">
<stop stop-color="#087443"/>
<stop offset="1" stop-color="#099250"/>
</linearGradient>
<linearGradient id="paint18_linear_1_1323" x1="17.0263" y1="10.1274" x2="18.9087" y2="12.2752" gradientUnits="userSpaceOnUse">
<stop stop-color="#087443"/>
<stop offset="0.509778" stop-color="#1D2939"/>
<stop offset="1" stop-color="#AAF0C4"/>
</linearGradient>
<linearGradient id="paint19_linear_1_1323" x1="8.5584" y1="12.1458" x2="9.92438" y2="15.1991" gradientUnits="userSpaceOnUse">
<stop stop-color="#087443"/>
<stop offset="0.509778" stop-color="#1D2939"/>
<stop offset="1" stop-color="#AAF0C4"/>
</linearGradient>
<linearGradient id="paint20_linear_1_1323" x1="6.066" y1="13.2598" x2="3.62669" y2="14.5908" gradientUnits="userSpaceOnUse">
<stop stop-color="#087443"/>
<stop offset="1" stop-color="#099250"/>
</linearGradient>
<linearGradient id="paint21_linear_1_1323" x1="4.07224" y1="13.6805" x2="1.85911" y2="14.7277" gradientUnits="userSpaceOnUse">
<stop stop-color="#087443"/>
<stop offset="1" stop-color="#099250"/>
</linearGradient>
<linearGradient id="paint22_linear_1_1323" x1="1.1123" y1="13.9107" x2="2.71773" y2="16.3049" gradientUnits="userSpaceOnUse">
<stop stop-color="#087443"/>
<stop offset="0.509778" stop-color="#1D2939"/>
<stop offset="1" stop-color="#AAF0C4"/>
</linearGradient>
<linearGradient id="paint23_linear_1_1323" x1="1.58585" y1="14.2151" x2="0.114878" y2="14.6301" gradientUnits="userSpaceOnUse">
<stop stop-color="#087443"/>
<stop offset="1" stop-color="#099250"/>
</linearGradient>
<linearGradient id="paint24_linear_1_1323" x1="17.1615" y1="14.014" x2="18.6052" y2="16.2349" gradientUnits="userSpaceOnUse">
<stop stop-color="#087443"/>
<stop offset="0.509778" stop-color="#1D2939"/>
<stop offset="1" stop-color="#AAF0C4"/>
</linearGradient>
<linearGradient id="paint25_linear_1_1323" x1="14.4193" y1="15.2447" x2="12.5706" y2="16.059" gradientUnits="userSpaceOnUse">
<stop stop-color="#087443"/>
<stop offset="1" stop-color="#099250"/>
</linearGradient>
<linearGradient id="paint26_linear_1_1323" x1="21.9994" y1="14.1431" x2="20.1492" y2="15.0096" gradientUnits="userSpaceOnUse">
<stop stop-color="#087443"/>
<stop offset="1" stop-color="#099250"/>
</linearGradient>
<linearGradient id="paint27_linear_1_1323" x1="9.41388" y1="15.9065" x2="10.4762" y2="18.2316" gradientUnits="userSpaceOnUse">
<stop stop-color="#087443"/>
<stop offset="0.509778" stop-color="#1D2939"/>
<stop offset="1" stop-color="#AAF0C4"/>
</linearGradient>
<linearGradient id="paint28_linear_1_1323" x1="7.58776" y1="16.8288" x2="5.6681" y2="18.1561" gradientUnits="userSpaceOnUse">
<stop stop-color="#087443"/>
<stop offset="1" stop-color="#099250"/>
</linearGradient>
<linearGradient id="paint29_linear_1_1323" x1="6.10841" y1="17.1813" x2="4.29035" y2="18.424" gradientUnits="userSpaceOnUse">
<stop stop-color="#087443"/>
<stop offset="1" stop-color="#099250"/>
</linearGradient>
<linearGradient id="paint30_linear_1_1323" x1="3.3205" y1="17.3912" x2="4.05439" y2="19.4201" gradientUnits="userSpaceOnUse">
<stop stop-color="#087443"/>
<stop offset="0.509778" stop-color="#1D2939"/>
<stop offset="1" stop-color="#AAF0C4"/>
</linearGradient>
<linearGradient id="paint31_linear_1_1323" x1="2.63842" y1="17.5681" x2="3.29367" y2="19.5883" gradientUnits="userSpaceOnUse">
<stop stop-color="#087443"/>
<stop offset="0.509778" stop-color="#1D2939"/>
<stop offset="1" stop-color="#AAF0C4"/>
</linearGradient>
<linearGradient id="paint32_linear_1_1323" x1="13.5364" y1="18.1215" x2="11.9915" y2="19.274" gradientUnits="userSpaceOnUse">
<stop stop-color="#087443"/>
<stop offset="1" stop-color="#099250"/>
</linearGradient>
<linearGradient id="paint33_linear_1_1323" x1="11.5447" y1="18.2224" x2="12.1909" y2="19.8037" gradientUnits="userSpaceOnUse">
<stop stop-color="#087443"/>
<stop offset="0.509778" stop-color="#1D2939"/>
<stop offset="1" stop-color="#AAF0C4"/>
</linearGradient>
<linearGradient id="paint34_linear_1_1323" x1="10.9508" y1="18.4252" x2="11.5853" y2="19.8105" gradientUnits="userSpaceOnUse">
<stop stop-color="#087443"/>
<stop offset="0.509778" stop-color="#1D2939"/>
<stop offset="1" stop-color="#AAF0C4"/>
</linearGradient>
<linearGradient id="paint35_linear_1_1323" x1="9.00352" y1="18.9223" x2="9.36317" y2="20.0646" gradientUnits="userSpaceOnUse">
<stop stop-color="#087443"/>
<stop offset="0.509778" stop-color="#1D2939"/>
<stop offset="1" stop-color="#AAF0C4"/>
</linearGradient>
<linearGradient id="paint36_linear_1_1323" x1="9.38144" y1="19.198" x2="8.53365" y2="20.1734" gradientUnits="userSpaceOnUse">
<stop stop-color="#087443"/>
<stop offset="1" stop-color="#099250"/>
</linearGradient>
<linearGradient id="paint37_linear_1_1323" x1="7.15843" y1="19.3786" x2="7.27394" y2="20.2357" gradientUnits="userSpaceOnUse">
<stop stop-color="#087443"/>
<stop offset="0.509778" stop-color="#1D2939"/>
<stop offset="1" stop-color="#AAF0C4"/>
</linearGradient>
<linearGradient id="paint38_linear_1_1323" x1="12.3733" y1="0.195576" x2="10.9885" y2="1.3865" gradientUnits="userSpaceOnUse">
<stop stop-color="#087443"/>
<stop offset="1" stop-color="#099250"/>
</linearGradient>
<linearGradient id="paint39_linear_1_1323" x1="7.52516" y1="4.01072" x2="8.10042" y2="5.6911" gradientUnits="userSpaceOnUse">
<stop stop-color="#087443"/>
<stop offset="0.509778" stop-color="#1D2939"/>
<stop offset="1" stop-color="#AAF0C4"/>
</linearGradient>
<linearGradient id="paint40_linear_1_1323" x1="7.51717" y1="4.294" x2="6.04347" y2="5.16456" gradientUnits="userSpaceOnUse">
<stop stop-color="#087443"/>
<stop offset="1" stop-color="#099250"/>
</linearGradient>
<linearGradient id="paint41_linear_1_1323" x1="3.48" y1="4.68166" x2="4.43052" y2="6.63726" gradientUnits="userSpaceOnUse">
<stop stop-color="#087443"/>
<stop offset="0.509778" stop-color="#1D2939"/>
<stop offset="1" stop-color="#AAF0C4"/>
</linearGradient>
<linearGradient id="paint42_linear_1_1323" x1="2.56673" y1="4.85023" x2="3.61696" y2="6.8553" gradientUnits="userSpaceOnUse">
<stop stop-color="#087443"/>
<stop offset="0.509778" stop-color="#1D2939"/>
<stop offset="1" stop-color="#AAF0C4"/>
</linearGradient>
<linearGradient id="paint43_linear_1_1323" x1="3.38509" y1="5.04448" x2="1.60005" y2="5.98367" gradientUnits="userSpaceOnUse">
<stop stop-color="#087443"/>
<stop offset="1" stop-color="#099250"/>
</linearGradient>
<linearGradient id="paint44_linear_1_1323" x1="16.6889" y1="1.7662" x2="17.8597" y2="4.05612" gradientUnits="userSpaceOnUse">
<stop stop-color="#087443"/>
<stop offset="0.509778" stop-color="#1D2939"/>
<stop offset="1" stop-color="#AAF0C4"/>
</linearGradient>
<linearGradient id="paint45_linear_1_1323" x1="14.0322" y1="5.73797" x2="11.9545" y2="6.93444" gradientUnits="userSpaceOnUse">
<stop stop-color="#087443"/>
<stop offset="1" stop-color="#099250"/>
</linearGradient>
<linearGradient id="paint46_linear_1_1323" x1="12.4558" y1="6.033" x2="10.253" y2="7.3927" gradientUnits="userSpaceOnUse">
<stop stop-color="#087443"/>
<stop offset="1" stop-color="#099250"/>
</linearGradient>
<linearGradient id="paint47_linear_1_1323" x1="10.5074" y1="6.39547" x2="8.23375" y2="7.80253" gradientUnits="userSpaceOnUse">
<stop stop-color="#087443"/>
<stop offset="1" stop-color="#099250"/>
</linearGradient>
<linearGradient id="paint48_linear_1_1323" x1="15.5767" y1="4.06497" x2="16.7366" y2="6.78725" gradientUnits="userSpaceOnUse">
<stop stop-color="#087443"/>
<stop offset="0.509778" stop-color="#1D2939"/>
<stop offset="1" stop-color="#AAF0C4"/>
</linearGradient>
<linearGradient id="paint49_linear_1_1323" x1="4.2088" y1="7.14632" x2="5.55615" y2="9.78337" gradientUnits="userSpaceOnUse">
<stop stop-color="#087443"/>
<stop offset="0.509778" stop-color="#1D2939"/>
<stop offset="1" stop-color="#AAF0C4"/>
</linearGradient>
<linearGradient id="paint50_linear_1_1323" x1="2.42869" y1="7.51984" x2="3.95044" y2="10.0135" gradientUnits="userSpaceOnUse">
<stop stop-color="#087443"/>
<stop offset="0.509778" stop-color="#1D2939"/>
<stop offset="1" stop-color="#AAF0C4"/>
</linearGradient>
<linearGradient id="paint51_linear_1_1323" x1="1.10519" y1="7.82489" x2="2.78837" y2="10.0549" gradientUnits="userSpaceOnUse">
<stop stop-color="#087443"/>
<stop offset="0.509778" stop-color="#1D2939"/>
<stop offset="1" stop-color="#AAF0C4"/>
</linearGradient>
<linearGradient id="paint52_linear_1_1323" x1="1.22278" y1="8.14125" x2="-0.0459782" y2="8.43303" gradientUnits="userSpaceOnUse">
<stop stop-color="#087443"/>
<stop offset="1" stop-color="#099250"/>
</linearGradient>
<linearGradient id="paint53_linear_1_1323" x1="15.4479" y1="8.7936" x2="17.3543" y2="10.9872" gradientUnits="userSpaceOnUse">
<stop stop-color="#087443"/>
<stop offset="0.509778" stop-color="#1D2939"/>
<stop offset="1" stop-color="#AAF0C4"/>
</linearGradient>
<linearGradient id="paint54_linear_1_1323" x1="20.0246" y1="6.994" x2="17.8746" y2="7.84395" gradientUnits="userSpaceOnUse">
<stop stop-color="#087443"/>
<stop offset="1" stop-color="#099250"/>
</linearGradient>
<linearGradient id="paint55_linear_1_1323" x1="9.20141" y1="10.4535" x2="6.50085" y2="11.9874" gradientUnits="userSpaceOnUse">
<stop stop-color="#087443"/>
<stop offset="1" stop-color="#099250"/>
</linearGradient>
<linearGradient id="paint56_linear_1_1323" x1="4.45753" y1="10.8674" x2="5.95295" y2="14.0064" gradientUnits="userSpaceOnUse">
<stop stop-color="#087443"/>
<stop offset="0.509778" stop-color="#1D2939"/>
<stop offset="1" stop-color="#AAF0C4"/>
</linearGradient>
<linearGradient id="paint57_linear_1_1323" x1="4.37784" y1="11.4309" x2="2.05172" y2="12.4601" gradientUnits="userSpaceOnUse">
<stop stop-color="#087443"/>
<stop offset="1" stop-color="#099250"/>
</linearGradient>
<linearGradient id="paint58_linear_1_1323" x1="1.07271" y1="11.6997" x2="2.90705" y2="14.2116" gradientUnits="userSpaceOnUse">
<stop stop-color="#087443"/>
<stop offset="0.509778" stop-color="#1D2939"/>
<stop offset="1" stop-color="#AAF0C4"/>
</linearGradient>
<linearGradient id="paint59_linear_1_1323" x1="0.227655" y1="11.9718" x2="2.13997" y2="13.6749" gradientUnits="userSpaceOnUse">
<stop stop-color="#087443"/>
<stop offset="0.509778" stop-color="#1D2939"/>
<stop offset="1" stop-color="#AAF0C4"/>
</linearGradient>
<linearGradient id="paint60_linear_1_1323" x1="0.50937" y1="12.2149" x2="-0.257592" y2="12.3099" gradientUnits="userSpaceOnUse">
<stop stop-color="#087443"/>
<stop offset="1" stop-color="#099250"/>
</linearGradient>
<linearGradient id="paint61_linear_1_1323" x1="16.4153" y1="12.7953" x2="18.0834" y2="13.9267" gradientUnits="userSpaceOnUse">
<stop stop-color="#087443"/>
<stop offset="0.509778" stop-color="#1D2939"/>
<stop offset="1" stop-color="#AAF0C4"/>
</linearGradient>
<linearGradient id="paint62_linear_1_1323" x1="15.4985" y1="13.2436" x2="13.6385" y2="13.9289" gradientUnits="userSpaceOnUse">
<stop stop-color="#087443"/>
<stop offset="1" stop-color="#099250"/>
</linearGradient>
<linearGradient id="paint63_linear_1_1323" x1="12.3206" y1="13.4892" x2="13.8189" y2="16.0469" gradientUnits="userSpaceOnUse">
<stop stop-color="#087443"/>
<stop offset="0.509778" stop-color="#1D2939"/>
<stop offset="1" stop-color="#AAF0C4"/>
</linearGradient>
<linearGradient id="paint64_linear_1_1323" x1="12.0048" y1="14.0024" x2="9.80145" y2="15.1217" gradientUnits="userSpaceOnUse">
<stop stop-color="#087443"/>
<stop offset="1" stop-color="#099250"/>
</linearGradient>
<linearGradient id="paint65_linear_1_1323" x1="4.25304" y1="15.7553" x2="2.2632" y2="16.8054" gradientUnits="userSpaceOnUse">
<stop stop-color="#087443"/>
<stop offset="1" stop-color="#099250"/>
</linearGradient>
<linearGradient id="paint66_linear_1_1323" x1="3.17714" y1="16.01" x2="1.36433" y2="16.8569" gradientUnits="userSpaceOnUse">
<stop stop-color="#087443"/>
<stop offset="1" stop-color="#099250"/>
</linearGradient>
<linearGradient id="paint67_linear_1_1323" x1="2.79523" y1="16.1446" x2="0.942978" y2="17.0545" gradientUnits="userSpaceOnUse">
<stop stop-color="#087443"/>
<stop offset="1" stop-color="#099250"/>
</linearGradient>
<linearGradient id="paint68_linear_1_1323" x1="15.3388" y1="16.3428" x2="16.4214" y2="18.4525" gradientUnits="userSpaceOnUse">
<stop stop-color="#087443"/>
<stop offset="0.509778" stop-color="#1D2939"/>
<stop offset="1" stop-color="#AAF0C4"/>
</linearGradient>
<linearGradient id="paint69_linear_1_1323" x1="13.147" y1="17.0607" x2="11.5554" y2="17.8539" gradientUnits="userSpaceOnUse">
<stop stop-color="#087443"/>
<stop offset="1" stop-color="#099250"/>
</linearGradient>
<linearGradient id="paint70_linear_1_1323" x1="10.5662" y1="17.2982" x2="11.4767" y2="19.1243" gradientUnits="userSpaceOnUse">
<stop stop-color="#087443"/>
<stop offset="0.509778" stop-color="#1D2939"/>
<stop offset="1" stop-color="#AAF0C4"/>
</linearGradient>
<linearGradient id="paint71_linear_1_1323" x1="8.97127" y1="17.6449" x2="9.69725" y2="19.4491" gradientUnits="userSpaceOnUse">
<stop stop-color="#087443"/>
<stop offset="0.509778" stop-color="#1D2939"/>
<stop offset="1" stop-color="#AAF0C4"/>
</linearGradient>
<linearGradient id="paint72_linear_1_1323" x1="6.25624" y1="18.3192" x2="6.72115" y2="19.9243" gradientUnits="userSpaceOnUse">
<stop stop-color="#087443"/>
<stop offset="0.509778" stop-color="#1D2939"/>
<stop offset="1" stop-color="#AAF0C4"/>
</linearGradient>
<linearGradient id="paint73_linear_1_1323" x1="6.55823" y1="18.8046" x2="5.36452" y2="20.3211" gradientUnits="userSpaceOnUse">
<stop stop-color="#087443"/>
<stop offset="1" stop-color="#099250"/>
</linearGradient>
</defs>
</svg>
