<svg width="44" height="44" viewBox="0 0 44 44" fill="none" xmlns="http://www.w3.org/2000/svg">
<path fill-rule="evenodd" clip-rule="evenodd" d="M21.9998 3.66675C11.8707 3.66675 3.66651 11.8709 3.66651 22.0001C3.66443 25.8488 4.87433 29.6004 7.12457 32.7227C9.37481 35.8449 12.5511 38.1794 16.2028 39.3947C17.1195 39.5542 17.4623 39.0042 17.4623 38.5221C17.4623 38.0876 17.4385 36.6447 17.4385 35.1084C12.8332 35.9572 11.6415 33.9864 11.2748 32.9542C11.0677 32.4262 10.1748 30.8001 9.39567 30.3637C8.75401 30.0209 7.83734 29.1721 9.37184 29.1501C10.8165 29.1262 11.8468 30.4792 12.1915 31.0292C13.8415 33.8012 16.4778 33.0221 17.5302 32.5417C17.6915 31.3501 18.1718 30.5489 18.6998 30.0906C14.6207 29.6322 10.3582 28.0501 10.3582 21.0376C10.3582 19.0429 11.0677 17.3947 12.2373 16.1114C12.054 15.6531 11.4123 13.7739 12.4207 11.2531C12.4207 11.2531 13.9552 10.7709 17.4623 13.1304C18.9549 12.7168 20.4969 12.5089 22.0457 12.5126C23.604 12.5126 25.1623 12.7179 26.629 13.1304C30.1343 10.7471 31.6707 11.2531 31.6707 11.2531C32.679 13.7739 32.0373 15.6531 31.854 16.1114C33.0218 17.3947 33.7332 19.0209 33.7332 21.0376C33.7332 28.0739 29.4487 29.6322 25.3695 30.0906C26.0332 30.6626 26.607 31.7626 26.607 33.4822C26.607 35.9334 26.5832 37.9042 26.5832 38.5239C26.5832 39.0042 26.9278 39.5762 27.8445 39.3929C31.4837 38.1642 34.646 35.8252 36.8863 32.7052C39.1266 29.5851 40.3321 25.8411 40.3332 22.0001C40.3332 11.8709 32.129 3.66675 21.9998 3.66675Z" fill="#F8FAFC"/>
</svg>
