<svg width="166" height="46" viewBox="0 0 166 46" fill="none" xmlns="http://www.w3.org/2000/svg">
<path d="M21.5177 9.53283C21.9524 9.60162 22.532 9.69517 22.9653 9.77222C22.8326 9.63464 22.6444 9.46267 22.4887 9.35261C21.8251 9.16 21.1481 9.01692 20.4642 8.92611C20.0796 8.90685 19.5664 8.88484 19.1805 8.87521C19.3619 8.91924 19.603 8.9839 19.7763 9.05406C20.3626 9.16275 20.9449 9.32371 21.5177 9.53283Z" fill="#03482A"/>
<path d="M19.922 9.85119C20.3445 9.92136 20.9065 10.0163 21.3276 10.0906C21.3114 9.93787 21.2775 9.73563 21.2234 9.59255C20.679 9.37792 20.1251 9.21146 19.5672 9.09589C19.2111 9.07525 18.7371 9.04774 18.381 9.0326C18.469 9.09451 18.5828 9.18944 18.645 9.27887C19.073 9.42057 19.4995 9.61181 19.922 9.85119Z" fill="url(#paint0_linear_77_7190)"/>
<path d="M18.0086 10.2393C18.3891 10.3178 18.8969 10.4223 19.2775 10.5007C19.3695 10.3315 19.486 10.1018 19.5537 9.92016C19.1651 9.67389 18.7737 9.47578 18.3824 9.3272C18.0817 9.29693 17.6796 9.25703 17.3789 9.22952C17.3654 9.32995 17.3302 9.46202 17.2882 9.55282C17.5238 9.73305 17.7649 9.9628 18.0086 10.2393Z" fill="#03482A"/>
<path d="M15.8851 10.6918C16.2006 10.784 16.6231 10.905 16.94 10.9917C17.1377 10.7977 17.3991 10.5349 17.5859 10.33C17.3828 10.0452 17.1824 9.80716 16.9888 9.61868C16.7613 9.57603 16.4606 9.51824 16.2345 9.47147C16.1018 9.59666 15.9217 9.75763 15.7822 9.87457C15.8066 10.1002 15.8404 10.3726 15.8851 10.6918Z" fill="url(#paint1_linear_77_7190)"/>
<path d="M13.7308 11.1629C13.9447 11.2813 14.2345 11.4285 14.4566 11.5303C14.7518 11.3088 15.1445 11.013 15.4384 10.7887C15.4357 10.4613 15.4451 10.1779 15.4668 9.944C15.33 9.8876 15.1486 9.80918 15.0213 9.73489C14.7911 9.87659 14.485 10.0664 14.2562 10.2082C14.0639 10.4806 13.8878 10.7997 13.7308 11.1629Z" fill="url(#paint2_linear_77_7190)"/>
<path d="M11.8553 11.5863C11.9379 11.7308 12.0639 11.9138 12.1736 12.0376C12.5162 11.8023 12.9739 11.49 13.3178 11.2562C13.5142 10.8847 13.7295 10.5573 13.9624 10.2752C13.9285 10.1941 13.8947 10.073 13.9042 9.98494C13.609 10.1404 13.2176 10.3509 12.9265 10.5091C12.546 10.8242 12.1885 11.1832 11.8553 11.5863Z" fill="url(#paint3_linear_77_7190)"/>
<path d="M10.3701 11.9332C10.3322 12.0914 10.2956 12.3074 10.297 12.4697C10.6612 12.2262 11.1501 11.9029 11.5184 11.6635C11.8827 11.2549 12.2727 10.8876 12.6871 10.5657C12.7656 10.446 12.8834 10.2946 12.9863 10.1956C12.6505 10.3607 12.205 10.5835 11.8732 10.7569C11.3451 11.105 10.8427 11.4998 10.3701 11.9332Z" fill="url(#paint4_linear_77_7190)"/>
<path d="M9.35306 12.1857C9.21223 12.3645 9.03213 12.608 8.91567 12.802C9.27588 12.5557 9.7566 12.2297 10.1209 11.9917C10.6178 11.5514 11.1433 11.1524 11.6971 10.7975C11.8745 10.6572 12.1196 10.4783 12.3105 10.3572C11.9612 10.5265 11.4967 10.7562 11.1527 10.9351C10.5217 11.3093 9.92181 11.7275 9.35306 12.1857Z" fill="#03482A"/>
<path d="M29.0783 10.2782C29.5874 10.4584 30.2658 10.7019 30.7723 10.8945C30.8183 10.6125 30.8698 10.2314 30.8779 9.94387C30.3539 9.43483 29.8027 8.96432 29.2299 8.53508C28.7614 8.38374 28.1358 8.18838 27.6632 8.04943C27.6686 8.28469 27.6591 8.60111 27.6279 8.83362C28.1303 9.27524 28.6138 9.75814 29.0783 10.2782Z" fill="url(#paint5_linear_77_7190)"/>
<mask id="mask0_77_7190" style="mask-type:luminance" maskUnits="userSpaceOnUse" x="28" y="2" width="5" height="4">
<path d="M32.4551 5.01172L28.6418 5.01172V2.00015L32.4551 2.00015V5.01172Z" fill="white"/>
</mask>
<g mask="url(#mask0_77_7190)">
<path d="M29.8506 4.39301C30.4085 4.56223 31.1506 4.78923 31.7058 4.96533C31.8818 4.65578 32.1107 4.23755 32.2637 3.91424C31.8182 3.39007 31.355 2.90304 30.873 2.45729C30.3665 2.31972 29.6908 2.13811 29.183 2.00741C29.0557 2.27569 28.8756 2.62789 28.7266 2.88378C29.1125 3.3488 29.4876 3.85233 29.8506 4.39301Z" fill="#03482A"/>
</g>
<path d="M20.6604 14.8439C21.2305 15.009 21.9915 15.2305 22.5616 15.397C22.8555 15.0585 23.2427 14.6032 23.5244 14.2537C23.1845 13.7089 22.8338 13.1999 22.4749 12.7293C21.9644 12.5959 21.2833 12.4212 20.7714 12.2905C20.5222 12.5849 20.1851 12.9715 19.9251 13.2549C20.1715 13.7488 20.418 14.2798 20.6604 14.8439Z" fill="#03482A"/>
<path d="M16.7266 15.6777C17.2805 15.8442 18.0185 16.0671 18.5724 16.2322C18.9678 15.8676 19.4932 15.3792 19.8818 15.0064C19.6652 14.4368 19.4485 13.8989 19.2318 13.3995C18.7471 13.266 18.1011 13.0872 17.6177 12.951C17.2615 13.2674 16.7862 13.687 16.4247 13.9965C16.5168 14.5221 16.6183 15.0834 16.7266 15.6777Z" fill="url(#paint6_linear_77_7190)" fill-opacity="0.4"/>
<path d="M12.7246 16.5553C13.2013 16.7411 13.8391 16.9818 14.3212 17.1538C14.7924 16.7672 15.4207 16.2499 15.8906 15.862C15.8107 15.2635 15.7403 14.6953 15.6807 14.1615C15.2515 14.0212 14.68 13.8313 14.2548 13.6814C13.8377 14.0102 13.2798 14.449 12.8614 14.7778C12.7977 15.3392 12.7517 15.9321 12.7246 16.5553Z" fill="url(#paint7_linear_77_7190)" fill-opacity="0.4"/>
<path d="M9.25282 17.3326C9.59948 17.5458 10.068 17.8224 10.4255 18.0164C10.8859 17.6256 11.5007 17.107 11.9638 16.7218C12.0167 16.093 12.0911 15.4932 12.1846 14.9264C11.8785 14.764 11.4709 14.5425 11.1744 14.3623C10.7532 14.6925 10.1912 15.1355 9.77281 15.4712C9.57104 16.0614 9.39771 16.6832 9.25282 17.3326Z" fill="#03482A"/>
<path d="M6.49987 17.9775C6.7057 18.2196 6.99143 18.5333 7.22028 18.7534C7.63871 18.3668 8.20204 17.855 8.6286 17.4767C8.79381 16.8218 8.99016 16.1959 9.21631 15.5988C9.0335 15.4103 8.79787 15.1544 8.64079 14.9453C8.24267 15.2713 7.71319 15.7088 7.32184 16.0445C7.01309 16.6609 6.7382 17.3061 6.49987 17.9775Z" fill="url(#paint8_linear_77_7190)" fill-opacity="0.4"/>
<path d="M4.61264 18.45C4.66951 18.7169 4.76295 19.0705 4.85909 19.3264C5.20847 18.9495 5.67701 18.4542 6.03857 18.0896C6.29179 17.4155 6.58294 16.7647 6.91064 16.1442C6.85377 15.9241 6.79012 15.6242 6.77387 15.3972C6.42992 15.7123 5.97492 16.1374 5.6418 16.4648C5.25857 17.099 4.91461 17.7622 4.61264 18.45Z" fill="url(#paint9_linear_77_7190)" fill-opacity="0.4"/>
<path d="M3.74637 18.7117C3.65835 19.0006 3.55408 19.3927 3.50533 19.6926C3.74907 19.3349 4.08355 18.863 4.34761 18.5205C4.65771 17.8312 5.01115 17.1653 5.40521 16.527C5.47969 16.2711 5.59479 15.9313 5.70313 15.6864C5.44583 15.9835 5.10865 16.3853 4.87032 16.6976C4.45324 17.3428 4.07678 18.0156 3.74637 18.7117Z" fill="url(#paint10_linear_77_7190)" fill-opacity="0.4"/>
<path d="M34.4374 18.9349C34.9181 19.2004 35.5559 19.5636 36.0244 19.8525C36.2303 19.4577 36.497 18.9253 36.6758 18.518C36.3941 17.7682 36.0705 17.0473 35.7103 16.3581C35.2526 16.0994 34.6364 15.7637 34.1679 15.5243C33.9918 15.9013 33.7467 16.398 33.5463 16.7612C33.8754 17.4559 34.1733 18.1823 34.4374 18.9349Z" fill="url(#paint11_linear_77_7190)"/>
<path d="M42.5564 13.5884C43.1346 13.8333 43.9011 14.1662 44.4712 14.4263C44.8043 14.0012 45.2417 13.4288 45.5586 12.9913C45.2999 12.2388 45.0102 11.511 44.6906 10.8135C44.1381 10.581 43.3974 10.2756 42.8381 10.0568C42.5307 10.4613 42.1136 10.9965 41.79 11.3899C42.0676 12.0957 42.3235 12.829 42.5564 13.5884Z" fill="url(#paint12_linear_77_7190)"/>
<path d="M23.0617 22.0816C23.7036 22.3127 24.5567 22.6223 25.1959 22.863C25.6279 22.4118 26.2007 21.8064 26.6245 21.3469C26.3984 20.5875 26.1519 19.8515 25.8865 19.1429C25.2744 18.9269 24.4565 18.6435 23.8404 18.4372C23.4246 18.865 22.8681 19.4319 22.4442 19.8528C22.6582 20.5724 22.864 21.3153 23.0617 22.0816Z" fill="url(#paint13_linear_77_7190)" fill-opacity="0.4"/>
<path d="M18.168 23.1169C18.8438 23.3398 19.7429 23.6369 20.4159 23.8625C20.9197 23.3907 21.5914 22.7592 22.0938 22.2832C21.9042 21.5155 21.7092 20.7684 21.5088 20.0475C20.8696 19.8425 20.0178 19.5715 19.3787 19.3706C18.8817 19.8164 18.2168 20.4107 17.7158 20.8537C17.8606 21.587 18.0123 22.3437 18.168 23.1169Z" fill="url(#paint14_linear_77_7190)" fill-opacity="0.4"/>
<path d="M13.191 24.2063C13.8288 24.4374 14.6806 24.7429 15.3225 24.9644C15.8628 24.4773 16.5845 23.828 17.1289 23.3451C16.9813 22.5691 16.8418 21.8097 16.7118 21.0737C16.0848 20.8742 15.2493 20.6059 14.6237 20.3995C14.1064 20.848 13.4185 21.4506 12.9066 21.906C12.9811 22.6544 13.0759 23.4235 13.191 24.2063Z" fill="#03482A"/>
<path d="M8.87424 25.1781C9.40642 25.4313 10.1187 25.7628 10.6563 26.0022C11.1289 25.5221 11.764 24.8864 12.2461 24.4173C12.1391 23.6317 12.0552 22.8613 11.9929 22.1101C11.4729 21.8928 10.7822 21.5983 10.2677 21.3672C9.80455 21.8061 9.18976 22.3963 8.73476 22.8448C8.7483 23.6083 8.79434 24.387 8.87424 25.1781Z" fill="#03482A"/>
<path d="M5.4449 25.979C5.8498 26.2597 6.39552 26.6243 6.81261 26.8843C7.19042 26.4206 7.69958 25.807 8.09229 25.3558C8.01916 24.5633 7.9826 23.7819 7.97989 23.017C7.58448 22.7776 7.06177 22.4515 6.67854 22.1901C6.29667 22.6139 5.79022 23.1834 5.42188 23.6182C5.38668 24.3927 5.39345 25.1811 5.4449 25.979Z" fill="url(#paint15_linear_77_7190)"/>
<path d="M3.09801 26.5662C3.35259 26.8771 3.70332 27.2816 3.98363 27.5691C4.23957 27.1275 4.59029 26.5441 4.87061 26.1176C4.82321 25.3183 4.82321 24.5286 4.86654 23.7527C4.6079 23.4858 4.27071 23.1198 4.0378 22.8295C3.7629 23.2299 3.40541 23.7706 3.15353 24.1861C3.08447 24.9689 3.06551 25.7627 3.09801 26.5662Z" fill="url(#paint16_linear_77_7190)"/>
<mask id="mask1_77_7190" style="mask-type:luminance" maskUnits="userSpaceOnUse" x="2" y="22" width="1" height="7">
<path d="M2.9873 28.2532H2.00012L2.00012 22.9702H2.9873L2.9873 28.2532Z" fill="white"/>
</mask>
<g mask="url(#mask1_77_7190)">
<path d="M2.02366 26.89C2.10762 27.2311 2.23762 27.681 2.36627 28.0071C2.47189 27.5957 2.62897 27.0523 2.77116 26.6533C2.74272 25.8499 2.76574 25.0533 2.83887 24.2705C2.72783 23.9664 2.59647 23.5551 2.52876 23.2386C2.38929 23.6115 2.21731 24.1136 2.11575 24.5002C2.03179 25.2858 2.00064 26.0851 2.02366 26.89Z" fill="url(#paint17_linear_77_7190)"/>
</g>
<path d="M36.4502 27.2763C36.7806 27.55 37.2153 27.9215 37.5267 28.2173C37.8598 27.8197 38.2986 27.2845 38.6155 26.8732C38.6683 26.0903 38.675 25.2938 38.6344 24.4903C38.2999 24.1739 37.8449 23.7625 37.4902 23.4695C37.1692 23.907 36.7318 24.4848 36.3933 24.9072C36.4529 25.7079 36.4718 26.4989 36.4502 27.2763Z" fill="url(#paint18_linear_77_7190)" fill-opacity="0.4"/>
<mask id="mask2_77_7190" style="mask-type:luminance" maskUnits="userSpaceOnUse" x="50" y="18" width="4" height="5">
<path d="M54 22.9746L50.8272 22.9746V18.0438H54V22.9746Z" fill="white"/>
</mask>
<g mask="url(#mask2_77_7190)">
<path d="M51.0849 21.9124C51.5398 22.1573 52.1424 22.4916 52.5866 22.7544C53.0105 22.3334 53.5724 21.7666 53.9868 21.336C53.999 20.56 53.9733 19.7703 53.9083 18.971C53.4384 18.6876 52.8087 18.3161 52.3307 18.0506C51.9068 18.5088 51.3381 19.1182 50.9047 19.5667C50.9955 20.3619 51.0551 21.1447 51.0849 21.9124Z" fill="#03482A"/>
</g>
<path d="M24.6756 30.5829C25.2322 30.8058 25.9729 31.1085 26.5254 31.3438C27.0061 30.9049 27.6453 30.3174 28.1206 29.873C28.0773 29.1067 28.0096 28.3267 27.9121 27.5342C27.3379 27.277 26.5714 26.9399 25.9919 26.695C25.5017 27.1696 24.8435 27.7998 24.3479 28.2689C24.4739 29.0558 24.5822 29.829 24.6756 30.5829Z" fill="#03482A"/>
<path d="M19.942 31.5883C20.5771 31.7932 21.4234 32.0684 22.0572 32.2803C22.5609 31.8318 23.2339 31.2319 23.7363 30.7807C23.6307 30.0295 23.5102 29.2591 23.3761 28.4735C22.7275 28.2382 21.8608 27.9273 21.2081 27.6989C20.6827 28.1818 19.9785 28.8271 19.4504 29.3086C19.617 30.0859 19.7808 30.8481 19.942 31.5883Z" fill="url(#paint19_linear_77_7190)" fill-opacity="0.4"/>
<path d="M15.133 32.6371C15.783 32.8407 16.651 33.109 17.3024 33.3071C17.7926 32.8545 18.4467 32.2519 18.9409 31.8048C18.7649 31.0674 18.5888 30.3093 18.4155 29.532C17.7262 29.3133 16.8068 29.0202 16.1189 28.7973C15.6219 29.2734 14.9638 29.9103 14.4749 30.3946C14.6821 31.1637 14.9015 31.9121 15.133 32.6371Z" fill="#03482A"/>
<path d="M10.9545 33.5777C11.549 33.791 12.3425 34.073 12.9397 34.2766C13.3162 33.8405 13.8253 33.2654 14.2153 32.8417C13.9702 32.1194 13.74 31.3723 13.5261 30.6047C12.9004 30.379 12.069 30.0722 11.4474 29.8342C11.0534 30.2896 10.5334 30.9005 10.1529 31.3668C10.3939 32.1277 10.6634 32.8664 10.9545 33.5777Z" fill="url(#paint20_linear_77_7190)"/>
<path d="M7.64181 34.3496C8.15233 34.5807 8.83347 34.8834 9.35076 35.0994C9.59722 34.688 9.9344 34.146 10.2012 33.7484C9.89919 33.0398 9.62159 32.3038 9.37378 31.543C8.84024 31.3022 8.13066 30.9748 7.60525 30.7161C7.33306 31.1454 6.97692 31.7232 6.72505 32.1662C6.99588 32.9215 7.30192 33.6507 7.64181 34.3496Z" fill="url(#paint21_linear_77_7190)"/>
<path d="M5.3739 34.9138C5.76796 35.1697 6.3015 35.5012 6.7091 35.7351C6.80796 35.354 6.95556 34.8505 7.08691 34.4804C6.73889 33.7829 6.42608 33.0551 6.15119 32.3012C5.73411 32.0398 5.18161 31.6821 4.77807 31.3959C4.64401 31.7976 4.47745 32.3383 4.3786 32.7497C4.66839 33.4995 5.00151 34.2218 5.3739 34.9138Z" fill="url(#paint22_linear_77_7190)" fill-opacity="0.4"/>
<path d="M4.33087 35.2322C4.57868 35.5183 4.92128 35.8884 5.19482 36.1484C5.13389 35.8072 5.0716 35.3491 5.05399 35.0024C4.67754 34.3118 4.34035 33.5909 4.04785 32.8411C3.76889 32.5522 3.40598 32.1546 3.15681 31.8381C3.18119 32.2123 3.22994 32.7118 3.30036 33.0777C3.59827 33.8261 3.94358 34.5443 4.33087 35.2322Z" fill="url(#paint23_linear_77_7190)"/>
<path d="M36.6791 34.7845C36.7996 35.006 36.9526 35.3087 37.0393 35.5481C37.4157 35.233 37.9154 34.8093 38.2837 34.486C38.6345 33.8476 38.9486 33.1818 39.2222 32.4911C39.0895 32.216 38.8972 31.8541 38.7306 31.5982C38.3406 31.9711 37.8179 32.4636 37.4184 32.8268C37.2058 33.5051 36.958 34.1599 36.6791 34.7845Z" fill="url(#paint24_linear_77_7190)" fill-opacity="0.4"/>
<path d="M28.1979 37.1668C28.4389 37.3594 28.7558 37.6235 28.9792 37.8381C29.3922 37.5107 29.9407 37.0718 30.3496 36.7403C30.6083 36.1198 30.8358 35.469 31.0308 34.7935C30.7545 34.5473 30.3781 34.2267 30.0856 34.0011C29.6455 34.3849 29.0578 34.894 28.6136 35.2737C28.5012 35.9327 28.3617 36.5655 28.1979 37.1668Z" fill="url(#paint25_linear_77_7190)"/>
<path d="M43.3963 34.7965C43.7497 34.9643 44.221 35.1941 44.5677 35.3784C44.982 35.0455 45.5359 34.6025 45.9503 34.2695C46.0884 33.6725 46.2021 33.0451 46.2915 32.3916C45.8907 32.1729 45.3517 31.8908 44.9428 31.69C44.4878 32.0779 43.8797 32.5952 43.4234 32.9832C43.4302 33.6174 43.4207 34.2228 43.3963 34.7965Z" fill="url(#paint26_linear_77_7190)"/>
<path d="M21.5225 38.5651C21.9788 38.711 22.5869 38.9091 23.0405 39.0659C23.4278 38.7357 23.9464 38.2955 24.3364 37.9667C24.331 37.3999 24.3121 36.8 24.2782 36.1713C23.7704 35.9814 23.0933 35.7324 22.5828 35.5522C22.1427 35.9388 21.5563 36.4547 21.1176 36.844C21.2584 37.4494 21.3938 38.0245 21.5225 38.5651Z" fill="url(#paint27_linear_77_7190)" fill-opacity="0.4"/>
<path d="M17.9555 39.3391C18.4714 39.4739 19.158 39.6528 19.6726 39.7876C20.0016 39.4643 20.4431 39.0364 20.7803 38.7214C20.6191 38.1876 20.4526 37.618 20.2847 37.0182C19.6983 36.8517 18.9156 36.6302 18.3292 36.4651C17.9596 36.8352 17.4707 37.3318 17.1132 37.7129C17.3895 38.2894 17.6698 38.8328 17.9555 39.3391Z" fill="#03482A"/>
<path d="M14.8602 40.0338C15.3775 40.1672 16.0667 40.3433 16.5854 40.4727C16.7858 40.1714 17.0593 39.7751 17.2773 39.4876C16.9618 38.9882 16.6531 38.4503 16.3511 37.8807C15.7742 37.717 15.0037 37.4982 14.4282 37.3304C14.1831 37.673 13.8622 38.1352 13.636 38.4929C14.0301 39.0432 14.439 39.5578 14.8602 40.0338Z" fill="url(#paint28_linear_77_7190)"/>
<path d="M12.4026 40.6107C12.8942 40.7483 13.5496 40.9285 14.0425 41.0579C14.1062 40.7855 14.205 40.4264 14.2998 40.1636C13.8543 39.6931 13.4223 39.1841 13.0079 38.6392C12.469 38.4714 11.7513 38.2472 11.215 38.0697C11.1013 38.3875 10.9577 38.814 10.8765 39.14C11.3626 39.6683 11.8732 40.1595 12.4026 40.6107Z" fill="url(#paint29_linear_77_7190)"/>
<path d="M10.7213 41.0289C11.156 41.1788 11.7369 41.3728 12.1743 41.509C12.1039 41.2724 12.024 40.9518 11.9929 40.707C11.4444 40.2612 10.919 39.7742 10.4166 39.25C9.94537 39.0725 9.31975 38.8318 8.85527 38.6405C8.87829 38.9336 8.92434 39.3243 8.98934 39.6105C9.53912 40.1223 10.1187 40.5969 10.7213 41.0289Z" fill="url(#paint30_linear_77_7190)" fill-opacity="0.4"/>
<path d="M9.94771 41.265C10.289 41.4342 10.7494 41.6529 11.1001 41.8015C10.9051 41.6007 10.6519 41.3214 10.484 41.0944C9.87052 40.6651 9.28146 40.1946 8.72219 39.6842C8.3498 39.4916 7.85824 39.2247 7.49804 39.0101C7.67137 39.2797 7.91512 39.6305 8.11959 39.8754C8.69917 40.379 9.3099 40.8426 9.94771 41.265Z" fill="url(#paint31_linear_77_7190)" fill-opacity="0.4"/>
<path d="M26.6318 42.064C26.5004 42.2071 26.3162 42.3915 26.1673 42.5139C26.5153 42.3433 26.9757 42.1136 27.3197 41.9361C27.9074 41.5578 28.4667 41.1368 28.9948 40.6745C29.0855 40.4915 29.1965 40.2425 29.2534 40.0458C28.8851 40.2907 28.3949 40.6153 28.0238 40.8561C27.5864 41.3005 27.122 41.7036 26.6318 42.064Z" fill="url(#paint32_linear_77_7190)"/>
<path d="M25.4976 42.286C25.4732 42.4057 25.4245 42.5625 25.3636 42.6685C25.6818 42.5006 26.1043 42.275 26.4198 42.103C26.8802 41.7494 27.3163 41.3505 27.7266 40.9116C27.709 40.7437 27.6683 40.5209 27.6115 40.3613C27.2567 40.6048 26.7814 40.9281 26.4252 41.1702C26.1381 41.5843 25.828 41.9586 25.4976 42.286Z" fill="url(#paint33_linear_77_7190)" fill-opacity="0.4"/>
<path d="M24.1428 42.5667C24.2187 42.6507 24.3175 42.769 24.3636 42.8735C24.6263 42.7139 24.9756 42.5007 25.2384 42.3411C25.5308 42.0206 25.8057 41.6546 26.0576 41.246C25.9181 41.096 25.7218 40.9076 25.5647 40.7782C25.2492 41.0135 24.828 41.3285 24.5125 41.5652C24.4055 41.9435 24.2823 42.2778 24.1428 42.5667Z" fill="url(#paint34_linear_77_7190)" fill-opacity="0.4"/>
<path d="M22.6369 42.8816C22.8143 42.9449 23.0486 43.0316 23.2206 43.1086C23.4061 42.9614 23.6553 42.7675 23.8435 42.6257C23.9396 42.3451 24.0222 42.019 24.0913 41.6489C23.8354 41.5265 23.4901 41.371 23.2274 41.2637C22.9741 41.4852 22.6383 41.7824 22.3891 42.0108C22.4812 42.3465 22.5638 42.6381 22.6369 42.8816Z" fill="#03482A"/>
<path d="M21.1087 43.2156C21.3782 43.261 21.7357 43.3229 22.0052 43.3711C22.0918 43.239 22.2164 43.0712 22.3193 42.9515C22.2002 42.7176 22.0742 42.4356 21.9402 42.1081C21.5813 42.0146 21.1019 41.8908 20.7404 41.8013C20.582 42.0008 20.3734 42.2691 20.2326 42.4823C20.5264 42.774 20.8189 43.0189 21.1087 43.2156Z" fill="url(#paint35_linear_77_7190)" fill-opacity="0.4"/>
<path d="M19.7795 43.5168C20.1113 43.5498 20.5554 43.5924 20.8872 43.6213C20.8479 43.525 20.8141 43.3875 20.8154 43.2829C20.485 43.0958 20.1533 42.8592 19.8201 42.5757C19.4125 42.496 18.8668 42.39 18.4592 42.3102C18.4145 42.4863 18.3658 42.7243 18.359 42.9059C18.8275 43.1577 19.3028 43.3627 19.7795 43.5168Z" fill="url(#paint36_linear_77_7190)"/>
<mask id="mask3_77_7190" style="mask-type:luminance" maskUnits="userSpaceOnUse" x="16" y="42" width="4" height="2">
<path d="M19.9751 44H16.5085V42.6971H19.9751V44Z" fill="white"/>
</mask>
<g mask="url(#mask3_77_7190)">
<path d="M18.7301 43.763C19.1039 43.785 19.6009 43.8139 19.9746 43.8318C19.8392 43.7657 19.6604 43.6667 19.544 43.5704C19.0335 43.4246 18.5257 43.2264 18.0246 42.9816C17.5926 42.9114 17.0171 42.8151 16.5865 42.7408C16.6583 42.9018 16.7707 43.1123 16.8763 43.2526C17.4857 43.4713 18.1045 43.6433 18.7301 43.763Z" fill="url(#paint37_linear_77_7190)" fill-opacity="0.4"/>
</g>
<mask id="mask4_77_7190" style="mask-type:luminance" maskUnits="userSpaceOnUse" x="15" y="43" width="5" height="1">
<path d="M19.627 44H15.1203V43.0493H19.627V44Z" fill="white"/>
</mask>
<g mask="url(#mask4_77_7190)">
<path d="M18.0067 43.9491C18.3927 43.9684 18.9086 43.9904 19.2959 44C19.0698 43.9532 18.7705 43.8831 18.5511 43.8101C17.8998 43.6973 17.2565 43.5322 16.6255 43.3176C16.1976 43.2502 15.6288 43.1566 15.2023 43.081C15.3905 43.2213 15.6519 43.3974 15.8563 43.513C16.5605 43.7083 17.2782 43.8542 18.0067 43.9491Z" fill="#03482A"/>
</g>
<path d="M23.3391 11.3035C23.8361 11.4273 24.4969 11.5951 24.9925 11.7258C25.0155 11.503 25.0345 11.203 25.0196 10.9788C24.459 10.6128 23.8808 10.2881 23.2904 10.0116C22.8475 9.92907 22.2558 9.82038 21.8116 9.74334C21.8549 9.90155 21.8956 10.1175 21.8996 10.2813C22.3898 10.5771 22.8706 10.9196 23.3391 11.3035Z" fill="#03482A"/>
<path d="M24.8103 4.14211C25.3087 4.26455 25.9722 4.42827 26.4692 4.55347C26.61 4.3072 26.7928 3.97564 26.9106 3.717C26.4678 3.32628 26.0155 2.9782 25.5565 2.67553C25.1232 2.59436 24.5476 2.48705 24.1157 2.40863C24.0371 2.59849 23.9207 2.84888 23.8191 3.02773C24.1522 3.35654 24.484 3.728 24.8103 4.14211Z" fill="url(#paint38_linear_77_7190)"/>
<path d="M17.7737 12.4508C18.2436 12.5787 18.8692 12.7493 19.3391 12.8745C19.5923 12.6021 19.9255 12.2348 20.1665 11.95C19.8713 11.5304 19.5734 11.1507 19.2755 10.8164C18.8828 10.7297 18.3587 10.6141 17.966 10.5274C17.7696 10.7421 17.5029 11.0255 17.297 11.2305C17.4514 11.595 17.6099 12.0036 17.7737 12.4508Z" fill="url(#paint39_linear_77_7190)" fill-opacity="0.4"/>
<path d="M14.583 13.1383C14.9947 13.2772 15.5472 13.4602 15.9629 13.5923C16.3164 13.2937 16.7863 12.8934 17.1343 12.588C17.0056 12.1326 16.8824 11.7157 16.7673 11.3429C16.4369 11.2466 15.9968 11.1173 15.6677 11.0155C15.3671 11.2521 14.9622 11.5658 14.6575 11.7983C14.6183 12.2055 14.5939 12.6526 14.583 13.1383Z" fill="url(#paint40_linear_77_7190)"/>
<path d="M11.6095 13.794C11.8979 13.9632 12.2865 14.1792 12.5845 14.3306C12.9907 14.0141 13.5337 13.5932 13.94 13.2767C13.9874 12.7842 14.0483 12.3274 14.1255 11.9133C13.8953 11.8005 13.5906 11.6464 13.3712 11.5157C13.0191 11.7634 12.5492 12.0922 12.1985 12.3412C11.9805 12.7869 11.7828 13.2726 11.6095 13.794Z" fill="#03482A"/>
<path d="M9.13803 14.3622C9.29105 14.559 9.50771 14.8121 9.68376 14.9868C10.0941 14.6663 10.6425 14.2384 11.0569 13.922C11.2614 13.3937 11.4888 12.8998 11.7407 12.4471C11.627 12.3096 11.4807 12.1211 11.3954 11.9642C11.0217 12.216 10.5247 12.5544 10.1536 12.8117C9.78667 13.2919 9.44813 13.8105 9.13803 14.3622Z" fill="url(#paint41_linear_77_7190)" fill-opacity="0.4"/>
<path d="M7.29751 14.8046C7.31511 15.0206 7.35438 15.3109 7.41126 15.52C7.79719 15.1995 8.31584 14.7743 8.70854 14.462C9.04166 13.9049 9.40458 13.3793 9.79729 12.8937C9.79729 12.7231 9.81218 12.4919 9.8501 12.3255C9.48312 12.5772 8.99427 12.9157 8.63135 13.1757C8.15334 13.6834 7.70782 14.2268 7.29751 14.8046Z" fill="url(#paint42_linear_77_7190)" fill-opacity="0.4"/>
<path d="M6.20299 15.0965C6.09737 15.3331 5.96601 15.655 5.89289 15.9041C6.2233 15.5918 6.66882 15.179 7.01007 14.8777C7.43663 14.2958 7.8984 13.7482 8.39402 13.2364C8.50912 13.0342 8.67704 12.7728 8.81787 12.5871C8.4861 12.8319 8.04871 13.1621 7.72642 13.418C7.18205 13.9436 6.67288 14.5035 6.20299 15.0965Z" fill="url(#paint43_linear_77_7190)"/>
<path d="M37.0453 8.66088C37.5057 8.89614 38.1178 9.21945 38.5687 9.47534C38.6256 9.14653 38.6879 8.70353 38.7041 8.36922C38.2681 7.73499 37.7968 7.13377 37.2931 6.5697C36.8652 6.34958 36.2896 6.06342 35.8522 5.86393C35.8373 6.15835 35.8008 6.55044 35.748 6.84073C36.2097 7.41305 36.6431 8.01977 37.0453 8.66088Z" fill="url(#paint44_linear_77_7190)" fill-opacity="0.4"/>
<path d="M27.7936 16.9782C28.3447 17.1956 29.0787 17.4886 29.6244 17.7197C29.8221 17.3606 30.078 16.8764 30.25 16.5035C29.8586 15.8611 29.4375 15.2516 28.9879 14.6779C28.4733 14.4812 27.7841 14.2239 27.2641 14.0409C27.1056 14.3697 26.8822 14.8031 26.6994 15.1195C27.0853 15.7056 27.451 16.3274 27.7936 16.9782Z" fill="url(#paint45_linear_77_7190)"/>
<path d="M24.0096 17.7454C24.6163 17.949 25.4261 18.2242 26.03 18.436C26.3509 18.0467 26.7721 17.5239 27.0781 17.1235C26.7504 16.4687 26.401 15.8441 26.0327 15.2552C25.468 15.0736 24.7138 14.8356 24.1464 14.6623C23.8606 15.0186 23.4734 15.4891 23.1741 15.8344C23.4625 16.4398 23.7428 17.0781 24.0096 17.7454Z" fill="url(#paint46_linear_77_7190)"/>
<path d="M19.6603 18.6522C20.2913 18.849 21.1309 19.1131 21.7606 19.314C22.1831 18.8985 22.7424 18.3413 23.1567 17.9189C22.9062 17.2475 22.6462 16.6064 22.3781 15.9956C21.7985 15.8236 21.0239 15.5939 20.443 15.4233C20.0489 15.803 19.5222 16.3065 19.1213 16.678C19.3001 17.3067 19.4802 17.9657 19.6603 18.6522Z" fill="url(#paint47_linear_77_7190)"/>
<path d="M33.7819 14.0776C34.4021 14.2758 35.2295 14.5385 35.851 14.7339C36.3507 14.2978 37.0156 13.7131 37.5112 13.2728C37.3501 12.5835 37.1916 11.9191 37.0359 11.2862C36.4712 11.1142 35.7183 10.8858 35.1536 10.7125C34.677 11.1101 34.0405 11.6398 33.5611 12.036C33.6221 12.6895 33.6952 13.3719 33.7819 14.0776Z" fill="url(#paint48_linear_77_7190)" fill-opacity="0.4"/>
<path d="M10.649 20.622C11.1608 20.8435 11.8461 21.1351 12.3647 21.3442C12.8698 20.8985 13.5455 20.3055 14.0547 19.8653C13.987 19.1554 13.9355 18.4689 13.899 17.8085C13.4142 17.6283 12.7696 17.382 12.2902 17.1866C11.819 17.5829 11.192 18.1125 10.7248 18.5143C10.6747 19.1925 10.649 19.8969 10.649 20.622Z" fill="url(#paint49_linear_77_7190)" fill-opacity="0.4"/>
<path d="M7.03917 21.4458C7.42104 21.6962 7.93698 22.0223 8.33104 22.2534C8.78062 21.8132 9.38457 21.2312 9.84228 20.8006C9.85853 20.0728 9.90322 19.3643 9.97363 18.6819C9.61478 18.4769 9.13812 18.199 8.79145 17.9748C8.35948 18.3627 7.78667 18.8841 7.36146 19.2817C7.21927 19.982 7.11094 20.7043 7.03917 21.4458Z" fill="url(#paint50_linear_77_7190)" fill-opacity="0.4"/>
<path d="M4.34874 22.0946C4.58436 22.3752 4.91071 22.7412 5.17071 22.9971C5.53633 22.572 6.0306 22.0093 6.41112 21.5952C6.49508 20.8509 6.61695 20.1245 6.77539 19.4214C6.54789 19.1903 6.25133 18.8739 6.04956 18.6207C5.68665 18.9949 5.20592 19.4998 4.85519 19.8864C4.64394 20.6018 4.47467 21.3406 4.34874 22.0946Z" fill="url(#paint51_linear_77_7190)" fill-opacity="0.4"/>
<path d="M2.74755 22.5246C2.82203 22.8328 2.93984 23.24 3.0563 23.5344C3.30817 23.1286 3.65348 22.5934 3.92702 22.204C4.06108 21.4474 4.23983 20.7072 4.46191 19.989C4.37119 19.7221 4.26421 19.3631 4.21546 19.0865C3.9514 19.4401 3.60609 19.9175 3.36234 20.2876C3.11046 21.014 2.90463 21.761 2.74755 22.5246Z" fill="url(#paint52_linear_77_7190)"/>
<mask id="mask5_77_7190" style="mask-type:luminance" maskUnits="userSpaceOnUse" x="2" y="19" width="2" height="6">
<path d="M3.68115 24.041H2.00064L2.00064 19.1102H3.68115L3.68115 24.041Z" fill="white"/>
</mask>
<g mask="url(#mask5_77_7190)">
<path d="M2.17311 23.8208C2.27603 23.4452 2.4304 22.9486 2.56988 22.5854C2.73238 21.8204 2.94228 21.072 3.19821 20.3442C3.25644 20.0374 3.35123 19.6316 3.44873 19.3358L3.30248 19.6646C3.07634 20.2823 2.78384 21.1105 2.59561 21.742C2.4778 22.2497 2.31395 22.9252 2.22051 23.4383L2.17311 23.8208Z" fill="#03482A"/>
</g>
<path d="M33.722 24.4521C34.0728 24.7534 34.5359 25.1634 34.865 25.488C35.0789 25.0891 35.3538 24.5498 35.5366 24.1343C35.4784 23.7284 35.408 23.3198 35.3227 22.9112C35.2387 22.5026 35.1412 22.1009 35.0315 21.7047C34.6916 21.3841 34.2285 20.9686 33.8656 20.6742C33.6828 21.0842 33.4268 21.6262 33.2183 22.0225C33.3239 22.4187 33.4201 22.8218 33.504 23.2304C33.5893 23.639 33.6625 24.0462 33.722 24.4521Z" fill="url(#paint53_linear_77_7190)" fill-opacity="0.4"/>
<path d="M39.6268 20.555C40.1048 20.8274 40.7399 21.1988 41.2071 21.4905C41.547 21.0599 41.9925 20.4807 42.3135 20.0349C42.2525 19.6291 42.1794 19.2218 42.0941 18.8132C42.0101 18.4046 41.914 18.0015 41.8097 17.6053C41.3331 17.3178 40.6939 16.9422 40.2078 16.6753C39.8882 17.1155 39.4562 17.6975 39.1231 18.1253C39.2233 18.5229 39.3167 18.926 39.4007 19.3346C39.486 19.7432 39.5605 20.1491 39.6268 20.555Z" fill="url(#paint54_linear_77_7190)"/>
<path d="M26.307 25.9178C26.8852 26.1695 27.6557 26.5094 28.2285 26.7708C28.6632 26.3154 29.2387 25.7032 29.6626 25.2381C29.5962 24.8323 29.5204 24.4251 29.4351 24.0178C29.3498 23.6092 29.2577 23.2061 29.1589 22.8071C28.582 22.5471 27.8115 22.2032 27.2292 21.9569C26.804 22.4192 26.2352 23.0328 25.8019 23.4882C25.8967 23.8871 25.9861 24.2916 26.0714 24.7002C26.1553 25.1074 26.2339 25.5147 26.307 25.9178Z" fill="#03482A"/>
<path d="M41.7344 27.3905C42.3858 27.6244 43.2538 27.9394 43.9025 28.1802C44.4021 27.7055 45.0643 27.0699 45.5586 26.5884C45.4841 26.1853 45.4056 25.7794 45.3203 25.3708C45.235 24.9622 45.1469 24.5578 45.0535 24.1588C44.4089 23.9166 43.5504 23.5975 42.9031 23.365C42.402 23.8451 41.7331 24.4835 41.2307 24.9595C41.3174 25.3598 41.4027 25.7657 41.488 26.1729C41.572 26.5815 41.6546 26.9874 41.7344 27.3905Z" fill="#03482A"/>
<path d="M16.4492 28.0101C17.1412 28.2358 18.0647 28.5343 18.7567 28.7585C19.2889 28.2715 19.9985 27.6208 20.5293 27.131C20.4467 26.7279 20.3641 26.3234 20.2788 25.9148C20.1935 25.5062 20.1082 25.1017 20.0242 24.7014C19.3444 24.4716 18.4385 24.169 17.7573 23.9433C17.213 24.4331 16.4871 25.088 15.9455 25.5805C16.024 25.9822 16.1053 26.3881 16.1892 26.7967C16.2745 27.2053 16.3612 27.6098 16.4492 28.0101Z" fill="url(#paint55_linear_77_7190)"/>
<path d="M11.6962 29.057C12.3232 29.2978 13.1614 29.6115 13.7924 29.8398C14.2786 29.3528 14.9299 28.7076 15.4229 28.2302C15.3321 27.8298 15.2455 27.4254 15.1601 27.0168C15.0748 26.6081 14.9949 26.2023 14.9178 25.7992C14.2786 25.5708 13.4282 25.2626 12.7931 25.0246C12.3083 25.502 11.6664 26.1404 11.1925 26.6274C11.2629 27.0305 11.3401 27.4377 11.4254 27.8463C11.5093 28.255 11.6001 28.6581 11.6962 29.057Z" fill="url(#paint56_linear_77_7190)" fill-opacity="0.4"/>
<path d="M7.7501 29.9645C8.28093 30.2231 8.99322 30.563 9.53218 30.8037C9.91269 30.3359 10.4232 29.7168 10.8159 29.2587C10.7184 28.8611 10.6277 28.4566 10.5424 28.0494C10.4584 27.6408 10.3812 27.2336 10.3122 26.8291C9.77592 26.5828 9.06228 26.2499 8.53281 25.9899C8.1401 26.448 7.62281 27.063 7.24636 27.5349C7.31 27.9393 7.38448 28.3466 7.46979 28.7552C7.55375 29.1638 7.64719 29.5669 7.7501 29.9645Z" fill="url(#paint57_linear_77_7190)"/>
<path d="M4.80685 30.6722C5.2158 30.957 5.7683 31.3271 6.19215 31.5898C6.44403 31.1441 6.78798 30.5566 7.06152 30.126C6.95725 29.7284 6.86382 29.3253 6.7785 28.9181C6.69319 28.5095 6.62007 28.1023 6.55642 27.6964C6.14205 27.4281 5.59362 27.0635 5.19278 26.7746C4.91518 27.2094 4.55498 27.7927 4.30175 28.2426C4.36133 28.6484 4.43446 29.057 4.51841 29.4656C4.60372 29.8743 4.69987 30.276 4.80685 30.6722Z" fill="url(#paint58_linear_77_7190)" fill-opacity="0.4"/>
<path d="M3.05508 31.1433C3.31372 31.4583 3.67122 31.8683 3.95966 32.1572C4.05986 31.7445 4.20882 31.1956 4.34424 30.7925C4.23726 30.3962 4.13976 29.9945 4.0558 29.5859C3.97049 29.1773 3.89872 28.7687 3.84049 28.3628C3.5656 28.067 3.20674 27.6626 2.95893 27.3434C2.82081 27.7492 2.65019 28.2954 2.54998 28.7137C2.60685 29.1209 2.67727 29.5295 2.76123 29.9367C2.84654 30.3453 2.94404 30.7484 3.05508 31.1433Z" fill="url(#paint59_linear_77_7190)" fill-opacity="0.4"/>
<mask id="mask6_77_7190" style="mask-type:luminance" maskUnits="userSpaceOnUse" x="2" y="27" width="2" height="6">
<path d="M3.33398 32.479H2.00014L2.00014 27.5482H3.33398L3.33398 32.479Z" fill="white"/>
</mask>
<g mask="url(#mask6_77_7190)">
<path d="M3.0249 32.4517C2.95584 32.0788 2.88272 31.5794 2.86105 31.2011C2.75136 30.8049 2.65251 30.4031 2.56855 29.9959C2.48324 29.5859 2.41282 29.1787 2.3573 28.7715C2.23814 28.4371 2.0973 27.9845 2.02553 27.6364L2.0472 28.129C2.12845 28.7219 2.23272 29.513 2.34511 30.1005C2.4873 30.6659 2.67147 31.424 2.84345 31.9825L3.0249 32.4517Z" fill="url(#paint60_linear_77_7190)"/>
</g>
<path d="M35.1122 32.5216C35.1298 32.8298 35.1366 33.2425 35.1109 33.5493C35.3099 33.2288 35.5686 32.7954 35.7392 32.4583C35.9992 31.7264 36.2145 30.9752 36.3784 30.2089C36.3906 29.865 36.3892 29.4041 36.3526 29.0602C36.1712 29.433 35.9152 29.9228 35.7053 30.2791C35.5537 31.044 35.356 31.7925 35.1122 32.5216Z" fill="url(#paint61_linear_77_7190)" fill-opacity="0.4"/>
<path d="M30.4916 33.3719C30.7855 33.6085 31.1741 33.9305 31.449 34.1877C31.8525 33.8135 32.3861 33.3128 32.7801 32.9289C32.9602 32.2108 33.1011 31.472 33.2026 30.7153C32.8898 30.4305 32.4646 30.0604 32.1329 29.7976C31.7212 30.2186 31.1673 30.7786 30.7462 31.1913C30.6934 31.937 30.6081 32.6661 30.4916 33.3719Z" fill="url(#paint62_linear_77_7190)"/>
<path d="M26.964 34.0819C27.3783 34.2924 27.9268 34.5772 28.3303 34.8042C28.7799 34.4162 29.3784 33.8962 29.824 33.5027C29.9228 32.7997 29.9919 32.0747 30.0298 31.3304C29.5856 31.0772 28.9911 30.7457 28.5389 30.509C28.0663 30.9438 27.4366 31.523 26.9613 31.9536C26.9843 32.6841 26.9856 33.3954 26.964 34.0819Z" fill="url(#paint63_linear_77_7190)" fill-opacity="0.4"/>
<path d="M22.9118 34.9313C23.4278 35.1198 24.1143 35.3729 24.6262 35.571C25.0893 35.1762 25.7068 34.6465 26.1699 34.2489C26.1686 33.5665 26.1483 32.8594 26.1076 32.1316C25.5578 31.9046 24.8239 31.6074 24.27 31.3928C23.7731 31.8344 23.1095 32.4233 22.6125 32.8649C22.7222 33.5775 22.8224 34.2682 22.9118 34.9313Z" fill="url(#paint64_linear_77_7190)"/>
<path d="M18.5624 35.8686C19.1596 36.0378 19.9545 36.2662 20.549 36.4409C20.9945 36.0433 21.5903 35.515 22.0386 35.1188C21.9248 34.4612 21.803 33.7747 21.6743 33.0648C21.0433 32.8611 20.2023 32.5915 19.5699 32.3934C19.0811 32.835 18.4297 33.4238 17.945 33.8696C18.1481 34.563 18.3539 35.2302 18.5624 35.8686Z" fill="#03482A"/>
<path d="M14.5143 36.7657C15.102 36.9377 15.8847 37.1647 16.4738 37.3325C16.8326 36.9459 17.3174 36.4355 17.6885 36.0599C17.4556 35.4271 17.2281 34.7653 17.006 34.0761C16.3655 33.8821 15.511 33.6207 14.8718 33.4226C14.4845 33.8408 13.974 34.4021 13.5989 34.8327C13.8887 35.5055 14.1947 36.1521 14.5143 36.7657Z" fill="#03482A"/>
<path d="M11.151 37.5351C11.6967 37.7153 12.4253 37.952 12.9737 38.1226C13.2026 37.7607 13.5154 37.2833 13.7632 36.9353C13.4233 36.3258 13.0996 35.6847 12.7936 35.0147C12.2059 34.8138 11.4232 34.5428 10.8382 34.3323C10.5755 34.7244 10.2315 35.2527 9.98914 35.6585C10.3521 36.3162 10.7407 36.9421 11.151 37.5351Z" fill="#03482A"/>
<path d="M8.64523 38.1391C9.11919 38.3345 9.75293 38.5876 10.2323 38.7678C10.319 38.4363 10.4476 37.996 10.5654 37.6741C10.1389 37.0852 9.73533 36.462 9.36158 35.8072C8.85377 35.5939 8.1794 35.305 7.67836 35.0766C7.55107 35.4412 7.39264 35.9323 7.30055 36.3066C7.71628 36.9518 8.16586 37.5626 8.64523 38.1391Z" fill="url(#paint65_linear_77_7190)"/>
<path d="M7.1531 38.5366C7.52143 38.754 8.01841 39.0346 8.39893 39.23C8.33799 38.9356 8.27164 38.538 8.25268 38.2367C7.76247 37.6643 7.30341 37.0549 6.87821 36.4124C6.47873 36.1813 5.95061 35.8635 5.56467 35.6103C5.58769 35.9488 5.63238 36.4 5.69873 36.7329C6.14696 37.3686 6.6331 37.9711 7.1531 38.5366Z" fill="url(#paint66_linear_77_7190)"/>
<path d="M7.63086 39.4761C7.42503 39.2202 7.16097 38.8694 6.98763 38.5901C6.46222 38.026 5.97201 37.4248 5.52108 36.7906C5.25702 36.5319 4.91442 36.177 4.68015 35.8922L4.96587 36.3806C5.3166 36.8635 5.7865 37.5073 6.16295 37.9696C6.47035 38.3067 6.86982 38.7634 7.19211 39.0854L7.63086 39.4761Z" fill="url(#paint67_linear_77_7190)"/>
<path d="M33.255 39.1315C33.1981 39.3337 33.1088 39.602 33.018 39.7932C33.3728 39.5483 33.8454 39.2195 34.1935 38.9664C34.7121 38.4394 35.1955 37.8768 35.6424 37.2824C35.6871 37.0389 35.7318 36.7087 35.7358 36.4611C35.3702 36.7706 34.88 37.1806 34.5063 37.4819C34.123 38.0652 33.7046 38.6169 33.255 39.1315Z" fill="url(#paint68_linear_77_7190)" fill-opacity="0.4"/>
<path d="M28.0599 39.9399C28.1181 40.1092 28.1844 40.3417 28.2034 40.5205C28.5785 40.2674 29.0782 39.9289 29.4492 39.6717C29.8771 39.1599 30.2739 38.6123 30.6382 38.0331C30.5542 37.8075 30.4242 37.5117 30.3051 37.3039C29.9015 37.6217 29.3639 38.0441 28.9577 38.3592C28.6855 38.9205 28.3862 39.4488 28.0599 39.9399Z" fill="#03482A"/>
<path d="M25.9179 40.3711C26.0831 40.5128 26.2998 40.7068 26.446 40.8691C26.8089 40.6146 27.2924 40.2748 27.6553 40.0189C27.9518 39.5346 28.2227 39.0118 28.4678 38.4547C28.2511 38.2552 27.9545 37.9951 27.7203 37.8163C27.3154 38.1355 26.7737 38.562 26.3688 38.8811C26.2375 39.4136 26.0872 39.913 25.9179 40.3711Z" fill="url(#paint69_linear_77_7190)"/>
<path d="M23.458 40.8803C23.7301 40.9986 24.0931 41.161 24.3585 41.2944C24.6821 41.0454 25.1127 40.7139 25.4364 40.4662C25.5718 40.0136 25.6883 39.5224 25.7871 38.9955C25.4499 38.8235 24.9976 38.6007 24.6523 38.4438C24.2745 38.7589 23.7708 39.1799 23.3943 39.4977C23.4268 39.9957 23.4485 40.4593 23.458 40.8803Z" fill="url(#paint70_linear_77_7190)" fill-opacity="0.4"/>
<path d="M20.8151 41.4508C21.1889 41.5485 21.6872 41.6806 22.0596 41.7852C22.3169 41.5458 22.6636 41.2293 22.9263 40.9955C22.8789 40.5827 22.8206 40.1273 22.7529 39.6348C22.3101 39.4904 21.7184 39.3005 21.2742 39.1643C20.9492 39.4684 20.5172 39.8742 20.2003 40.1865C20.4075 40.6474 20.6134 41.0698 20.8151 41.4508Z" fill="url(#paint71_linear_77_7190)" fill-opacity="0.4"/>
<path d="M18.3559 41.9953C18.777 42.0833 19.339 42.2003 19.7615 42.2883C19.9104 42.0655 20.1176 41.7765 20.2842 41.5674C20.0431 41.1946 19.8007 40.7805 19.5584 40.3265C19.0587 40.1999 18.3938 40.0307 17.8954 39.9041C17.6883 40.1806 17.4161 40.5535 17.2265 40.8438C17.5975 41.2703 17.974 41.6541 18.3559 41.9953Z" fill="#03482A"/>
<path d="M16.3119 42.4657C16.7547 42.5482 17.3437 42.6569 17.7865 42.7354C17.8055 42.5427 17.8461 42.2868 17.8989 42.1011C17.4846 41.7668 17.0756 41.3898 16.6748 40.9716C16.171 40.8492 15.498 40.6868 14.9956 40.5603C14.9103 40.812 14.8074 41.1518 14.7559 41.4132C15.2624 41.8067 15.7824 42.1589 16.3119 42.4657Z" fill="url(#paint72_linear_77_7190)" fill-opacity="0.4"/>
<path d="M14.7886 42.8308C15.2233 42.9133 15.8042 43.022 16.2402 43.0977C16.14 42.9408 16.0195 42.7221 15.9559 42.5473C15.3993 42.2474 14.8549 41.9007 14.3255 41.5114C13.8434 41.3903 13.2015 41.2239 12.7221 41.0932C12.7628 41.3243 12.8332 41.6325 12.9144 41.854C13.5211 42.224 14.1481 42.5501 14.7886 42.8308Z" fill="#03482A"/>
<path d="M13.883 43.0767C14.2785 43.1689 14.8079 43.2858 15.2061 43.3643C15.0029 43.2349 14.7348 43.052 14.5506 42.8965C13.8912 42.62 13.2493 42.298 12.6264 41.9321C12.1971 41.8028 11.627 41.6253 11.2018 41.4836C11.3765 41.6941 11.6202 41.9651 11.8193 42.1508C12.4855 42.5058 13.1748 42.8153 13.883 43.0767Z" fill="url(#paint73_linear_77_7190)"/>
<path d="M60 17.648V10.272H62.88V15.28H65.504C66.7413 15.28 67.728 14.9333 68.464 14.24C69.2107 13.5467 69.584 12.608 69.584 11.424C69.584 10.24 69.2107 9.30133 68.464 8.608C67.728 7.91467 66.7413 7.568 65.504 7.568H63.936H62.88H60V5.2H65.648C67.6853 5.2 69.3333 5.77067 70.592 6.912C71.8613 8.04267 72.496 9.54667 72.496 11.424C72.496 13.3013 71.8613 14.8107 70.592 15.952C69.3333 17.0827 67.6853 17.648 65.648 17.648H60ZM81.2063 18.08C79.9156 18.08 78.7476 17.8027 77.7023 17.248C76.6676 16.6933 75.8569 15.9253 75.2703 14.944C74.6943 13.952 74.4062 12.848 74.4062 11.632C74.4062 10.416 74.6943 9.31733 75.2703 8.336C75.8569 7.35467 76.6676 6.58667 77.7023 6.032C78.7476 5.47733 79.9156 5.2 81.2063 5.2C82.4863 5.2 83.6436 5.47733 84.6783 6.032C85.7236 6.58667 86.5396 7.35467 87.1263 8.336C87.7129 9.31733 88.0063 10.4213 88.0063 11.648C88.0063 12.864 87.7129 13.9627 87.1263 14.944C86.5396 15.9253 85.7236 16.6933 84.6783 17.248C83.6436 17.8027 82.4863 18.08 81.2063 18.08ZM78.4223 14.512C79.1583 15.248 80.0863 15.616 81.2063 15.616C82.3263 15.616 83.2543 15.248 83.9903 14.512C84.7263 13.7653 85.0943 12.8053 85.0943 11.632C85.0943 10.4587 84.7263 9.504 83.9903 8.768C83.2543 8.02133 82.3263 7.648 81.2063 7.648C80.0863 7.648 79.1583 8.02133 78.4223 8.768C77.6863 9.504 77.3183 10.4587 77.3183 11.632C77.3183 12.8053 77.6863 13.7653 78.4223 14.512ZM100.649 17.648H97.5606L95.1606 14.176H95.0166H92.5206V17.648H89.6406V11.888H92.5206H94.2006H94.8566C95.7206 11.888 96.3766 11.7013 96.8246 11.328C97.2833 10.944 97.5126 10.4053 97.5126 9.712C97.5126 9.01867 97.2886 8.48533 96.8406 8.112C96.3926 7.73867 95.7313 7.552 94.8566 7.552H94.2006H92.5206H89.6406V5.2H95.0166C96.6806 5.2 97.998 5.60533 98.9686 6.416C99.9393 7.22667 100.425 8.32533 100.425 9.712C100.425 10.64 100.201 11.44 99.7526 12.112C99.3046 12.784 98.6753 13.296 97.8646 13.648L100.649 17.648ZM102.344 17.648V5.2H105.224V17.648H102.344ZM116.495 15.472L113.599 8.752L110.639 15.728H111.599C111.684 15.216 111.791 14.7947 111.919 14.464C112.057 14.1333 112.201 13.888 112.351 13.728C112.511 13.568 112.692 13.4773 112.895 13.456C113.108 13.4347 113.311 13.456 113.503 13.52C113.695 13.584 113.924 13.7013 114.191 13.872C114.457 14.032 114.697 14.192 114.911 14.352C115.135 14.512 115.396 14.704 115.695 14.928C116.004 15.152 116.271 15.3333 116.495 15.472ZM111.695 17.648H109.823H109.615H106.719L112.079 5.2H114.927L120.303 17.648C119.375 17.7973 118.543 17.84 117.807 17.776C117.081 17.712 116.452 17.5733 115.919 17.36C115.385 17.1467 114.905 16.9493 114.479 16.768C114.063 16.576 113.695 16.4427 113.375 16.368C113.065 16.2827 112.772 16.3413 112.495 16.544C112.217 16.736 111.951 17.104 111.695 17.648ZM130.169 5.2H133.001V17.648H130.649L124.457 10.096V17.648H121.609V5.2H123.993L130.169 12.752V5.2Z" fill="#16B364"/>
<path d="M74 38.648H71.296L71.28 31.176L67.632 37.336H66.336L62.704 31.336V38.648H60V26.2H62.384L67.024 33.944L71.6 26.2H73.968L74 38.648ZM85.2604 36.472L82.3644 29.752L79.4044 36.728H80.3644C80.4497 36.216 80.5564 35.7947 80.6844 35.464C80.823 35.1333 80.967 34.888 81.1164 34.728C81.2764 34.568 81.4577 34.4773 81.6604 34.456C81.8737 34.4347 82.0764 34.456 82.2684 34.52C82.4604 34.584 82.6897 34.7013 82.9564 34.872C83.223 35.032 83.463 35.192 83.6764 35.352C83.9004 35.512 84.1617 35.704 84.4604 35.928C84.7697 36.152 85.0364 36.3333 85.2604 36.472ZM80.4604 38.648H78.5884H78.3804H75.4844L80.8444 26.2H83.6924L89.0684 38.648C88.1404 38.7973 87.3084 38.84 86.5724 38.776C85.847 38.712 85.2177 38.5733 84.6844 38.36C84.151 38.1467 83.671 37.9493 83.2444 37.768C82.8284 37.576 82.4604 37.4427 82.1404 37.368C81.831 37.2827 81.5377 37.3413 81.2604 37.544C80.983 37.736 80.7164 38.104 80.4604 38.648ZM101.383 38.648H98.295L95.895 35.176H95.751H93.255V38.648H90.375V32.888H93.255H94.935H95.591C96.455 32.888 97.111 32.7013 97.559 32.328C98.0177 31.944 98.247 31.4053 98.247 30.712C98.247 30.0187 98.023 29.4853 97.575 29.112C97.127 28.7387 96.4657 28.552 95.591 28.552H94.935H93.255H90.375V26.2H95.751C97.415 26.2 98.7323 26.6053 99.703 27.416C100.674 28.2267 101.159 29.3253 101.159 30.712C101.159 31.64 100.935 32.44 100.487 33.112C100.039 33.784 99.4097 34.296 98.599 34.648L101.383 38.648ZM105.942 33.464H103.078V31.224H105.942H108.566H111.702V33.464H108.966H105.942ZM103.078 36.344H105.942H108.966H112.694V38.648H103.078V36.344ZM105.942 28.504H103.078V26.2H112.47V28.504H108.566H105.942ZM120.095 39.08C118.826 39.08 117.679 38.808 116.655 38.264C115.631 37.7093 114.826 36.9413 114.239 35.96C113.663 34.9787 113.375 33.8747 113.375 32.648C113.375 31.4107 113.663 30.3013 114.239 29.32C114.826 28.3387 115.631 27.576 116.655 27.032C117.69 26.4773 118.847 26.2 120.127 26.2C121.194 26.2 122.164 26.392 123.039 26.776C123.914 27.1493 124.644 27.6933 125.231 28.408L123.391 30.12C122.548 29.1387 121.508 28.648 120.271 28.648C119.098 28.648 118.138 29.0213 117.391 29.768C116.655 30.504 116.287 31.4587 116.287 32.632C116.287 33.8053 116.655 34.7653 117.391 35.512C118.138 36.248 119.098 36.616 120.271 36.616C121.508 36.616 122.548 36.1253 123.391 35.144L125.231 36.856C124.644 37.5707 123.914 38.12 123.039 38.504C122.164 38.888 121.183 39.08 120.095 39.08ZM135.294 26.2H138.158V38.648H135.294V33.544H129.646V38.648H126.766V26.2H129.646V31.112H135.294V26.2ZM149.448 36.472L146.552 29.752L143.592 36.728H144.552C144.637 36.216 144.744 35.7947 144.872 35.464C145.011 35.1333 145.155 34.888 145.304 34.728C145.464 34.568 145.645 34.4773 145.848 34.456C146.061 34.4347 146.264 34.456 146.456 34.52C146.648 34.584 146.877 34.7013 147.144 34.872C147.411 35.032 147.651 35.192 147.864 35.352C148.088 35.512 148.349 35.704 148.648 35.928C148.957 36.152 149.224 36.3333 149.448 36.472ZM144.648 38.648H142.776H142.568H139.672L145.032 26.2H147.88L153.256 38.648C152.328 38.7973 151.496 38.84 150.76 38.776C150.035 38.712 149.405 38.5733 148.872 38.36C148.339 38.1467 147.859 37.9493 147.432 37.768C147.016 37.576 146.648 37.4427 146.328 37.368C146.019 37.2827 145.725 37.3413 145.448 37.544C145.171 37.736 144.904 38.104 144.648 38.648ZM154.562 38.648V26.2H157.443V36.296H163.667V38.648H154.562Z" fill="white"/>
<defs>
<linearGradient id="paint0_linear_77_7190" x1="21.3238" y1="9.03607" x2="20.0174" y2="11.1174" gradientUnits="userSpaceOnUse">
<stop stop-color="#087443"/>
<stop offset="1" stop-color="#099250"/>
</linearGradient>
<linearGradient id="paint1_linear_77_7190" x1="17.5836" y1="9.47645" x2="15.6464" y2="10.7911" gradientUnits="userSpaceOnUse">
<stop stop-color="#087443"/>
<stop offset="1" stop-color="#099250"/>
</linearGradient>
<linearGradient id="paint2_linear_77_7190" x1="15.4646" y1="9.74077" x2="13.3793" y2="10.8941" gradientUnits="userSpaceOnUse">
<stop stop-color="#087443"/>
<stop offset="1" stop-color="#099250"/>
</linearGradient>
<linearGradient id="paint3_linear_77_7190" x1="13.9597" y1="9.99167" x2="11.5018" y2="11.4348" gradientUnits="userSpaceOnUse">
<stop stop-color="#087443"/>
<stop offset="1" stop-color="#099250"/>
</linearGradient>
<linearGradient id="paint4_linear_77_7190" x1="12.9829" y1="10.203" x2="10.0885" y2="12.1609" gradientUnits="userSpaceOnUse">
<stop stop-color="#087443"/>
<stop offset="1" stop-color="#099250"/>
</linearGradient>
<linearGradient id="paint5_linear_77_7190" x1="30.8737" y1="8.05876" x2="27.301" y2="10.3932" gradientUnits="userSpaceOnUse">
<stop stop-color="#087443"/>
<stop offset="1" stop-color="#099250"/>
</linearGradient>
<linearGradient id="paint6_linear_77_7190" x1="16.2449" y1="12.8134" x2="18.1939" y2="17.517" gradientUnits="userSpaceOnUse">
<stop stop-color="#087443"/>
<stop offset="0.509778" stop-color="#1D2939"/>
<stop offset="1" stop-color="#AAF0C4"/>
</linearGradient>
<linearGradient id="paint7_linear_77_7190" x1="12.56" y1="13.5358" x2="14.8318" y2="18.2803" gradientUnits="userSpaceOnUse">
<stop stop-color="#087443"/>
<stop offset="0.509778" stop-color="#1D2939"/>
<stop offset="1" stop-color="#AAF0C4"/>
</linearGradient>
<linearGradient id="paint8_linear_77_7190" x1="6.35864" y1="14.7856" x2="9.20655" y2="19.4388" gradientUnits="userSpaceOnUse">
<stop stop-color="#087443"/>
<stop offset="0.509778" stop-color="#1D2939"/>
<stop offset="1" stop-color="#AAF0C4"/>
</linearGradient>
<linearGradient id="paint9_linear_77_7190" x1="4.49317" y1="15.2325" x2="7.65674" y2="19.4705" gradientUnits="userSpaceOnUse">
<stop stop-color="#087443"/>
<stop offset="0.509778" stop-color="#1D2939"/>
<stop offset="1" stop-color="#AAF0C4"/>
</linearGradient>
<linearGradient id="paint10_linear_77_7190" x1="3.39107" y1="15.5184" x2="6.66966" y2="19.6382" gradientUnits="userSpaceOnUse">
<stop stop-color="#087443"/>
<stop offset="0.509778" stop-color="#1D2939"/>
<stop offset="1" stop-color="#AAF0C4"/>
</linearGradient>
<linearGradient id="paint11_linear_77_7190" x1="36.6717" y1="15.5385" x2="32.4798" y2="17.2722" gradientUnits="userSpaceOnUse">
<stop stop-color="#087443"/>
<stop offset="1" stop-color="#099250"/>
</linearGradient>
<linearGradient id="paint12_linear_77_7190" x1="45.5537" y1="10.0711" x2="40.7993" y2="12.4167" gradientUnits="userSpaceOnUse">
<stop stop-color="#087443"/>
<stop offset="1" stop-color="#099250"/>
</linearGradient>
<linearGradient id="paint13_linear_77_7190" x1="22.2269" y1="18.2516" x2="25.0581" y2="24.3767" gradientUnits="userSpaceOnUse">
<stop stop-color="#087443"/>
<stop offset="0.509778" stop-color="#1D2939"/>
<stop offset="1" stop-color="#AAF0C4"/>
</linearGradient>
<linearGradient id="paint14_linear_77_7190" x1="17.4882" y1="19.1823" x2="20.3029" y2="25.4661" gradientUnits="userSpaceOnUse">
<stop stop-color="#087443"/>
<stop offset="0.509778" stop-color="#1D2939"/>
<stop offset="1" stop-color="#AAF0C4"/>
</linearGradient>
<linearGradient id="paint15_linear_77_7190" x1="8.08882" y1="22.2055" x2="4.27588" y2="23.4564" gradientUnits="userSpaceOnUse">
<stop stop-color="#087443"/>
<stop offset="1" stop-color="#099250"/>
</linearGradient>
<linearGradient id="paint16_linear_77_7190" x1="4.8683" y1="22.8451" x2="2.18832" y2="23.4234" gradientUnits="userSpaceOnUse">
<stop stop-color="#087443"/>
<stop offset="1" stop-color="#099250"/>
</linearGradient>
<linearGradient id="paint17_linear_77_7190" x1="2.83781" y1="23.2543" x2="1.55996" y2="23.3804" gradientUnits="userSpaceOnUse">
<stop stop-color="#087443"/>
<stop offset="1" stop-color="#099250"/>
</linearGradient>
<linearGradient id="paint18_linear_77_7190" x1="36.2754" y1="23.2704" x2="40.2466" y2="27.6144" gradientUnits="userSpaceOnUse">
<stop stop-color="#087443"/>
<stop offset="0.509778" stop-color="#1D2939"/>
<stop offset="1" stop-color="#AAF0C4"/>
</linearGradient>
<linearGradient id="paint19_linear_77_7190" x1="19.2276" y1="27.5069" x2="22.1764" y2="33.8256" gradientUnits="userSpaceOnUse">
<stop stop-color="#087443"/>
<stop offset="0.509778" stop-color="#1D2939"/>
<stop offset="1" stop-color="#AAF0C4"/>
</linearGradient>
<linearGradient id="paint20_linear_77_7190" x1="14.2101" y1="29.8488" x2="9.20657" y2="32.466" gradientUnits="userSpaceOnUse">
<stop stop-color="#087443"/>
<stop offset="1" stop-color="#099250"/>
</linearGradient>
<linearGradient id="paint21_linear_77_7190" x1="10.1967" y1="30.7305" x2="5.67446" y2="32.7819" gradientUnits="userSpaceOnUse">
<stop stop-color="#087443"/>
<stop offset="1" stop-color="#099250"/>
</linearGradient>
<linearGradient id="paint22_linear_77_7190" x1="4.2378" y1="31.214" x2="7.66088" y2="36.1078" gradientUnits="userSpaceOnUse">
<stop stop-color="#087443"/>
<stop offset="0.509778" stop-color="#1D2939"/>
<stop offset="1" stop-color="#AAF0C4"/>
</linearGradient>
<linearGradient id="paint23_linear_77_7190" x1="5.1922" y1="31.8523" x2="2.21319" y2="32.6579" gradientUnits="userSpaceOnUse">
<stop stop-color="#087443"/>
<stop offset="1" stop-color="#099250"/>
</linearGradient>
<linearGradient id="paint24_linear_77_7190" x1="36.5468" y1="31.4326" x2="39.6285" y2="35.9773" gradientUnits="userSpaceOnUse">
<stop stop-color="#087443"/>
<stop offset="0.509778" stop-color="#1D2939"/>
<stop offset="1" stop-color="#AAF0C4"/>
</linearGradient>
<linearGradient id="paint25_linear_77_7190" x1="31.0271" y1="34.0137" x2="27.2559" y2="35.6063" gradientUnits="userSpaceOnUse">
<stop stop-color="#087443"/>
<stop offset="1" stop-color="#099250"/>
</linearGradient>
<linearGradient id="paint26_linear_77_7190" x1="46.2878" y1="31.7021" x2="42.5082" y2="33.399" gradientUnits="userSpaceOnUse">
<stop stop-color="#087443"/>
<stop offset="1" stop-color="#099250"/>
</linearGradient>
<linearGradient id="paint27_linear_77_7190" x1="20.9502" y1="35.4049" x2="23.2423" y2="40.2142" gradientUnits="userSpaceOnUse">
<stop stop-color="#087443"/>
<stop offset="0.509778" stop-color="#1D2939"/>
<stop offset="1" stop-color="#AAF0C4"/>
</linearGradient>
<linearGradient id="paint28_linear_77_7190" x1="17.2727" y1="37.3407" x2="13.3043" y2="39.9711" gradientUnits="userSpaceOnUse">
<stop stop-color="#087443"/>
<stop offset="1" stop-color="#099250"/>
</linearGradient>
<linearGradient id="paint29_linear_77_7190" x1="14.2954" y1="38.0795" x2="10.5386" y2="40.5412" gradientUnits="userSpaceOnUse">
<stop stop-color="#087443"/>
<stop offset="1" stop-color="#099250"/>
</linearGradient>
<linearGradient id="paint30_linear_77_7190" x1="8.68272" y1="38.5203" x2="10.274" y2="42.7378" gradientUnits="userSpaceOnUse">
<stop stop-color="#087443"/>
<stop offset="0.509778" stop-color="#1D2939"/>
<stop offset="1" stop-color="#AAF0C4"/>
</linearGradient>
<linearGradient id="paint31_linear_77_7190" x1="7.31077" y1="38.893" x2="8.73412" y2="43.1" gradientUnits="userSpaceOnUse">
<stop stop-color="#087443"/>
<stop offset="0.509778" stop-color="#1D2939"/>
<stop offset="1" stop-color="#AAF0C4"/>
</linearGradient>
<linearGradient id="paint32_linear_77_7190" x1="29.2494" y1="40.0539" x2="26.0467" y2="42.3445" gradientUnits="userSpaceOnUse">
<stop stop-color="#087443"/>
<stop offset="1" stop-color="#099250"/>
</linearGradient>
<linearGradient id="paint33_linear_77_7190" x1="25.2407" y1="40.2645" x2="26.6386" y2="43.5439" gradientUnits="userSpaceOnUse">
<stop stop-color="#087443"/>
<stop offset="0.509778" stop-color="#1D2939"/>
<stop offset="1" stop-color="#AAF0C4"/>
</linearGradient>
<linearGradient id="paint34_linear_77_7190" x1="24.0433" y1="40.6904" x2="25.4122" y2="43.5557" gradientUnits="userSpaceOnUse">
<stop stop-color="#087443"/>
<stop offset="0.509778" stop-color="#1D2939"/>
<stop offset="1" stop-color="#AAF0C4"/>
</linearGradient>
<linearGradient id="paint35_linear_77_7190" x1="20.1241" y1="41.7355" x2="20.9057" y2="44.1154" gradientUnits="userSpaceOnUse">
<stop stop-color="#087443"/>
<stop offset="0.509778" stop-color="#1D2939"/>
<stop offset="1" stop-color="#AAF0C4"/>
</linearGradient>
<linearGradient id="paint36_linear_77_7190" x1="20.884" y1="42.3145" x2="19.0948" y2="44.288" gradientUnits="userSpaceOnUse">
<stop stop-color="#087443"/>
<stop offset="1" stop-color="#099250"/>
</linearGradient>
<linearGradient id="paint37_linear_77_7190" x1="16.4104" y1="42.6951" x2="16.663" y2="44.492" gradientUnits="userSpaceOnUse">
<stop stop-color="#087443"/>
<stop offset="0.509778" stop-color="#1D2939"/>
<stop offset="1" stop-color="#AAF0C4"/>
</linearGradient>
<linearGradient id="paint38_linear_77_7190" x1="26.9067" y1="2.41567" x2="24.0196" y2="4.79595" gradientUnits="userSpaceOnUse">
<stop stop-color="#087443"/>
<stop offset="1" stop-color="#099250"/>
</linearGradient>
<linearGradient id="paint39_linear_77_7190" x1="17.1479" y1="10.429" x2="18.3964" y2="13.9253" gradientUnits="userSpaceOnUse">
<stop stop-color="#087443"/>
<stop offset="0.509778" stop-color="#1D2939"/>
<stop offset="1" stop-color="#AAF0C4"/>
</linearGradient>
<linearGradient id="paint40_linear_77_7190" x1="17.131" y1="11.0239" x2="14.1008" y2="12.7399" gradientUnits="userSpaceOnUse">
<stop stop-color="#087443"/>
<stop offset="1" stop-color="#099250"/>
</linearGradient>
<linearGradient id="paint41_linear_77_7190" x1="9.00272" y1="11.8375" x2="11.0503" y2="15.8761" gradientUnits="userSpaceOnUse">
<stop stop-color="#087443"/>
<stop offset="0.509778" stop-color="#1D2939"/>
<stop offset="1" stop-color="#AAF0C4"/>
</linearGradient>
<linearGradient id="paint42_linear_77_7190" x1="7.1648" y1="12.1915" x2="9.42246" y2="16.3236" gradientUnits="userSpaceOnUse">
<stop stop-color="#087443"/>
<stop offset="0.509778" stop-color="#1D2939"/>
<stop offset="1" stop-color="#AAF0C4"/>
</linearGradient>
<linearGradient id="paint43_linear_77_7190" x1="8.8141" y1="12.5979" x2="5.15643" y2="14.4429" gradientUnits="userSpaceOnUse">
<stop stop-color="#087443"/>
<stop offset="1" stop-color="#099250"/>
</linearGradient>
<linearGradient id="paint44_linear_77_7190" x1="35.5943" y1="5.71251" x2="38.113" y2="10.4349" gradientUnits="userSpaceOnUse">
<stop stop-color="#087443"/>
<stop offset="0.509778" stop-color="#1D2939"/>
<stop offset="1" stop-color="#AAF0C4"/>
</linearGradient>
<linearGradient id="paint45_linear_77_7190" x1="30.2454" y1="14.053" x2="25.9768" y2="16.4095" gradientUnits="userSpaceOnUse">
<stop stop-color="#087443"/>
<stop offset="1" stop-color="#099250"/>
</linearGradient>
<linearGradient id="paint46_linear_77_7190" x1="27.0731" y1="14.6747" x2="22.5373" y2="17.3587" gradientUnits="userSpaceOnUse">
<stop stop-color="#087443"/>
<stop offset="1" stop-color="#099250"/>
</linearGradient>
<linearGradient id="paint47_linear_77_7190" x1="23.1515" y1="15.436" x2="18.4694" y2="18.2138" gradientUnits="userSpaceOnUse">
<stop stop-color="#087443"/>
<stop offset="1" stop-color="#099250"/>
</linearGradient>
<linearGradient id="paint48_linear_77_7190" x1="33.3558" y1="10.5439" x2="35.8626" y2="16.1841" gradientUnits="userSpaceOnUse">
<stop stop-color="#087443"/>
<stop offset="0.509778" stop-color="#1D2939"/>
<stop offset="1" stop-color="#AAF0C4"/>
</linearGradient>
<linearGradient id="paint49_linear_77_7190" x1="10.4719" y1="17.0123" x2="13.3704" y2="22.4507" gradientUnits="userSpaceOnUse">
<stop stop-color="#087443"/>
<stop offset="0.509778" stop-color="#1D2939"/>
<stop offset="1" stop-color="#AAF0C4"/>
</linearGradient>
<linearGradient id="paint50_linear_77_7190" x1="6.88661" y1="17.7954" x2="10.1421" y2="22.9095" gradientUnits="userSpaceOnUse">
<stop stop-color="#087443"/>
<stop offset="0.509778" stop-color="#1D2939"/>
<stop offset="1" stop-color="#AAF0C4"/>
</linearGradient>
<linearGradient id="paint51_linear_77_7190" x1="4.22258" y1="18.4372" x2="7.79525" y2="22.9749" gradientUnits="userSpaceOnUse">
<stop stop-color="#087443"/>
<stop offset="0.509778" stop-color="#1D2939"/>
<stop offset="1" stop-color="#AAF0C4"/>
</linearGradient>
<linearGradient id="paint52_linear_77_7190" x1="4.45971" y1="19.1011" x2="1.89514" y2="19.6665" gradientUnits="userSpaceOnUse">
<stop stop-color="#087443"/>
<stop offset="1" stop-color="#099250"/>
</linearGradient>
<linearGradient id="paint53_linear_77_7190" x1="33.0978" y1="20.4724" x2="37.1211" y2="24.9105" gradientUnits="userSpaceOnUse">
<stop stop-color="#087443"/>
<stop offset="0.509778" stop-color="#1D2939"/>
<stop offset="1" stop-color="#AAF0C4"/>
</linearGradient>
<linearGradient id="paint54_linear_77_7190" x1="42.3094" y1="16.6911" x2="37.9333" y2="18.3495" gradientUnits="userSpaceOnUse">
<stop stop-color="#087443"/>
<stop offset="1" stop-color="#099250"/>
</linearGradient>
<linearGradient id="paint55_linear_77_7190" x1="20.5234" y1="23.9591" x2="14.9774" y2="26.979" gradientUnits="userSpaceOnUse">
<stop stop-color="#087443"/>
<stop offset="1" stop-color="#099250"/>
</linearGradient>
<linearGradient id="paint56_linear_77_7190" x1="10.9725" y1="24.8227" x2="14.1956" y2="31.3088" gradientUnits="userSpaceOnUse">
<stop stop-color="#087443"/>
<stop offset="0.509778" stop-color="#1D2939"/>
<stop offset="1" stop-color="#AAF0C4"/>
</linearGradient>
<linearGradient id="paint57_linear_77_7190" x1="10.8113" y1="26.0057" x2="6.0657" y2="28.0185" gradientUnits="userSpaceOnUse">
<stop stop-color="#087443"/>
<stop offset="1" stop-color="#099250"/>
</linearGradient>
<linearGradient id="paint58_linear_77_7190" x1="4.15827" y1="26.5727" x2="8.05683" y2="31.6907" gradientUnits="userSpaceOnUse">
<stop stop-color="#087443"/>
<stop offset="0.509778" stop-color="#1D2939"/>
<stop offset="1" stop-color="#AAF0C4"/>
</linearGradient>
<linearGradient id="paint59_linear_77_7190" x1="2.4567" y1="27.1416" x2="6.44937" y2="30.5503" gradientUnits="userSpaceOnUse">
<stop stop-color="#087443"/>
<stop offset="0.509778" stop-color="#1D2939"/>
<stop offset="1" stop-color="#AAF0C4"/>
</linearGradient>
<linearGradient id="paint60_linear_77_7190" x1="3.02361" y1="27.6522" x2="1.47775" y2="27.8358" gradientUnits="userSpaceOnUse">
<stop stop-color="#087443"/>
<stop offset="1" stop-color="#099250"/>
</linearGradient>
<linearGradient id="paint61_linear_77_7190" x1="35.0446" y1="28.8719" x2="38.4905" y2="31.1126" gradientUnits="userSpaceOnUse">
<stop stop-color="#087443"/>
<stop offset="0.509778" stop-color="#1D2939"/>
<stop offset="1" stop-color="#AAF0C4"/>
</linearGradient>
<linearGradient id="paint62_linear_77_7190" x1="33.1991" y1="29.812" x2="29.4183" y2="31.1475" gradientUnits="userSpaceOnUse">
<stop stop-color="#087443"/>
<stop offset="1" stop-color="#099250"/>
</linearGradient>
<linearGradient id="paint63_linear_77_7190" x1="26.8017" y1="30.3289" x2="30.0116" y2="35.5816" gradientUnits="userSpaceOnUse">
<stop stop-color="#087443"/>
<stop offset="0.509778" stop-color="#1D2939"/>
<stop offset="1" stop-color="#AAF0C4"/>
</linearGradient>
<linearGradient id="paint64_linear_77_7190" x1="26.1653" y1="31.4065" x2="21.6549" y2="33.6031" gradientUnits="userSpaceOnUse">
<stop stop-color="#087443"/>
<stop offset="1" stop-color="#099250"/>
</linearGradient>
<linearGradient id="paint65_linear_77_7190" x1="10.5612" y1="35.0887" x2="6.48355" y2="37.1517" gradientUnits="userSpaceOnUse">
<stop stop-color="#087443"/>
<stop offset="1" stop-color="#099250"/>
</linearGradient>
<linearGradient id="paint66_linear_77_7190" x1="8.39527" y1="35.6222" x2="4.69218" y2="37.2807" gradientUnits="userSpaceOnUse">
<stop stop-color="#087443"/>
<stop offset="1" stop-color="#099250"/>
</linearGradient>
<linearGradient id="paint67_linear_77_7190" x1="7.62706" y1="35.9039" x2="3.83866" y2="37.688" gradientUnits="userSpaceOnUse">
<stop stop-color="#087443"/>
<stop offset="1" stop-color="#099250"/>
</linearGradient>
<linearGradient id="paint68_linear_77_7190" x1="32.8768" y1="36.3214" x2="35.2053" y2="40.6717" gradientUnits="userSpaceOnUse">
<stop stop-color="#087443"/>
<stop offset="0.509778" stop-color="#1D2939"/>
<stop offset="1" stop-color="#AAF0C4"/>
</linearGradient>
<linearGradient id="paint69_linear_77_7190" x1="28.4645" y1="37.8263" x2="25.208" y2="39.3821" gradientUnits="userSpaceOnUse">
<stop stop-color="#087443"/>
<stop offset="1" stop-color="#099250"/>
</linearGradient>
<linearGradient id="paint70_linear_77_7190" x1="23.2699" y1="38.3243" x2="25.2299" y2="42.0928" gradientUnits="userSpaceOnUse">
<stop stop-color="#087443"/>
<stop offset="0.509778" stop-color="#1D2939"/>
<stop offset="1" stop-color="#AAF0C4"/>
</linearGradient>
<linearGradient id="paint71_linear_77_7190" x1="20.0586" y1="39.0544" x2="21.6296" y2="42.797" gradientUnits="userSpaceOnUse">
<stop stop-color="#087443"/>
<stop offset="0.509778" stop-color="#1D2939"/>
<stop offset="1" stop-color="#AAF0C4"/>
</linearGradient>
<linearGradient id="paint72_linear_77_7190" x1="14.5925" y1="40.4691" x2="15.604" y2="43.8168" gradientUnits="userSpaceOnUse">
<stop stop-color="#087443"/>
<stop offset="0.509778" stop-color="#1D2939"/>
<stop offset="1" stop-color="#AAF0C4"/>
</linearGradient>
<linearGradient id="paint73_linear_77_7190" x1="15.2009" y1="41.4897" x2="12.6714" y2="44.5703" gradientUnits="userSpaceOnUse">
<stop stop-color="#087443"/>
<stop offset="1" stop-color="#099250"/>
</linearGradient>
</defs>
</svg>
