<svg width="24" height="24" viewBox="0 0 24 24" fill="none" xmlns="http://www.w3.org/2000/svg">
<mask id="mask0_60_5082" style="mask-type:luminance" maskUnits="userSpaceOnUse" x="0" y="0" width="24" height="24">
<path d="M0 0H24V24H0V0Z" fill="white"/>
</mask>
<g mask="url(#mask0_60_5082)">
<path d="M24 12C24 12.1962 23.995 12.3925 23.9856 12.5887C23.9756 12.785 23.9612 12.9806 23.9425 13.1762C23.9231 13.3719 23.8987 13.5662 23.87 13.7606C23.8412 13.955 23.8075 14.1487 23.7694 14.3412C23.7312 14.5337 23.6881 14.725 23.6406 14.9156C23.5925 15.1062 23.54 15.2956 23.4831 15.4831C23.4262 15.6712 23.365 15.8575 23.2987 16.0425C23.2325 16.2275 23.1619 16.4106 23.0862 16.5925C23.0112 16.7737 22.9319 16.9531 22.8481 17.1306C22.7637 17.3081 22.6756 17.4837 22.5831 17.6569C22.4906 17.83 22.3937 18.0006 22.2925 18.1694C22.1919 18.3375 22.0869 18.5037 21.9775 18.6669C21.8687 18.83 21.7556 18.9906 21.6387 19.1481C21.5212 19.3062 21.4006 19.4606 21.2762 19.6125C21.1512 19.7644 21.0231 19.9131 20.8912 20.0587C20.7594 20.2044 20.6244 20.3462 20.485 20.485C20.3462 20.6244 20.2044 20.7594 20.0587 20.8912C19.9131 21.0231 19.7644 21.1512 19.6125 21.2762C19.4606 21.4006 19.3062 21.5212 19.1481 21.6387C18.9906 21.7556 18.83 21.8687 18.6669 21.9775C18.5037 22.0869 18.3375 22.1919 18.1694 22.2925C18.0006 22.3937 17.83 22.4906 17.6569 22.5831C17.4837 22.6756 17.3081 22.7637 17.1306 22.8481C16.9531 22.9319 16.7737 23.0112 16.5925 23.0862C16.4106 23.1619 16.2275 23.2325 16.0425 23.2987C15.8575 23.365 15.6712 23.4262 15.4831 23.4831C15.2956 23.54 15.1062 23.5925 14.9156 23.6406C14.725 23.6881 14.5337 23.7312 14.3412 23.7694C14.1487 23.8075 13.955 23.8412 13.7606 23.87C13.5662 23.8987 13.3719 23.9231 13.1762 23.9425C12.9806 23.9612 12.785 23.9756 12.5887 23.9856C12.3925 23.995 12.1962 24 12 24C11.8037 24 11.6075 23.995 11.4112 23.9856C11.215 23.9756 11.0194 23.9612 10.8237 23.9425C10.6281 23.9231 10.4337 23.8987 10.2394 23.87C10.045 23.8412 9.85125 23.8075 9.65875 23.7694C9.46625 23.7312 9.275 23.6881 9.08437 23.6406C8.89375 23.5925 8.70437 23.54 8.51687 23.4831C8.32875 23.4262 8.1425 23.365 7.9575 23.2987C7.7725 23.2325 7.58937 23.1619 7.4075 23.0862C7.22625 23.0112 7.04687 22.9319 6.86937 22.8481C6.69187 22.7637 6.51625 22.6756 6.34312 22.5831C6.17 22.4906 5.99937 22.3937 5.83062 22.2925C5.6625 22.1919 5.49625 22.0869 5.33312 21.9775C5.17 21.8687 5.00937 21.7556 4.85187 21.6387C4.69375 21.5212 4.53937 21.4006 4.3875 21.2762C4.23562 21.1512 4.08688 21.0231 3.94125 20.8912C3.79562 20.7594 3.65375 20.6244 3.515 20.485C3.37562 20.3462 3.24062 20.2044 3.10875 20.0587C2.97687 19.9131 2.84875 19.7644 2.72375 19.6125C2.59937 19.4606 2.47875 19.3062 2.36125 19.1481C2.24438 18.9906 2.13125 18.83 2.0225 18.6669C1.91312 18.5037 1.80812 18.3375 1.7075 18.1694C1.60625 18.0006 1.50937 17.83 1.41687 17.6569C1.32437 17.4837 1.23625 17.3081 1.15187 17.1306C1.06812 16.9531 0.98875 16.7737 0.91375 16.5925C0.838125 16.4106 0.7675 16.2275 0.70125 16.0425C0.635 15.8575 0.57375 15.6712 0.516875 15.4831C0.46 15.2956 0.4075 15.1062 0.359375 14.9156C0.311875 14.725 0.26875 14.5337 0.230625 14.3412C0.1925 14.1487 0.15875 13.955 0.13 13.7606C0.10125 13.5662 0.076875 13.3719 0.0575 13.1762C0.0387501 12.9806 0.024375 12.785 0.014375 12.5887C0.00499996 12.3925 0 12.1962 0 12C0 11.8037 0.00499996 11.6075 0.014375 11.4112C0.024375 11.215 0.0387501 11.0194 0.0575 10.8237C0.076875 10.6281 0.10125 10.4337 0.13 10.2394C0.15875 10.045 0.1925 9.85125 0.230625 9.65875C0.26875 9.46625 0.311875 9.275 0.359375 9.08437C0.4075 8.89375 0.46 8.70437 0.516875 8.51687C0.57375 8.32875 0.635 8.1425 0.70125 7.9575C0.7675 7.7725 0.838125 7.58937 0.91375 7.4075C0.98875 7.22625 1.06812 7.04687 1.15187 6.86937C1.23625 6.69187 1.32437 6.51625 1.41687 6.34312C1.50937 6.17 1.60625 5.99937 1.7075 5.83062C1.80812 5.6625 1.91312 5.49625 2.0225 5.33312C2.13125 5.17 2.24438 5.00937 2.36125 4.85187C2.47875 4.69375 2.59937 4.53937 2.72375 4.3875C2.84875 4.23562 2.97687 4.08688 3.10875 3.94125C3.24062 3.79562 3.37562 3.65375 3.515 3.515C3.65375 3.37562 3.79562 3.24062 3.94125 3.10875C4.08688 2.97687 4.23562 2.84875 4.3875 2.72375C4.53937 2.59937 4.69375 2.47875 4.85187 2.36125C5.00937 2.24438 5.17 2.13125 5.33312 2.0225C5.49625 1.91312 5.6625 1.80812 5.83062 1.7075C5.99937 1.60625 6.17 1.50937 6.34312 1.41687C6.51625 1.32437 6.69187 1.23625 6.86937 1.15187C7.04687 1.06812 7.22625 0.98875 7.4075 0.91375C7.58937 0.838125 7.7725 0.7675 7.9575 0.70125C8.1425 0.635 8.32875 0.57375 8.51687 0.516875C8.70437 0.46 8.89375 0.4075 9.08437 0.359375C9.275 0.311875 9.46625 0.26875 9.65875 0.230625C9.85125 0.1925 10.045 0.15875 10.2394 0.13C10.4337 0.10125 10.6281 0.076875 10.8237 0.0575C11.0194 0.0387501 11.215 0.024375 11.4112 0.014375C11.6075 0.00499996 11.8037 0 12 0C12.1962 0 12.3925 0.00499996 12.5887 0.014375C12.785 0.024375 12.9806 0.0387501 13.1762 0.0575C13.3719 0.076875 13.5662 0.10125 13.7606 0.13C13.955 0.15875 14.1487 0.1925 14.3412 0.230625C14.5337 0.26875 14.725 0.311875 14.9156 0.359375C15.1062 0.4075 15.2956 0.46 15.4831 0.516875C15.6712 0.57375 15.8575 0.635 16.0425 0.70125C16.2275 0.7675 16.4106 0.838125 16.5925 0.91375C16.7737 0.98875 16.9531 1.06812 17.1306 1.15187C17.3081 1.23625 17.4837 1.32437 17.6569 1.41687C17.83 1.50937 18.0006 1.60625 18.1694 1.7075C18.3375 1.80812 18.5037 1.91312 18.6669 2.0225C18.83 2.13125 18.9906 2.24438 19.1481 2.36125C19.3062 2.47875 19.4606 2.59937 19.6125 2.72375C19.7644 2.84875 19.9131 2.97687 20.0587 3.10875C20.2044 3.24062 20.3462 3.37562 20.485 3.515C20.6244 3.65375 20.7594 3.79562 20.8912 3.94125C21.0231 4.08688 21.1512 4.23562 21.2762 4.3875C21.4006 4.53937 21.5212 4.69375 21.6387 4.85187C21.7556 5.00937 21.8687 5.17 21.9775 5.33312C22.0869 5.49625 22.1919 5.6625 22.2925 5.83062C22.3937 5.99937 22.4906 6.17 22.5831 6.34312C22.6756 6.51625 22.7637 6.69187 22.8481 6.86937C22.9319 7.04687 23.0112 7.22625 23.0862 7.4075C23.1619 7.58937 23.2325 7.7725 23.2987 7.9575C23.365 8.1425 23.4262 8.32875 23.4831 8.51687C23.54 8.70437 23.5925 8.89375 23.6406 9.08437C23.6881 9.275 23.7312 9.46625 23.7694 9.65875C23.8075 9.85125 23.8412 10.045 23.87 10.2394C23.8987 10.4337 23.9231 10.6281 23.9425 10.8237C23.9612 11.0194 23.9756 11.215 23.9856 11.4112C23.995 11.6075 24 11.8037 24 12Z" fill="#7D2AE7"/>
</g>
<path d="M21.5714 12.658C21.5396 12.658 21.5108 12.6793 21.4964 12.7224C21.3014 13.2761 21.0389 13.6068 20.8227 13.6068C20.6989 13.6068 20.6483 13.4686 20.6483 13.2511C20.6483 12.7093 20.9746 11.558 21.1371 11.033C21.1558 10.9786 21.1671 10.9218 21.1689 10.8643C21.1689 10.7118 21.0858 10.6361 20.8789 10.6361C20.6727 10.6361 20.4158 10.7249 20.1839 11.133C20.1027 10.7724 19.8596 10.6149 19.5189 10.6149C19.1264 10.6149 18.7464 10.868 18.4333 11.2774C18.1208 11.6868 17.7539 11.823 17.4771 11.7561C17.6764 11.2705 17.7496 10.9061 17.7496 10.6361C17.7496 10.2124 17.5408 9.95676 17.2027 9.95676C16.6877 9.95676 16.3921 10.4474 16.3921 10.9636C16.3921 11.3624 16.5721 11.773 16.9708 11.9724C16.6377 12.7255 16.1508 13.4074 15.9658 13.4074C15.7271 13.4074 15.6564 12.2399 15.6708 11.4043C15.6777 10.9255 15.7183 10.8999 15.7183 10.7543C15.7183 10.6724 15.6633 10.6149 15.4471 10.6149C14.9421 10.6149 14.7846 11.0436 14.7621 11.5355C14.7533 11.7218 14.7239 11.9068 14.6746 12.0868C14.4621 12.8418 14.0277 13.4136 13.7433 13.4136C13.6108 13.4136 13.5764 13.2811 13.5764 13.1093C13.5764 12.5668 13.8796 11.8874 13.8796 11.3099C13.8796 10.8836 13.6933 10.6149 13.3408 10.6149C12.9277 10.6149 12.3802 11.108 11.8614 12.0299C12.0327 11.3243 12.1014 10.6399 11.5977 10.6399C11.4883 10.6418 11.3802 10.6693 11.2839 10.7211C11.2146 10.7568 11.1777 10.8211 11.1821 10.893C11.2302 11.6468 10.5758 13.5724 9.95455 13.5724C9.84143 13.5724 9.78768 13.4505 9.78768 13.2524C9.78768 12.7105 10.1114 11.5618 10.2739 11.0349C10.2933 10.978 10.3046 10.918 10.3058 10.8574C10.3058 10.7136 10.2177 10.6399 10.0158 10.6399C9.79393 10.6399 9.55393 10.7249 9.3208 11.133C9.23955 10.7724 8.9958 10.6149 8.65705 10.6149C8.09955 10.6149 7.47455 11.2049 7.20143 11.9749C6.83455 13.0018 6.0958 13.993 5.1008 13.993C4.1983 13.993 3.72205 13.2418 3.72205 12.0561C3.72205 10.3411 4.98018 8.94176 5.9133 8.94176C6.35955 8.94176 6.57205 9.22613 6.57205 9.66176C6.57205 10.1899 6.2783 10.4343 6.2783 10.6349C6.2783 10.6961 6.3283 10.7568 6.43018 10.7568C6.8358 10.7568 7.31268 10.2805 7.31268 9.63113C7.31268 8.98113 6.7858 8.50488 5.85205 8.50488C4.3108 8.50488 2.7583 10.0574 2.7583 12.0455C2.7583 13.6274 3.53955 14.5811 4.8883 14.5811C5.80893 14.5811 6.61393 13.8661 7.0483 13.0293C7.09768 13.723 7.41143 14.0836 7.89018 14.0836C8.31643 14.0836 8.66143 13.8305 8.9258 13.3836C9.02705 13.8505 9.2958 14.0799 9.6458 14.0799C10.0471 14.0799 10.3808 13.8255 10.7002 13.3536C10.6952 13.7243 10.7802 14.073 11.1008 14.073C11.2527 14.073 11.4339 14.038 11.4664 13.9055C11.8033 12.5074 12.6402 11.3661 12.8958 11.3661C12.9708 11.3661 12.9914 11.4374 12.9914 11.5249C12.9914 11.9043 12.7239 12.683 12.7239 13.1793C12.7239 13.718 12.9521 14.073 13.4233 14.073C13.9464 14.073 14.4777 13.4324 14.8327 12.4968C14.9433 13.3705 15.1833 14.0761 15.5571 14.0761C16.0183 14.0761 16.8358 13.108 17.3314 12.0811C17.5252 12.1061 17.8177 12.0999 18.0971 11.9018C17.9789 12.2043 17.9083 12.5349 17.9083 12.8643C17.9083 13.8174 18.3621 14.0836 18.7539 14.0836C19.1796 14.0836 19.5252 13.8305 19.7889 13.3836C19.8758 13.7861 20.0983 14.0786 20.5077 14.0786C21.1477 14.0786 21.7039 13.4243 21.7039 12.8868C21.7039 12.7449 21.6433 12.658 21.5714 12.658ZM8.28205 13.5568C8.02268 13.5568 7.92143 13.2955 7.92143 12.9074C7.92143 12.2336 8.38205 11.1068 8.8708 11.1068C9.0833 11.1068 9.16455 11.3586 9.16455 11.6655C9.16455 12.3499 8.72643 13.5568 8.28205 13.5568ZM17.1396 11.5436C16.9852 11.3599 16.9289 11.1093 16.9289 10.8868C16.9289 10.6124 17.0296 10.3805 17.1502 10.3805C17.2708 10.3805 17.3064 10.4993 17.3064 10.6636C17.3064 10.9386 17.2083 11.3418 17.1396 11.5436ZM19.1439 13.5568C18.8864 13.5568 18.7846 13.2574 18.7846 12.9074C18.7846 12.2568 19.2458 11.1068 19.7377 11.1068C19.9502 11.1068 20.0264 11.3549 20.0264 11.6655C20.0264 12.3499 19.5952 13.5568 19.1439 13.5568Z" fill="white"/>
</svg>
