<svg width="24" height="24" viewBox="0 0 24 24" fill="none" xmlns="http://www.w3.org/2000/svg">
<mask id="mask0_60_5076" style="mask-type:luminance" maskUnits="userSpaceOnUse" x="0" y="0" width="24" height="24">
<path d="M0 0H24V24H0V0Z" fill="white"/>
</mask>
<g mask="url(#mask0_60_5076)">
<path d="M23.547 10.9313L13.0689 0.453125C12.997 0.38125 12.9189 0.316875 12.8345 0.260625C12.7501 0.204375 12.6614 0.156875 12.5676 0.118125C12.4739 0.0787501 12.377 0.05 12.2776 0.03C12.1783 0.01 12.0776 0 11.9764 0C11.8745 0 11.7739 0.01 11.6745 0.03C11.5751 0.05 11.4783 0.0787501 11.3845 0.118125C11.2908 0.156875 11.202 0.204375 11.1176 0.260625C11.0333 0.316875 10.9551 0.38125 10.8833 0.453125L8.70826 2.62813L11.4683 5.38813C12.1101 5.16313 12.8451 5.31688 13.357 5.82813C13.4789 5.95 13.5814 6.08688 13.6645 6.2375C13.7476 6.38813 13.8089 6.5475 13.8476 6.71563C13.8858 6.88375 13.9008 7.05375 13.8914 7.22563C13.882 7.3975 13.8489 7.565 13.7926 7.72813L16.4526 10.3881C17.0964 10.1663 17.8389 10.3094 18.3526 10.825C18.4383 10.91 18.5145 11.0031 18.5814 11.1038C18.6489 11.2038 18.7051 11.31 18.7514 11.4219C18.7976 11.5331 18.8326 11.6481 18.8564 11.7669C18.8801 11.885 18.892 12.005 18.892 12.1256C18.892 12.2463 18.8801 12.3663 18.8564 12.4844C18.8333 12.6031 18.7983 12.7181 18.752 12.83C18.7058 12.9413 18.6489 13.0475 18.582 13.1481C18.5145 13.2481 18.4383 13.3413 18.3526 13.4269C18.2676 13.5119 18.1745 13.5881 18.0739 13.6556C17.9733 13.7225 17.8676 13.7794 17.7558 13.8256C17.6445 13.8719 17.5289 13.9069 17.4108 13.93C17.292 13.9538 17.1726 13.9656 17.0514 13.9656C16.9308 13.965 16.8114 13.9538 16.6926 13.93C16.5745 13.9063 16.4595 13.8713 16.3476 13.825C16.2358 13.7788 16.1301 13.7219 16.0295 13.655C15.9289 13.5875 15.8364 13.5113 15.7508 13.4256C15.2108 12.8856 15.0776 12.0906 15.3501 11.4256L12.8695 8.94438V15.4731C13.0508 15.5631 13.2133 15.6788 13.357 15.8213C13.442 15.9069 13.5183 15.9994 13.5858 16.1C13.6526 16.2006 13.7095 16.3063 13.7558 16.4181C13.802 16.5294 13.8364 16.6444 13.8601 16.7631C13.8839 16.8813 13.8958 17.0013 13.8958 17.1219C13.8958 17.2425 13.8839 17.3619 13.8601 17.4806C13.8364 17.5988 13.802 17.7138 13.7558 17.8256C13.7095 17.9369 13.6526 18.0431 13.5858 18.1438C13.5183 18.2438 13.442 18.3369 13.357 18.4225C13.2714 18.5075 13.1789 18.5838 13.0783 18.6513C12.9776 18.7181 12.872 18.775 12.7601 18.8206C12.6489 18.8669 12.5339 18.9019 12.4151 18.9256C12.297 18.9494 12.177 18.9606 12.0564 18.9606C11.9358 18.9606 11.8158 18.9494 11.6976 18.9256C11.5789 18.9019 11.4639 18.8669 11.3526 18.8206C11.2408 18.775 11.1351 18.7181 11.0345 18.6513C10.9339 18.5838 10.8414 18.5075 10.7558 18.4225C10.6701 18.3369 10.5939 18.2438 10.527 18.1438C10.4595 18.0431 10.4033 17.9375 10.3564 17.8256C10.3101 17.7144 10.2758 17.5994 10.252 17.4806C10.2283 17.3619 10.2164 17.2425 10.2164 17.1219C10.2164 17.0013 10.2283 16.8813 10.252 16.7631C10.2758 16.6444 10.3101 16.5294 10.3564 16.4175C10.4033 16.3063 10.4595 16.2 10.527 16.1C10.5939 15.9994 10.6701 15.9069 10.7558 15.8213C10.9339 15.6444 11.1308 15.51 11.3583 15.42V8.83063C11.1389 8.74063 10.9339 8.6075 10.7558 8.42938C10.627 8.3 10.5195 8.155 10.4333 7.99438C10.3476 7.83313 10.287 7.66313 10.2514 7.48438C10.2164 7.305 10.2076 7.125 10.2264 6.94313C10.2445 6.76188 10.2895 6.58688 10.3601 6.41875L7.63764 3.6975L0.452637 10.875C0.380762 10.9469 0.316387 11.025 0.260137 11.1094C0.203262 11.1938 0.155762 11.2825 0.117012 11.3763C0.0782616 11.47 0.0488867 11.5669 0.0288867 11.6663C0.00888672 11.7663 -0.000488281 11.8669 -0.000488281 11.9681C-0.000488281 12.0694 0.00888672 12.17 0.0288867 12.27C0.0488867 12.3694 0.0782616 12.4663 0.117012 12.56C0.155762 12.6538 0.203262 12.7425 0.260137 12.8269C0.316387 12.9113 0.380762 12.9894 0.452637 13.0613L10.9314 23.5388C11.0033 23.6106 11.0814 23.6744 11.1658 23.7313C11.2501 23.7875 11.3389 23.835 11.4326 23.8738C11.5264 23.9125 11.6233 23.9419 11.7226 23.9619C11.822 23.9819 11.9226 23.9913 12.0239 23.9913C12.1258 23.9913 12.2264 23.9819 12.3258 23.9619C12.4251 23.9419 12.522 23.9125 12.6158 23.8738C12.7095 23.835 12.7983 23.7875 12.8826 23.7313C12.967 23.6744 13.0451 23.6106 13.117 23.5388L23.547 13.125C23.6189 13.0531 23.6833 12.975 23.7395 12.8906C23.7958 12.8063 23.8439 12.7175 23.8826 12.6238C23.9214 12.53 23.9508 12.4331 23.9708 12.3338C23.9901 12.2338 24.0001 12.1331 24.0001 12.0319C24.0001 11.9306 23.9901 11.83 23.9708 11.73C23.9508 11.6306 23.9214 11.5338 23.8826 11.44C23.8439 11.3463 23.7958 11.2575 23.7395 11.1731C23.6833 11.0888 23.6189 11.0106 23.547 10.9388" fill="#F03C2E"/>
</g>
</svg>
