<svg width="25" height="24" viewBox="0 0 25 24" fill="none" xmlns="http://www.w3.org/2000/svg">
<path fill-rule="evenodd" clip-rule="evenodd" d="M12.3037 0C5.50938 0 0 5.50802 0 12.3037C0 17.7404 3.52486 22.352 8.41416 23.9792C9.0288 24.0933 9.25429 23.7123 9.25429 23.3877C9.25429 23.0943 9.24274 22.1251 9.23799 21.0969C5.815 21.8412 5.09237 19.6448 5.09237 19.6448C4.53274 18.2226 3.72657 17.8444 3.72657 17.8444C2.61003 17.081 3.81011 17.0966 3.81011 17.0966C5.04551 17.1835 5.69683 18.3646 5.69683 18.3646C6.79368 20.2452 8.57512 19.7019 9.2767 19.3874C9.3874 18.5921 9.70661 18.0495 10.0584 17.7425C7.32546 17.4314 4.45192 16.376 4.45192 11.6619C4.45192 10.3185 4.93277 9.22101 5.71992 8.35915C5.59224 8.04945 5.17115 6.79775 5.83945 5.10324C5.83945 5.10324 6.87246 4.77248 9.22372 6.36444C10.2051 6.09142 11.2578 5.95423 12.3037 5.94948C13.349 5.95423 14.4023 6.09074 15.3858 6.36377C17.7343 4.77181 18.766 5.10256 18.766 5.10256C19.4356 6.79707 19.0146 8.04877 18.8869 8.35847C19.6761 9.22033 20.1528 10.3179 20.1528 11.6612C20.1528 16.3869 17.2745 17.4273 14.5348 17.7323C14.9762 18.114 15.3695 18.8631 15.3695 20.0109C15.3695 21.6572 15.3552 22.9822 15.3552 23.387C15.3552 23.7144 15.5773 24.0981 16.2008 23.9772C21.0867 22.3486 24.6081 17.7384 24.6081 12.3037C24.6075 5.5087 19.0988 0 12.3037 0Z" fill="#181616"/>
<path d="M4.65964 17.6656C4.63247 17.7267 4.53671 17.745 4.4491 17.7029C4.35945 17.6629 4.30919 17.58 4.3384 17.5182C4.36488 17.455 4.46132 17.438 4.55029 17.4802C4.63994 17.5202 4.69088 17.6044 4.65964 17.6656ZM5.15815 18.2211C5.09974 18.2761 4.98496 18.2503 4.90686 18.1641C4.82671 18.0785 4.81109 17.9644 4.87086 17.9087C4.93198 17.8544 5.04269 17.8802 5.12351 17.9658C5.20365 18.0527 5.21995 18.1661 5.15815 18.2218V18.2211ZM5.64375 18.9302C5.56836 18.9825 5.44475 18.9336 5.36869 18.8242C5.2933 18.7142 5.2933 18.5831 5.37072 18.5308C5.44611 18.4778 5.56836 18.5254 5.64579 18.6341C5.72049 18.7448 5.72049 18.8765 5.64375 18.9295V18.9302ZM6.30797 19.6148C6.24073 19.6888 6.09675 19.6691 5.99148 19.5679C5.88417 19.4688 5.85429 19.3275 5.92153 19.2535C5.99012 19.1787 6.13478 19.1991 6.24073 19.3003C6.34804 19.3988 6.37996 19.5407 6.30865 19.6148H6.30797ZM7.22484 20.0121C7.19496 20.1085 7.05641 20.1527 6.91718 20.1112C6.77795 20.0691 6.68694 19.9564 6.71547 19.8593C6.74399 19.7615 6.88322 19.7166 7.02313 19.7601C7.16236 19.8022 7.25337 19.9143 7.22484 20.0121ZM8.23204 20.0854C8.23544 20.1873 8.11726 20.2708 7.97124 20.2729C7.82386 20.277 7.70433 20.1941 7.70297 20.0943C7.70297 19.9917 7.81911 19.9088 7.96581 19.9061C8.11183 19.9034 8.23204 19.9849 8.23204 20.0854ZM9.16861 19.9265C9.18627 20.025 9.08439 20.1269 8.93905 20.154C8.79643 20.1805 8.66399 20.1187 8.64565 20.0209C8.62867 19.9197 8.73191 19.8178 8.87453 19.7914C9.01987 19.7662 9.15027 19.826 9.16861 19.9265Z" fill="#181616"/>
</svg>
