<svg width="25" height="24" viewBox="0 0 25 24" fill="none" xmlns="http://www.w3.org/2000/svg">
<path d="M24.5024 9.49898L24.4673 9.40911L21.0762 0.558492C21.0055 0.380078 20.8892 0.239991 20.7273 0.137568C20.648 0.0886701 20.5634 0.0529874 20.4735 0.0298597C20.3837 0.006732 20.2918 -0.00251906 20.1993 0.00210651C20.1068 0.00739283 20.0163 0.025895 19.9297 0.0589344C19.8425 0.0913131 19.7625 0.136247 19.6892 0.193736C19.5405 0.313999 19.44 0.465981 19.3878 0.650341L17.0982 7.65603H7.82601L5.53571 0.650341C5.48483 0.46532 5.38439 0.312678 5.23505 0.192414C5.1617 0.134925 5.08175 0.0899915 4.99452 0.0576129C4.9073 0.0252342 4.81743 0.00607129 4.72492 0.00144572C4.63175 -0.0038406 4.54056 0.00541042 4.45069 0.0285381C4.36016 0.0516658 4.27558 0.0873483 4.19695 0.136247C4.03572 0.23933 3.91876 0.379418 3.84805 0.55717L0.45027 9.40382L0.41657 9.49369C-0.586509 12.1137 0.265249 15.082 2.50533 16.7723L2.51656 16.7809L2.54762 16.8033L7.71433 20.6716L10.2703 22.6064L11.8271 23.7819C11.9183 23.8507 12.0181 23.9035 12.1264 23.9405C12.2348 23.9769 12.3458 23.9947 12.4601 23.9947C12.5744 23.9947 12.6861 23.9769 12.7945 23.9405C12.9029 23.9035 13.002 23.8507 13.0932 23.7819L14.65 22.6064L17.2059 20.6716L22.4037 16.7796L22.4162 16.7696C24.651 15.0793 25.5015 12.1164 24.5024 9.49898Z" fill="#E24329"/>
<path d="M24.5025 9.49905L24.4675 9.40918C23.6415 9.579 22.844 9.83671 22.0741 10.1823C21.305 10.5279 20.5827 10.9534 19.9074 11.4589L12.459 17.0915C14.9951 19.0105 17.2035 20.6776 17.2035 20.6776L22.4012 16.7849L22.4138 16.775C24.6519 15.0847 25.5036 12.1184 24.5025 9.49905Z" fill="#FC6D26"/>
<path d="M7.71436 20.6769L10.2703 22.6117L11.8271 23.7873C11.9183 23.856 12.0181 23.9089 12.1264 23.9452C12.2348 23.9822 12.3458 24 12.4601 24C12.5745 24 12.6861 23.9822 12.7945 23.9452C12.9029 23.9089 13.002 23.856 13.0932 23.7873L14.65 22.6117L17.2059 20.6769C17.2059 20.6769 14.9956 19.0045 12.4588 17.0908C10.8762 18.2855 9.29496 19.4809 7.71436 20.6769Z" fill="#FCA326"/>
<path d="M5.00906 11.4589C4.33439 10.9527 3.61215 10.5258 2.84299 10.1796C2.07383 9.83266 1.27626 9.57429 0.45027 9.40381L0.41657 9.49368C-0.586509 12.1137 0.265249 15.082 2.50533 16.7723L2.51656 16.7809L2.54762 16.8033L7.71433 20.6716L12.4588 17.0855L5.00906 11.4589Z" fill="#FC6D26"/>
</svg>
