<svg width="22" height="24" viewBox="0 0 22 24" fill="none" xmlns="http://www.w3.org/2000/svg">
<mask id="mask0_60_5081" style="mask-type:luminance" maskUnits="userSpaceOnUse" x="0" y="0" width="22" height="24">
<path d="M0 0H21.28V24H0V0Z" fill="white"/>
</mask>
<g mask="url(#mask0_60_5081)">
<path d="M1.98484 21.6006L0.0585938 0H21.2211L19.293 21.5975L10.6267 24L1.98484 21.6006Z" fill="#264DE4"/>
</g>
<path d="M17.6426 20.2224L19.2901 1.76611H10.6401V22.1636L17.6426 20.2224Z" fill="#2965F1"/>
<path d="M4.47395 9.7774L4.71145 12.4268H10.6402V9.7774H4.47395ZM4.2377 7.0649H10.6402V4.41553H3.99707L4.2377 7.0649ZM10.6402 16.658L10.6283 16.6612L7.67832 15.8643L7.48957 13.7512H4.8302L5.20145 17.9112L10.6277 19.418L10.6402 19.4143V16.658Z" fill="#EBEBEB"/>
<path d="M10.6304 9.7774V12.4268H13.8929L13.5854 15.8624L10.6304 16.6599V19.4162L16.0616 17.9112L16.1016 17.4637L16.7241 10.4887L16.7885 9.7774L17.2672 4.41553H10.6304V7.0649H14.3635L14.1222 9.7774H10.6304Z" fill="black"/>
</svg>
