<svg width="25" height="24" viewBox="0 0 25 24" fill="none" xmlns="http://www.w3.org/2000/svg">
<path d="M1.5817 5.63643C-0.623537 8.80696 -0.348882 12.9315 1.33571 16.3C1.37571 16.3806 1.41771 16.4606 1.45904 16.54L1.53771 16.6913L1.58704 16.7786L1.67503 16.936C1.7277 17.0286 1.78103 17.1199 1.83569 17.2119L1.92769 17.3633C1.98835 17.4613 2.05035 17.5586 2.11435 17.6553L2.19368 17.7779C2.28167 17.9086 2.37167 18.0399 2.46433 18.1679L2.47167 18.1779L2.51766 18.2399C2.59766 18.3506 2.68032 18.4592 2.76365 18.5672L2.85698 18.6852C2.93165 18.7792 3.00698 18.8725 3.08431 18.9652L3.17164 19.0692C3.27497 19.1919 3.38096 19.3125 3.48829 19.4318L3.49496 19.4385L3.50762 19.4518C3.61295 19.5665 3.72095 19.6798 3.82961 19.7918L3.93294 19.8958C4.0176 19.9812 4.1036 20.0645 4.19026 20.1485L4.29559 20.2485C4.41158 20.3578 4.52891 20.4645 4.64891 20.5698L4.65424 20.5738L4.71557 20.6265C4.8209 20.7178 4.92823 20.8085 5.03622 20.8971L5.16889 21.0024C5.25755 21.0738 5.34621 21.1431 5.43621 21.2118L5.57887 21.3204C5.6782 21.3931 5.77819 21.4651 5.87886 21.5351L5.98818 21.6124L6.01818 21.6338C6.11351 21.6998 6.21151 21.7631 6.3095 21.8264L6.4355 21.9104C6.58549 22.0051 6.73749 22.0991 6.89081 22.1897L7.01681 22.2604C7.13014 22.3257 7.24346 22.3897 7.35879 22.4524C7.42146 22.4864 7.48545 22.5177 7.54812 22.5504C7.62945 22.5924 7.71011 22.6357 7.79344 22.677L7.84944 22.7044L7.9501 22.753C8.0781 22.8144 8.20742 22.8744 8.33809 22.9324L8.42008 22.969C8.56941 23.035 8.72074 23.0977 8.87273 23.1577L8.98273 23.201C9.12339 23.255 9.26605 23.3084 9.40937 23.359L9.46337 23.3777C9.6207 23.4323 9.77936 23.4837 9.93935 23.5337L10.0547 23.5677C10.2173 23.617 10.378 23.6757 10.546 23.7063C21.2135 25.6516 24.3121 17.2959 24.3121 17.2959C21.7095 20.6865 17.0904 21.5811 12.7132 20.5851C12.5472 20.5478 12.3866 20.4958 12.2253 20.4485L12.1033 20.4111C11.9453 20.3631 11.7886 20.3118 11.6326 20.2585L11.5679 20.2345C11.4293 20.1858 11.2906 20.1345 11.1533 20.0812L11.0373 20.0352C10.8866 19.9758 10.7373 19.9138 10.5893 19.8492L10.5 19.8092C10.3733 19.7525 10.2473 19.6938 10.122 19.6338L10.0127 19.5812C9.91469 19.5332 9.81736 19.4825 9.72069 19.4325C9.65603 19.3985 9.59003 19.3665 9.52537 19.3305C9.40804 19.2672 9.29138 19.2019 9.17538 19.1345L9.05739 19.0685C8.90406 18.9779 8.75207 18.8845 8.60141 18.7885L8.47808 18.7065C8.36875 18.6365 8.26076 18.5646 8.15343 18.4912L8.04943 18.4179C7.9461 18.3446 7.84411 18.2712 7.74278 18.1959L7.60678 18.0932C7.51345 18.0219 7.42146 17.9499 7.33013 17.8766L7.2068 17.7779C7.09014 17.6826 6.97548 17.5853 6.86148 17.4873L6.82415 17.4553C6.70149 17.3473 6.58083 17.2373 6.4615 17.1259L6.3595 17.028C6.27151 16.944 6.18418 16.8593 6.09885 16.7726L5.99685 16.6706C5.88886 16.56 5.78219 16.4473 5.67753 16.3326L5.66153 16.316C5.55154 16.1947 5.44354 16.072 5.33755 15.9467L5.25288 15.846C5.17355 15.7513 5.09556 15.6547 5.01956 15.558L4.93356 15.4513C4.84223 15.3334 4.7529 15.2134 4.66424 15.0927C2.23434 11.7782 1.36171 7.20636 3.30363 3.45252M8.42941 2.96521C6.83348 5.26111 6.92081 8.33432 8.16476 10.7615C8.37342 11.1702 8.60874 11.5628 8.87073 11.9395C9.10939 12.2821 9.37471 12.6895 9.69136 12.9648C9.80802 13.0921 9.92735 13.2161 10.0493 13.3368L10.144 13.4294C10.2633 13.5454 10.3853 13.6588 10.5093 13.7688L10.5247 13.7821L10.528 13.7854C10.6673 13.9067 10.81 14.0247 10.9553 14.1387L11.052 14.2147C11.198 14.3267 11.3473 14.4354 11.4986 14.5407L11.5113 14.5507C11.5786 14.5967 11.6473 14.6401 11.7153 14.6847L11.8119 14.7487C11.9206 14.8187 12.0313 14.8867 12.1433 14.9514L12.1899 14.9787C12.2866 15.0347 12.3846 15.0894 12.4826 15.1427L12.5866 15.1967C12.6546 15.232 12.7226 15.268 12.7912 15.3027L12.8226 15.3167C12.9632 15.386 13.1046 15.4527 13.2492 15.5153L13.3439 15.5547C13.4599 15.6033 13.5765 15.6513 13.6939 15.6967L13.8439 15.7513C13.9505 15.7907 14.0572 15.8267 14.1652 15.8633L14.3105 15.91C14.4638 15.9573 14.6158 16.0173 14.7751 16.044C23.0115 17.4086 24.9134 11.0669 24.9134 11.0669C23.1995 13.5354 19.8796 14.7134 16.3377 13.7941C16.1811 13.7528 16.0258 13.7081 15.8711 13.6594L15.7311 13.6141C15.6218 13.5788 15.5131 13.5408 15.4051 13.5014L15.2578 13.4468C15.1398 13.4014 15.0225 13.3541 14.9065 13.3048L14.8118 13.2648C14.6672 13.2021 14.5238 13.1354 14.3825 13.0654C14.3098 13.0301 14.2385 12.9928 14.1665 12.9555L14.0425 12.8915C13.9505 12.8421 13.8599 12.7908 13.7699 12.7375L13.7045 12.7008C13.5932 12.6355 13.4832 12.5688 13.3745 12.4988L13.2745 12.4328C13.2032 12.3861 13.1319 12.3395 13.0612 12.2915C12.9099 12.1862 12.7612 12.0782 12.6159 11.9655L12.5152 11.8868C10.9653 10.6629 9.73603 8.98962 9.15205 7.09303C8.53941 5.12578 8.67141 2.91721 9.73269 1.12529M14.1878 0.969959C13.2472 2.3539 13.1552 4.0725 13.8079 5.6011C14.4958 7.2237 15.9058 8.49631 17.5517 9.09962C17.619 9.12495 17.687 9.14695 17.7557 9.17095L17.8464 9.19895C17.943 9.22961 18.0397 9.26494 18.1397 9.28428C22.6875 10.1629 23.9208 6.95037 24.2494 6.47706C23.1688 8.033 21.3529 8.40631 19.125 7.86567C18.949 7.823 18.7556 7.75967 18.5857 7.69901C18.3677 7.62168 18.1543 7.53302 17.9457 7.43369C17.549 7.24236 17.1744 7.01437 16.8231 6.74905C14.8298 5.23578 13.5912 2.3499 14.8918 0" fill="#0868AC"/>
</svg>
