<svg width="24" height="24" viewBox="0 0 24 24" fill="none" xmlns="http://www.w3.org/2000/svg">
<mask id="mask0_60_5071" style="mask-type:luminance" maskUnits="userSpaceOnUse" x="0" y="0" width="24" height="24">
<path d="M0.240234 0.240234H23.7602V23.7602H0.240234V0.240234Z" fill="white"/>
</mask>
<g mask="url(#mask0_60_5071)">
<mask id="mask1_60_5071" style="mask-type:luminance" maskUnits="userSpaceOnUse" x="0" y="0" width="24" height="24">
<path d="M0 3.36V20.64C0 22.4956 1.50437 24 3.36 24H20.64C22.4956 24 24 22.4956 24 20.64V3.36C24 2.46875 23.6462 1.61437 23.0156 0.984375C22.3856 0.35375 21.5312 0 20.64 0H3.36C1.50437 0 0 1.50437 0 3.36Z" fill="white"/>
</mask>
<g mask="url(#mask1_60_5071)">
<mask id="mask2_60_5071" style="mask-type:luminance" maskUnits="userSpaceOnUse" x="0" y="0" width="24" height="24">
<path d="M3.50355 0.143555H20.4961C22.3517 0.143555 23.8561 1.64793 23.8561 3.50355V20.4961C23.8561 22.3517 22.3517 23.8561 20.4961 23.8561H3.50355C1.64793 23.8561 0.143555 22.3517 0.143555 20.4961V3.50355C0.143555 1.64793 1.64793 0.143555 3.50355 0.143555Z" fill="white"/>
</mask>
<g mask="url(#mask2_60_5071)">
<path d="M0.263672 0.263672H23.7362V23.7362H0.263672V0.263672Z" fill="#F0DB4F"/>
</g>
</g>
</g>
<mask id="mask3_60_5071" style="mask-type:luminance" maskUnits="userSpaceOnUse" x="6" y="10" width="16" height="12">
<path d="M6.31982 10.7998H21.9998V21.9998H6.31982V10.7998Z" fill="white"/>
</mask>
<g mask="url(#mask3_60_5071)">
<mask id="mask4_60_5071" style="mask-type:luminance" maskUnits="userSpaceOnUse" x="0" y="0" width="24" height="24">
<path d="M0 3.36V20.64C0 22.4956 1.50437 24 3.36 24H20.64C22.4956 24 24 22.4956 24 20.64V3.36C24 2.46875 23.6462 1.61437 23.0156 0.984375C22.3856 0.35375 21.5312 0 20.64 0H3.36C1.50437 0 0 1.50437 0 3.36Z" fill="white"/>
</mask>
<g mask="url(#mask4_60_5071)">
<mask id="mask5_60_5071" style="mask-type:luminance" maskUnits="userSpaceOnUse" x="0" y="0" width="24" height="24">
<path d="M3.50355 0.143555H20.4961C22.3517 0.143555 23.8561 1.64793 23.8561 3.50355V20.4961C23.8561 22.3517 22.3517 23.8561 20.4961 23.8561H3.50355C1.64793 23.8561 0.143555 22.3517 0.143555 20.4961V3.50355C0.143555 1.64793 1.64793 0.143555 3.50355 0.143555Z" fill="white"/>
</mask>
<g mask="url(#mask5_60_5071)">
<path d="M21.815 18.1379C21.6431 17.0667 20.945 16.1673 18.8762 15.3285C18.1581 14.9985 17.3569 14.7623 17.1181 14.2179C17.0337 13.901 17.0225 13.7223 17.0762 13.5304C17.23 12.9079 17.9731 12.7142 18.5619 12.8923C18.9412 13.0198 19.3006 13.3117 19.5169 13.7779C20.53 13.1223 20.5275 13.1267 21.235 12.676C20.9762 12.2742 20.8381 12.0892 20.6681 11.9173C20.0594 11.2373 19.2287 10.8867 17.9019 10.9135L17.21 11.0029C16.5475 11.1704 15.9162 11.5179 15.5456 11.9842C14.4344 13.2454 14.7512 15.4517 16.1037 16.3598C17.4356 17.3592 19.3925 17.5867 19.6419 18.5217C19.885 19.666 18.8012 20.0367 17.7231 19.9054C16.9287 19.7398 16.4875 19.336 16.01 18.6023C15.1306 19.111 15.1306 19.111 14.2269 19.6304C14.4412 20.0992 14.6662 20.311 15.0256 20.7173C16.7262 22.4417 20.9806 22.3573 21.7437 19.7467C21.775 19.6573 21.98 19.0592 21.815 18.1379ZM13.0244 11.0517H10.8287L10.8194 16.7273C10.8194 17.9348 10.8819 19.041 10.6856 19.3804C10.3644 20.0479 9.53248 19.9648 9.15311 19.8354C8.76686 19.646 8.57061 19.376 8.34311 18.9948C8.28061 18.8854 8.23373 18.8004 8.21811 18.7935L6.43311 19.8867C6.72998 20.496 7.16686 21.0248 7.72748 21.3685C8.56373 21.8704 9.68811 22.0242 10.8644 21.7542C11.6294 21.5317 12.29 21.0698 12.6356 20.3667C13.1356 19.4454 13.0281 18.3298 13.0237 17.096C13.035 15.0829 13.0244 13.071 13.0244 11.0517Z" fill="#323330"/>
</g>
</g>
</g>
<mask id="mask6_60_5071" style="mask-type:luminance" maskUnits="userSpaceOnUse" x="0" y="0" width="24" height="24">
<path d="M0 0H24V24H0V0Z" fill="white"/>
</mask>
<g mask="url(#mask6_60_5071)">
<mask id="mask7_60_5071" style="mask-type:luminance" maskUnits="userSpaceOnUse" x="0" y="0" width="24" height="24">
<path d="M0 3.36V20.64C0 22.4956 1.50437 24 3.36 24H20.64C22.4956 24 24 22.4956 24 20.64V3.36C24 2.46875 23.6462 1.61437 23.0156 0.984375C22.3856 0.35375 21.5312 0 20.64 0H3.36C1.50437 0 0 1.50437 0 3.36Z" fill="white"/>
</mask>
<g mask="url(#mask7_60_5071)">
<mask id="mask8_60_5071" style="mask-type:luminance" maskUnits="userSpaceOnUse" x="0" y="0" width="24" height="24">
<path d="M0 3.36V20.64C0 22.4956 1.50437 24 3.36 24H20.64C22.4956 24 24 22.4956 24 20.64V3.36C24 2.46875 23.6462 1.61437 23.0156 0.984375C22.3856 0.35375 21.5312 0 20.64 0H3.36C1.50437 0 0 1.50437 0 3.36Z" fill="white"/>
</mask>
<g mask="url(#mask8_60_5071)">
<path d="M0 3.36V20.64C0 22.4956 1.50438 24 3.36 24H20.64C22.4956 24 24 22.4956 24 20.64V3.36C24 2.46875 23.6463 1.61438 23.0156 0.984375C22.3856 0.35375 21.5313 0 20.64 0H3.36C1.50438 0 0 1.50438 0 3.36Z" stroke="#F0DB4F" stroke-width="14"/>
</g>
</g>
</g>
</svg>
