<svg width="46" height="24" viewBox="0 0 46 24" fill="none" xmlns="http://www.w3.org/2000/svg">
<mask id="mask0_60_5068" style="mask-type:luminance" maskUnits="userSpaceOnUse" x="0" y="0" width="46" height="24">
<path d="M0 0H46V24H0V0Z" fill="white"/>
</mask>
<g mask="url(#mask0_60_5068)">
<path fill-rule="evenodd" clip-rule="evenodd" d="M-0.0854868 21.7621H1.43134V15.7657L3.79793 20.9928C4.06596 21.6214 4.45177 21.8546 5.19817 21.8546C5.94336 21.8546 6.30634 21.6214 6.58278 20.9928L8.93855 15.7657V21.7621H10.4662V15.7657C10.4662 15.1827 10.233 14.9027 9.74264 14.7512C8.58879 14.4027 7.81956 14.7056 7.4698 15.4856L5.14889 20.6551L2.90971 15.4856C2.57197 14.7056 1.78951 14.4027 0.623648 14.7512C0.145282 14.9027 -0.0878906 15.1827 -0.0878906 15.7657V21.7621H-0.0854868ZM11.7282 16.8835H13.2559V20.1779C13.245 20.3642 13.3148 20.7837 14.1441 20.7945C14.5756 20.8065 17.4337 20.7945 17.4566 20.7945V16.8594H18.9842V22.2512C18.9842 23.5782 17.3376 23.869 16.5696 23.8811H11.7655V22.8678H16.5828C17.5624 22.7633 17.4458 22.2741 17.4458 22.1118V21.7152H14.215C12.7102 21.7032 11.7426 21.0397 11.7306 20.2825V16.8823L11.7282 16.8835ZM44.4962 13.0637C43.5636 13.0397 42.84 13.1335 42.2342 13.3895C42.0587 13.4604 41.7787 13.4604 41.7559 13.6815C41.8496 13.7741 41.8604 13.9255 41.9422 14.0541C42.0828 14.2873 42.328 14.601 42.5491 14.7633C42.7943 14.9496 43.0395 15.1359 43.2955 15.2993C43.7499 15.5782 44.2631 15.7416 44.7054 16.0217C44.9626 16.1839 45.2186 16.3943 45.4758 16.5686C45.6068 16.6623 45.6862 16.8137 45.8484 16.8714V16.8366C45.7679 16.732 45.7438 16.5806 45.6621 16.464C45.5455 16.3474 45.4289 16.2416 45.3124 16.1262C44.9746 15.6719 44.5539 15.2753 44.0996 14.9496C43.7258 14.6936 42.9109 14.345 42.7583 13.9135L42.7354 13.8907C42.9914 13.8666 43.2955 13.7741 43.5407 13.7044C43.9374 13.5998 44.2979 13.6226 44.7054 13.5181C44.8929 13.4712 45.0792 13.4135 45.2655 13.3546V13.25C45.0563 13.0409 44.9049 12.7609 44.6837 12.5637C44.0888 12.0517 43.435 11.5505 42.7583 11.1311C42.3977 10.8979 41.9301 10.7464 41.5455 10.5493C41.4061 10.4796 41.1729 10.4448 41.0912 10.3282C40.8809 10.0722 40.7643 9.73442 40.6128 9.43154C40.2751 8.79091 39.9482 8.08057 39.6573 7.40509C39.447 6.95077 39.3184 6.49764 39.0624 6.07817C37.8604 4.0986 36.5551 2.89908 34.5491 1.7236C34.1176 1.47841 33.6044 1.37384 33.0587 1.24524L32.185 1.19836C31.9975 1.11663 31.8112 0.895477 31.6477 0.79091C30.983 0.371439 29.2691 -0.536013 28.7787 0.663506C28.4638 1.41952 29.245 2.16471 29.5107 2.54932C29.709 2.81735 29.965 3.12024 30.1056 3.42192C30.1837 3.62024 30.2102 3.83057 30.2919 4.03971C30.4782 4.55173 30.6537 5.12264 30.8989 5.5998C31.0287 5.845 31.1669 6.10101 31.3292 6.32216C31.4229 6.45077 31.5864 6.50846 31.6212 6.71879C31.4578 6.95197 31.447 7.30053 31.3532 7.59139C30.9337 8.9075 31.0972 10.5373 31.691 11.5037C31.8785 11.7945 32.3184 12.4351 32.9157 12.1912C33.441 11.9808 33.3244 11.3174 33.4758 10.7356C33.5107 10.5962 33.4866 10.5024 33.5563 10.4087V10.4327L34.0347 11.3991C34.3965 11.97 35.0263 12.5637 35.5515 12.9592C35.8304 13.1695 36.0527 13.5301 36.4025 13.6587V13.6226H36.3797C36.3087 13.5181 36.2042 13.4712 36.1104 13.3907C35.9013 13.1803 35.6681 12.9243 35.5047 12.6912C35.0143 12.0397 34.584 11.3174 34.1982 10.5722C34.0119 10.2116 33.8484 9.81615 33.697 9.45437C33.6273 9.31495 33.6273 9.10461 33.5107 9.0361C33.3352 9.29091 33.0792 9.51327 32.9506 9.82697C32.7282 10.3282 32.7054 10.9448 32.6237 11.5854C32.5768 11.5974 32.5984 11.5854 32.5768 11.6094C32.2042 11.5157 32.0756 11.1311 31.9362 10.8053C31.5864 9.97961 31.5275 8.65149 31.8304 7.69716C31.9121 7.45197 32.2631 6.68394 32.1225 6.45077C32.0527 6.22961 31.8196 6.10221 31.691 5.92673C31.5395 5.70557 31.3761 5.42673 31.2715 5.18154C30.9914 4.52889 30.852 3.80774 30.5491 3.15509C30.4085 2.85221 30.1633 2.53851 29.965 2.25966C29.7438 1.94476 29.4987 1.7236 29.3244 1.35101C29.2655 1.2224 29.1837 1.01327 29.2775 0.873843C29.3003 0.780092 29.3472 0.745237 29.4398 0.7224C29.5924 0.593795 30.0239 0.757256 30.1753 0.825766C30.6068 1.00125 30.9686 1.16351 31.3292 1.4087C31.4926 1.52408 31.6681 1.74644 31.8785 1.80413H32.1225C32.4962 1.88586 32.9157 1.82817 33.2655 1.93274C33.8833 2.13105 34.4434 2.42192 34.9446 2.73562C36.4722 3.70197 37.7318 5.07697 38.5828 6.71879C38.7234 6.98682 38.7811 7.23081 38.9097 7.51086C39.1549 8.08178 39.4578 8.66351 39.703 9.2224C39.9482 9.76928 40.1813 10.3294 40.5311 10.7837C40.7054 11.0277 41.4049 11.1551 41.7198 11.2837C41.953 11.3883 42.3148 11.482 42.5251 11.6094C42.9205 11.8546 43.3172 12.1335 43.691 12.4015C43.8773 12.5409 44.4602 12.8318 44.495 13.0649L44.4962 13.0637ZM32.6044 2.94476C32.4422 2.94355 32.2823 2.96278 32.1261 3.00365V3.02649H32.1489C32.2426 3.21278 32.4061 3.34139 32.5227 3.50365L32.7907 4.06375L32.8136 4.03971C32.977 3.92312 33.0587 3.73682 33.0587 3.45798C32.989 3.37625 32.977 3.29452 32.9193 3.21279C32.8496 3.0974 32.697 3.03851 32.6044 2.94596V2.94476Z" fill="#00678C"/>
</g>
<path fill-rule="evenodd" clip-rule="evenodd" d="M20.1479 21.7621H24.5326C25.0458 21.7621 25.5362 21.6575 25.9328 21.4712C26.5975 21.1683 26.9124 20.7609 26.9124 20.2248V19.107C26.9124 18.6767 26.5506 18.2693 25.8282 17.9892C25.4544 17.8498 24.9881 17.7681 24.5338 17.7681H22.6912C22.0722 17.7681 21.7814 17.5818 21.6996 17.1743C21.6876 17.1274 21.6876 17.0818 21.6876 17.0349V16.3474C21.6876 16.3125 21.6876 16.2657 21.6996 16.22C21.7814 15.9051 21.9436 15.8234 22.4833 15.7657H26.9725V14.7524H22.7044C22.0867 14.7524 21.7597 14.7873 21.4689 14.881C20.571 15.1599 20.1744 15.6022 20.1744 16.3822V17.2681C20.1744 17.9544 20.9436 18.5373 22.2501 18.6767C22.3895 18.6887 22.541 18.6887 22.6924 18.6887H24.2669C24.3258 18.6887 24.3835 18.6887 24.4304 18.6996C24.9088 18.7464 25.1179 18.8282 25.2585 19.0024C25.3511 19.095 25.3751 19.1767 25.3751 19.2825V20.1671C25.3751 20.2717 25.3054 20.4111 25.1648 20.5277C25.0254 20.6443 24.803 20.726 24.5121 20.7368C24.4532 20.7368 24.4184 20.7488 24.3595 20.7488H20.1479V21.7621ZM36.404 20.0036C36.404 21.0397 37.1888 21.6214 38.7489 21.7392C38.9004 21.75 39.0398 21.7621 39.1912 21.7621H43.1564V20.7488H39.1576C38.2705 20.7488 37.9328 20.5277 37.9328 19.9916V14.7524H36.4004V20.0036H36.404ZM27.8799 20.0493V16.4411C27.8799 15.5205 28.5326 14.9616 29.8042 14.7873C29.9436 14.7753 30.0842 14.7633 30.2117 14.7633H33.1035C33.2549 14.7633 33.3835 14.7753 33.535 14.7873C34.8066 14.9616 35.4472 15.5205 35.4472 16.4411V20.0493C35.4472 20.7945 35.1792 21.1911 34.5494 21.4592L36.0422 22.8089H34.2814L33.0686 21.7152L31.8439 21.7849H30.2117C29.9112 21.7837 29.6155 21.7452 29.3246 21.6695C28.3583 21.4003 27.8799 20.8883 27.8799 20.0493ZM29.5242 19.9688C29.5242 20.0157 29.5494 20.0613 29.559 20.1202C29.6407 20.5397 30.0362 20.7717 30.6431 20.7717H32.0193L30.7597 19.631H32.5205L33.6287 20.6322C33.8391 20.5157 33.9665 20.3534 34.0133 20.1431C34.0254 20.0974 34.0254 20.0385 34.0254 19.9916V16.5337C34.0254 16.4868 34.0254 16.4411 34.0133 16.3943C33.9316 15.9976 33.5362 15.7777 32.9412 15.7777H30.6431C29.9665 15.7777 29.5242 16.0685 29.5242 16.5337V19.9688Z" fill="#CE8B2C"/>
</svg>
