<svg width="47" height="24" viewBox="0 0 47 24" fill="none" xmlns="http://www.w3.org/2000/svg">
<mask id="mask0_60_5078" style="mask-type:luminance" maskUnits="userSpaceOnUse" x="0" y="0" width="47" height="24">
<path d="M0 0H46.4672V24H0V0Z" fill="white"/>
</mask>
<g mask="url(#mask0_60_5078)">
<mask id="mask1_60_5078" style="mask-type:luminance" maskUnits="userSpaceOnUse" x="0" y="0" width="47" height="25">
<path d="M0.043457 12.0168C0.043457 18.6455 10.4257 24.0181 23.2328 24.0181C36.0398 24.0181 46.4233 18.6455 46.4233 12.0168C46.4233 5.3882 36.0398 0.015625 23.2328 0.015625C10.4257 0.015625 0.043457 5.38941 0.043457 12.0168Z" fill="white"/>
</mask>
<g mask="url(#mask1_60_5078)">
<mask id="mask2_60_5078" style="mask-type:luminance" maskUnits="userSpaceOnUse" x="0" y="0" width="47" height="25">
<path d="M0.043457 12.0168C0.043457 18.6455 10.4257 24.0181 23.2328 24.0181C36.0398 24.0181 46.4233 18.6455 46.4233 12.0168C46.4233 5.3882 36.0398 0.015625 23.2328 0.015625C10.4257 0.015625 0.043457 5.38941 0.043457 12.0168Z" fill="white"/>
</mask>
<g mask="url(#mask2_60_5078)">
<path d="M0.043457 0.015625V23.9998H46.4233V0.015625H0.043457Z" fill="url(#paint0_radial_60_5078)"/>
</g>
</g>
</g>
<path d="M23.2332 23.1276C35.5402 23.1276 45.5184 18.1531 45.5184 12.0172C45.5184 5.88125 35.5402 0.906738 23.2332 0.906738C10.9262 0.906738 0.949219 5.88125 0.949219 12.0172C0.949219 18.1531 10.9262 23.1276 23.2332 23.1276Z" fill="#777BB3"/>
<path d="M12.6418 13.3942C13.6539 13.3942 14.41 13.211 14.8882 12.8481C15.3602 12.4901 15.6867 11.8699 15.8578 11.0046C16.018 10.1952 15.9573 9.62964 15.6782 9.32503C15.3918 9.01314 14.7741 8.85537 13.8408 8.85537H12.2243L11.3275 13.3942H12.6418ZM7.35296 18.9852C7.27772 18.9852 7.20733 18.9525 7.15878 18.8942C7.10903 18.8347 7.09082 18.7668 7.1066 18.6903L9.4816 6.66362C9.49373 6.60537 9.52286 6.55683 9.56898 6.5192C9.61509 6.48158 9.66849 6.46338 9.72917 6.46338H14.8505C16.4598 6.46338 17.6576 6.89178 18.41 7.74129C19.1673 8.59323 19.4015 9.78498 19.1054 11.2826C18.9852 11.893 18.7777 12.4597 18.4901 12.967C18.2013 13.4743 17.8202 13.944 17.3566 14.3639C16.802 14.8748 16.1733 15.2449 15.4913 15.4634C14.8202 15.6782 13.9585 15.7874 12.9294 15.7874H10.8554L10.2632 18.785C10.2522 18.8432 10.2231 18.8906 10.177 18.9282C10.1297 18.9658 10.0763 18.9852 10.0168 18.9852H7.35296Z" fill="black"/>
<path d="M12.4319 9.10319H13.8421C14.9671 9.10319 15.3578 9.34591 15.4913 9.49154C15.7122 9.73183 15.7535 10.2391 15.6115 10.9576C15.4525 11.7622 15.1576 12.3326 14.7341 12.653C14.3008 12.9806 13.5969 13.1469 12.643 13.1469H11.6333L12.4319 9.10319ZM14.8493 6.21484H9.7292C9.60905 6.21484 9.50226 6.25247 9.40881 6.32771C9.31658 6.40416 9.25833 6.50004 9.23527 6.61533L6.85905 18.6432C6.8457 18.7161 6.84692 18.7889 6.86512 18.8605C6.88454 18.9321 6.91731 18.9964 6.96464 19.0534C7.01318 19.1105 7.07022 19.1542 7.13818 19.1857C7.20614 19.2173 7.27774 19.233 7.35299 19.233H10.0168C10.137 19.233 10.2438 19.1954 10.336 19.1202C10.4294 19.0449 10.4877 18.9491 10.5108 18.8326L11.0629 16.0352H12.9294C13.9841 16.0352 14.8736 15.9224 15.5702 15.6991C16.2862 15.4697 16.9452 15.0813 17.529 14.5449C18.0108 14.108 18.4088 13.619 18.7098 13.0886C19.0095 12.5583 19.2268 11.9661 19.353 11.3301C19.6637 9.75368 19.4112 8.49154 18.6006 7.57892C17.7972 6.67479 16.5362 6.21606 14.8506 6.21606M11.0229 13.642H12.643C13.7171 13.642 14.5168 13.4442 15.0423 13.0462C15.5666 12.6481 15.9222 11.983 16.1054 11.0522C16.2826 10.1578 16.2025 9.52795 15.8651 9.16023C15.529 8.79251 14.8542 8.60926 13.8421 8.60926H12.018L11.0229 13.642ZM14.8506 6.7112C16.3906 6.7112 17.5156 7.10926 18.2219 7.90416C18.9282 8.69907 19.1406 9.81072 18.8591 11.2355C18.7425 11.8229 18.5459 12.3605 18.2705 12.8471C17.9938 13.3326 17.6321 13.778 17.1867 14.1821C16.6552 14.6712 16.0642 15.0207 15.4137 15.2282C14.7644 15.4369 13.9355 15.5401 12.9294 15.5401H10.6479L10.0168 18.7379H7.3542L9.73041 6.71242H14.8506" fill="white"/>
<path d="M25.2114 15.7877C25.1361 15.7877 25.0645 15.7549 25.0172 15.6967C24.9699 15.6396 24.9504 15.5656 24.965 15.4928L26.016 10.1712C26.1155 9.66513 26.0912 9.30106 25.9456 9.14814C25.857 9.0547 25.5912 8.89693 24.8048 8.89693H22.9007L21.5791 15.5875C21.5682 15.6445 21.539 15.693 21.4917 15.7307C21.4456 15.7683 21.3922 15.7877 21.3327 15.7877H18.6907C18.6531 15.7877 18.6167 15.7792 18.5827 15.7634C18.5487 15.7477 18.5196 15.7258 18.4966 15.6967C18.4723 15.6688 18.4553 15.636 18.4468 15.6008C18.4371 15.5644 18.4359 15.5292 18.4432 15.4928L20.8194 3.46489C20.8303 3.40785 20.8594 3.35931 20.9055 3.32169C20.9529 3.28407 21.0063 3.26465 21.0657 3.26465H23.7077C23.7453 3.26465 23.7818 3.27314 23.8157 3.28892C23.8497 3.3047 23.8788 3.32654 23.9019 3.35567C23.9262 3.38358 23.9432 3.41635 23.9517 3.45154C23.9614 3.48795 23.9626 3.52314 23.9553 3.55955L23.3825 6.46246H25.4298C26.9905 6.46246 28.0487 6.73309 28.6652 7.29013C29.2939 7.8581 29.4893 8.76708 29.2478 9.99038L28.1422 15.5875C28.1313 15.6457 28.1021 15.693 28.056 15.7307C28.0087 15.7683 27.9553 15.7877 27.8958 15.7877H25.2114Z" fill="black"/>
<path d="M23.7085 3.01709H21.0665C20.9452 3.01709 20.8384 3.05592 20.7461 3.13117C20.6527 3.20641 20.5944 3.30228 20.5714 3.41879L18.1964 15.4455C18.1818 15.5183 18.183 15.5899 18.2024 15.6615C18.2207 15.7331 18.2534 15.7974 18.302 15.8545C18.3493 15.9115 18.4075 15.9564 18.4755 15.988C18.5435 16.0195 18.6151 16.0353 18.6903 16.0353H21.3323C21.4524 16.0353 21.5592 15.9977 21.6527 15.9212C21.7449 15.846 21.8032 15.7501 21.8262 15.6348L23.1078 9.14452H24.8044C25.5896 9.14452 25.7546 9.30957 25.7619 9.31685C25.8092 9.3666 25.8723 9.60083 25.768 10.1239L24.717 15.4455C24.7024 15.5183 24.7049 15.5899 24.7231 15.6615C24.7425 15.7331 24.7753 15.7974 24.8226 15.8545C24.8711 15.9115 24.9282 15.9564 24.9961 15.988C25.0653 16.0195 25.1357 16.0353 25.2109 16.0353H27.8954C28.0156 16.0353 28.1224 15.9977 28.2158 15.9212C28.308 15.846 28.3663 15.7501 28.3893 15.6348L29.4949 10.0377C29.7546 8.7234 29.5325 7.73796 28.8359 7.10811C28.1709 6.50738 27.0568 6.21491 25.4306 6.21491H23.6867L24.2024 3.6069C24.217 3.53408 24.2146 3.46248 24.1964 3.39088C24.177 3.31927 24.1442 3.25495 24.0969 3.19792C24.0483 3.14088 23.9913 3.09597 23.9233 3.06442C23.8554 3.03287 23.7838 3.01709 23.7085 3.01709ZM23.7085 3.51224L23.0762 6.71005H25.4306C26.9112 6.71005 27.933 6.96491 28.4949 7.47219C29.058 7.98068 29.2255 8.80471 29.001 9.94306L27.8954 15.5401H25.2122L26.2631 10.2185C26.3821 9.61296 26.3384 9.20034 26.1308 8.97947C25.9233 8.75981 25.4804 8.64937 24.8044 8.64937H22.6927L21.3323 15.5401H18.6903L21.0665 3.51224H23.7085Z" fill="white"/>
<path d="M33.4286 13.3944C34.4408 13.3944 35.1968 13.2112 35.6738 12.8483C36.1471 12.4903 36.4735 11.8702 36.6446 11.0049C36.8048 10.1954 36.7442 9.62988 36.4638 9.32527C36.1786 9.01337 35.5609 8.85561 34.6277 8.85561H33.0112L32.1143 13.3944H33.4286ZM28.1398 18.9855C28.0645 18.9855 27.9929 18.9515 27.9456 18.8944C27.8946 18.835 27.8777 18.767 27.8922 18.6906L30.2684 6.66265C30.2806 6.60439 30.3085 6.55706 30.3558 6.51944C30.4019 6.48182 30.4553 6.4624 30.516 6.4624H35.6361C37.2466 6.4624 38.4432 6.89201 39.1968 7.74031C39.9541 8.59347 40.1871 9.78522 39.891 11.2828C39.7709 11.892 39.5633 12.4588 39.2757 12.966C38.9869 13.4745 38.6058 13.9442 38.1422 14.3641C37.5876 14.875 36.9602 15.2452 36.2769 15.4636C35.6058 15.6784 34.7442 15.7876 33.715 15.7876H31.6398L31.0488 18.7852C31.0366 18.8435 31.0075 18.8908 30.9614 18.9284C30.9153 18.966 30.8619 18.9855 30.8012 18.9855H28.1386H28.1398Z" fill="black"/>
<path d="M33.2184 9.10319H34.6274C35.7536 9.10319 36.1444 9.34591 36.2779 9.49154C36.4975 9.73183 36.54 10.2391 36.398 10.9576C36.239 11.7622 35.9429 12.3326 35.5206 12.653C35.0873 12.9806 34.3835 13.1469 33.4284 13.1469H32.4199L33.2184 9.10319ZM35.6359 6.21484H30.5157C30.3944 6.21484 30.2876 6.25247 30.1954 6.32771C30.1019 6.40416 30.0449 6.50004 30.0218 6.61533L27.6456 18.6432C27.631 18.7161 27.6322 18.7889 27.6517 18.8605C27.6699 18.9321 27.7026 18.9964 27.7512 19.0534C27.7985 19.1105 27.8568 19.1542 27.9247 19.1857C27.9927 19.2173 28.0643 19.233 28.1395 19.233H30.8022C30.9223 19.233 31.0291 19.1954 31.1225 19.1202C31.2148 19.0449 31.273 18.9491 31.2961 18.8326L31.8483 16.0352H33.7148C34.7706 16.0352 35.6589 15.9224 36.3555 15.6991C37.0716 15.4697 37.7305 15.0813 38.3143 14.5449C38.7973 14.108 39.1941 13.619 39.4951 13.0886C39.7961 12.5583 40.0121 11.9661 40.1383 11.3301C40.4502 9.75368 40.1966 8.49154 39.3859 7.57892C38.5825 6.67479 37.3216 6.21606 35.6359 6.21606M31.8082 13.642H33.4284C34.5024 13.642 35.3022 13.4442 35.8276 13.0462C36.3531 12.6481 36.7075 11.983 36.892 11.0522C37.0679 10.1578 36.9878 9.52795 36.6505 9.16023C36.3143 8.79251 35.6395 8.60926 34.6274 8.60926H32.8034L31.8082 13.642ZM35.6359 6.7112C37.1772 6.7112 38.3009 7.10926 39.0072 7.90416C39.7136 8.69907 39.9259 9.81072 39.6444 11.2355C39.5279 11.8229 39.3325 12.3605 39.0558 12.8471C38.7791 13.3326 38.4187 13.778 37.9721 14.1821C37.4405 14.6712 36.8495 15.0207 36.199 15.2282C35.5497 15.4369 34.7221 15.5401 33.7148 15.5401H31.4344L30.8022 18.7379H28.1395L30.5157 6.7112H35.6359Z" fill="white"/>
<defs>
<radialGradient id="paint0_radial_60_5078" cx="0" cy="0" r="1" gradientUnits="userSpaceOnUse" gradientTransform="translate(13.9667 4.23453) scale(30.4519 29.9591)">
<stop stop-color="#AEB2D5"/>
<stop offset="0.25" stop-color="#AEB2D5"/>
<stop offset="0.296875" stop-color="#AEB2D5"/>
<stop offset="0.300781" stop-color="#ADB1D4"/>
<stop offset="0.304688" stop-color="#ACB0D4"/>
<stop offset="0.308594" stop-color="#ACB0D3"/>
<stop offset="0.3125" stop-color="#ABAFD2"/>
<stop offset="0.316406" stop-color="#AAAED2"/>
<stop offset="0.320312" stop-color="#A9ADD1"/>
<stop offset="0.324219" stop-color="#A8ACD1"/>
<stop offset="0.328125" stop-color="#A7ABD0"/>
<stop offset="0.332031" stop-color="#A6AACF"/>
<stop offset="0.335938" stop-color="#A5A9CF"/>
<stop offset="0.339844" stop-color="#A4A9CE"/>
<stop offset="0.34375" stop-color="#A4A8CD"/>
<stop offset="0.347656" stop-color="#A3A7CD"/>
<stop offset="0.351562" stop-color="#A2A6CC"/>
<stop offset="0.355469" stop-color="#A1A5CB"/>
<stop offset="0.359375" stop-color="#A0A4CB"/>
<stop offset="0.363281" stop-color="#9FA3CA"/>
<stop offset="0.367188" stop-color="#9EA2C9"/>
<stop offset="0.371094" stop-color="#9DA1C9"/>
<stop offset="0.375" stop-color="#9CA1C8"/>
<stop offset="0.378906" stop-color="#9CA0C7"/>
<stop offset="0.382812" stop-color="#9B9FC7"/>
<stop offset="0.386719" stop-color="#9A9EC6"/>
<stop offset="0.390625" stop-color="#999DC5"/>
<stop offset="0.394531" stop-color="#989CC5"/>
<stop offset="0.398438" stop-color="#979BC4"/>
<stop offset="0.402344" stop-color="#969AC3"/>
<stop offset="0.40625" stop-color="#9599C3"/>
<stop offset="0.410156" stop-color="#9499C2"/>
<stop offset="0.414062" stop-color="#9498C1"/>
<stop offset="0.417969" stop-color="#9397C1"/>
<stop offset="0.421875" stop-color="#9296C0"/>
<stop offset="0.425781" stop-color="#9195BF"/>
<stop offset="0.429688" stop-color="#9094BF"/>
<stop offset="0.433594" stop-color="#8F93BE"/>
<stop offset="0.4375" stop-color="#8E92BD"/>
<stop offset="0.441406" stop-color="#8D91BD"/>
<stop offset="0.445312" stop-color="#8D91BC"/>
<stop offset="0.449219" stop-color="#8C90BB"/>
<stop offset="0.453125" stop-color="#8B8FBB"/>
<stop offset="0.457031" stop-color="#8A8EBA"/>
<stop offset="0.460938" stop-color="#898DB9"/>
<stop offset="0.464844" stop-color="#888CB9"/>
<stop offset="0.46875" stop-color="#878BB8"/>
<stop offset="0.472656" stop-color="#868AB7"/>
<stop offset="0.476562" stop-color="#858AB7"/>
<stop offset="0.480469" stop-color="#8589B6"/>
<stop offset="0.484375" stop-color="#8488B5"/>
<stop offset="0.488281" stop-color="#8387B5"/>
<stop offset="0.492188" stop-color="#8286B4"/>
<stop offset="0.496094" stop-color="#8185B3"/>
<stop offset="0.5" stop-color="#8084B3"/>
<stop offset="0.503906" stop-color="#7F83B2"/>
<stop offset="0.507812" stop-color="#7E82B1"/>
<stop offset="0.511719" stop-color="#7D82B1"/>
<stop offset="0.515625" stop-color="#7D81B0"/>
<stop offset="0.519531" stop-color="#7C80B0"/>
<stop offset="0.523438" stop-color="#7B7FAF"/>
<stop offset="0.527344" stop-color="#7A7EAE"/>
<stop offset="0.53125" stop-color="#797DAE"/>
<stop offset="0.535156" stop-color="#787CAD"/>
<stop offset="0.539062" stop-color="#777BAC"/>
<stop offset="0.542969" stop-color="#767AAC"/>
<stop offset="0.546875" stop-color="#767AAB"/>
<stop offset="0.550781" stop-color="#7579AA"/>
<stop offset="0.554688" stop-color="#7478AA"/>
<stop offset="0.558594" stop-color="#7377A9"/>
<stop offset="0.5625" stop-color="#7276A8"/>
<stop offset="0.566406" stop-color="#7175A8"/>
<stop offset="0.570312" stop-color="#7074A7"/>
<stop offset="0.574219" stop-color="#6F73A6"/>
<stop offset="0.578125" stop-color="#6E73A6"/>
<stop offset="0.582031" stop-color="#6E72A5"/>
<stop offset="0.585938" stop-color="#6D71A4"/>
<stop offset="0.589844" stop-color="#6C70A4"/>
<stop offset="0.59375" stop-color="#6B6FA3"/>
<stop offset="0.597656" stop-color="#6A6EA2"/>
<stop offset="0.601562" stop-color="#696DA2"/>
<stop offset="0.605469" stop-color="#686CA1"/>
<stop offset="0.609375" stop-color="#676BA0"/>
<stop offset="0.613281" stop-color="#666BA0"/>
<stop offset="0.617188" stop-color="#666A9F"/>
<stop offset="0.621094" stop-color="#65699E"/>
<stop offset="0.625" stop-color="#64689E"/>
<stop offset="0.628906" stop-color="#63679D"/>
<stop offset="0.632812" stop-color="#62669C"/>
<stop offset="0.636719" stop-color="#61659C"/>
<stop offset="0.640625" stop-color="#60649B"/>
<stop offset="0.644531" stop-color="#5F639A"/>
<stop offset="0.648438" stop-color="#5E639A"/>
<stop offset="0.652344" stop-color="#5E6299"/>
<stop offset="0.65625" stop-color="#5D6198"/>
<stop offset="0.660156" stop-color="#5C6098"/>
<stop offset="0.664062" stop-color="#5B5F97"/>
<stop offset="0.667969" stop-color="#5A5E96"/>
<stop offset="0.671875" stop-color="#595D96"/>
<stop offset="0.675781" stop-color="#585C95"/>
<stop offset="0.679688" stop-color="#575B94"/>
<stop offset="0.683594" stop-color="#575B94"/>
<stop offset="0.6875" stop-color="#565A93"/>
<stop offset="0.691406" stop-color="#555992"/>
<stop offset="0.695312" stop-color="#545892"/>
<stop offset="0.699219" stop-color="#535791"/>
<stop offset="0.703125" stop-color="#525691"/>
<stop offset="0.707031" stop-color="#515590"/>
<stop offset="0.710938" stop-color="#50548F"/>
<stop offset="0.714844" stop-color="#4F548F"/>
<stop offset="0.71875" stop-color="#4F538E"/>
<stop offset="0.722656" stop-color="#4E528D"/>
<stop offset="0.726562" stop-color="#4D518D"/>
<stop offset="0.730469" stop-color="#4C508C"/>
<stop offset="0.734375" stop-color="#4B4F8B"/>
<stop offset="0.738281" stop-color="#4A4E8B"/>
<stop offset="0.742188" stop-color="#494D8A"/>
<stop offset="0.746094" stop-color="#484C89"/>
<stop offset="1" stop-color="#484C89"/>
</radialGradient>
</defs>
</svg>
