<svg width="26" height="24" viewBox="0 0 26 24" fill="none" xmlns="http://www.w3.org/2000/svg">
<path d="M15.1262 11.9787C15.1262 12.1291 15.1115 12.2782 15.0821 12.4252C15.0527 12.573 15.0092 12.716 14.9518 12.855C14.8943 12.9934 14.8234 13.1258 14.7399 13.2508C14.6563 13.3758 14.5614 13.4914 14.4551 13.5977C14.3488 13.704 14.2325 13.7982 14.1075 13.8818C13.9825 13.9653 13.8501 14.0362 13.7111 14.0937C13.5721 14.1512 13.429 14.1946 13.2813 14.224C13.1336 14.2534 12.9845 14.2675 12.8341 14.2675C12.6837 14.2675 12.5346 14.2534 12.3869 14.224C12.2392 14.1946 12.0961 14.1512 11.9571 14.0937C11.8181 14.0362 11.6857 13.9653 11.5607 13.8818C11.4357 13.7982 11.3201 13.704 11.2138 13.5977C11.1068 13.4914 11.0119 13.3758 10.9284 13.2508C10.8448 13.1258 10.7739 12.9934 10.7165 12.855C10.659 12.716 10.6155 12.573 10.5861 12.4252C10.5567 12.2782 10.542 12.1291 10.542 11.9787C10.542 11.8283 10.5567 11.6799 10.5861 11.5322C10.6155 11.3851 10.659 11.2421 10.7165 11.103C10.7739 10.964 10.8448 10.8323 10.9284 10.7073C11.0119 10.5823 11.1068 10.4667 11.2138 10.3604C11.3201 10.2541 11.4357 10.1592 11.5607 10.0756C11.6857 9.99208 11.8181 9.92189 11.9571 9.86441C12.0961 9.80692 12.2392 9.76347 12.3869 9.73406C12.5346 9.70465 12.6837 9.68994 12.8341 9.68994C12.9845 9.68994 13.1336 9.70465 13.2813 9.73406C13.429 9.76347 13.5721 9.80692 13.7111 9.86441C13.8501 9.92189 13.9825 9.99208 14.1075 10.0756C14.2325 10.1592 14.3488 10.2541 14.4551 10.3604C14.5614 10.4667 14.6563 10.5823 14.7399 10.7073C14.8234 10.8323 14.8943 10.964 14.9518 11.103C15.0092 11.2421 15.0527 11.3851 15.0821 11.5322C15.1115 11.6799 15.1262 11.8283 15.1262 11.9787Z" fill="#00D8FF"/>
<mask id="mask0_60_5070" style="mask-type:luminance" maskUnits="userSpaceOnUse" x="0" y="0" width="26" height="23">
<path d="M0 0.97998H25.6684V22.8837H0V0.97998Z" fill="white"/>
</mask>
<g mask="url(#mask0_60_5070)">
<path d="M12.8344 7.32471C15.912 7.32471 18.7709 7.76588 20.9267 8.50719C23.5236 9.39957 25.1205 10.7532 25.1205 11.9784C25.1205 13.2559 23.4287 14.6937 20.6392 15.6161C18.531 16.314 15.7562 16.6783 12.8344 16.6783C9.83978 16.6783 7.00355 16.3361 4.8712 15.6088C2.17334 14.6877 0.54834 13.2311 0.54834 11.9784C0.54834 10.7632 2.07307 9.42029 4.63323 8.52858C6.797 7.77524 9.72682 7.32471 12.8344 7.32471Z" stroke="#00D8FF" stroke-width="4"/>
</g>
<mask id="mask1_60_5070" style="mask-type:luminance" maskUnits="userSpaceOnUse" x="0" y="0" width="26" height="24">
<path d="M0 0H25.6684V24H0V0Z" fill="white"/>
</mask>
<g mask="url(#mask1_60_5070)">
<path d="M8.77735 9.66508C10.3148 7.00332 12.1256 4.75065 13.8455 3.256C15.9177 1.4552 17.889 0.749986 18.9525 1.36228C20.0601 1.99998 20.4618 4.18247 19.8689 7.05613C19.4211 9.22859 18.3509 11.8108 16.891 14.3382C15.395 16.9291 13.6818 19.2119 11.9852 20.6918C9.83818 22.5661 7.76332 23.2439 6.67642 22.6183C5.62227 22.0113 5.2192 20.0214 5.72455 17.3609C6.15235 15.1129 7.22521 12.3536 8.77669 9.66575L8.77735 9.66508Z" stroke="#00D8FF" stroke-width="4"/>
<path d="M8.78154 14.3444C7.23942 11.6853 6.18996 8.99351 5.75146 6.75955C5.22405 4.06771 5.59704 2.00956 6.65921 1.39525C7.76616 0.755548 9.85974 1.49753 12.0569 3.44605C13.718 4.91864 15.4239 7.13388 16.8872 9.65861C18.3878 12.2468 19.5128 14.8692 19.95 17.0764C20.5041 19.8692 20.0556 22.0029 18.97 22.6305C17.9166 23.2395 15.9888 22.5951 13.9333 20.8284C12.1966 19.3357 10.3384 17.0303 8.78087 14.3444H8.78154Z" stroke="#00D8FF" stroke-width="4"/>
</g>
</svg>
